<svg xmlns="http://www.w3.org/2000/svg" xmlns:xlink="http://www.w3.org/1999/xlink" width="500" zoomAndPan="magnify" viewBox="0 0 375 374.999991" height="500" preserveAspectRatio="xMidYMid meet" version="1.0"><defs><clipPath id="644c9687b4"><path d="M 71 58 L 308.992188 58 L 308.992188 302 L 71 302 Z M 71 58 " clip-rule="nonzero"/></clipPath><clipPath id="1075cbb110"><path d="M 184 49.816406 L 201 49.816406 L 201 53 L 184 53 Z M 184 49.816406 " clip-rule="nonzero"/></clipPath></defs><g clip-path="url(#644c9687b4)"><path fill="#4c4457" d="M 268.378906 288.308594 C 268.121094 289.3125 267.128906 289.699219 266.585938 290.460938 C 265.523438 290.003906 265.808594 289.039062 265.824219 288.25 C 265.894531 280.316406 265.25 272.421875 264.042969 264.585938 C 263.210938 259.203125 262.003906 253.878906 258.589844 249.402344 C 258.273438 249 257.96875 248.597656 257.597656 248.238281 C 255.53125 246.246094 254.882812 246.171875 252.5 247.78125 C 250.605469 249.042969 248.550781 249.992188 246.441406 250.824219 C 245.636719 251.140625 244.878906 251.496094 244.417969 252.285156 C 242.496094 255.601562 239.59375 257.796875 236.25 259.492188 C 229.988281 262.648438 223.328125 264.285156 216.335938 264.671875 C 214.871094 264.757812 213.421875 265.144531 211.941406 265.003906 C 211.039062 264.917969 210.953125 265.433594 210.96875 266.164062 C 211.023438 268.203125 211.398438 270.210938 211.355469 272.265625 C 211.296875 275.636719 210.308594 278.40625 207.003906 279.871094 C 203.761719 281.304688 200.933594 280.472656 198.449219 278.121094 C 198.363281 278.03125 198.261719 277.988281 198.015625 277.960938 C 197.660156 278.664062 197.515625 279.496094 197.199219 280.242188 C 196.066406 282.871094 194.082031 284.503906 191.226562 284.578125 C 188.46875 284.632812 186.375 283.285156 185.109375 280.746094 C 184.078125 278.664062 183.960938 276.382812 183.574219 274.160156 C 183.316406 272.621094 183.171875 272.507812 181.707031 273.054688 C 172.175781 276.597656 162.425781 279.339844 152.40625 281.03125 C 143.664062 282.511719 134.863281 283.085938 126.046875 281.621094 C 124.796875 281.421875 124.28125 281.679688 124.265625 283.027344 C 124.210938 288.007812 124.410156 292.972656 124.84375 297.9375 C 124.941406 299.042969 125.460938 300.25 124.554688 301.28125 C 123.5625 300.59375 122.402344 300.0625 122.402344 298.585938 C 121.726562 297.480469 121.710938 296.214844 121.65625 294.980469 C 121.4375 290.75 121.136719 286.515625 121.296875 282.265625 C 121.339844 281.21875 121.09375 280.429688 119.960938 280.011719 C 110.914062 276.640625 106.050781 269.910156 104.414062 260.609375 C 103.722656 256.707031 103.191406 252.773438 103.292969 248.800781 C 103.351562 246.402344 102.832031 244.0625 102.933594 241.679688 C 103.292969 233.890625 103.320312 226.082031 103.867188 218.289062 C 104.484375 209.519531 105.460938 200.824219 107.242188 192.214844 C 107.527344 190.820312 107.097656 190.003906 105.890625 189.300781 C 102.90625 187.535156 100.535156 185.109375 98.957031 182.007812 C 97.089844 178.320312 96.6875 174.5625 98.84375 170.816406 C 99.90625 168.976562 101.640625 168.046875 103.550781 167.398438 C 104.382812 167.113281 105.246094 167.183594 105.917969 167.875 C 106.625 168.578125 106.25 169.335938 105.992188 170.097656 C 105.589844 171.273438 105.042969 172.4375 105.375 173.730469 C 105.605469 174.617188 105.890625 175.621094 107.011719 175.59375 C 108 175.566406 108.375 174.648438 108.546875 173.800781 C 108.835938 172.394531 108.75 170.988281 108.488281 169.582031 C 107.859375 166.238281 106.796875 162.992188 106.007812 159.691406 C 104.757812 154.46875 104.140625 149.230469 105.117188 143.878906 C 106.851562 134.390625 112.195312 127.660156 120.636719 123.199219 C 125.34375 120.714844 130.367188 118.851562 134.921875 116.050781 C 139.457031 113.265625 143.589844 110.082031 146.261719 105.316406 C 147.238281 103.578125 147.984375 101.742188 148.585938 99.847656 C 150.496094 93.921875 152.207031 87.9375 154.746094 82.238281 C 154.332031 81.839844 153.941406 82.125 153.597656 82.195312 C 138.695312 85.65625 125.15625 92.054688 113.054688 101.382812 C 102.015625 109.894531 93.171875 120.285156 86.421875 132.527344 C 79.890625 144.378906 76.53125 157.152344 74.953125 170.484375 C 74.347656 175.59375 74.078125 180.730469 73.875 185.882812 C 73.460938 196.90625 74.335938 207.796875 76.1875 218.648438 C 76.375 219.753906 77.234375 221.058594 75.828125 222.050781 C 74.535156 222.363281 74.335938 221.503906 74.132812 220.542969 C 72.410156 212.089844 71.535156 203.550781 71.363281 194.941406 C 71.046875 179.011719 72.324219 163.265625 77.191406 148.011719 C 82.617188 131.035156 92.09375 116.597656 105.300781 104.671875 C 119.457031 91.898438 135.953125 83.617188 154.546875 79.46875 C 156.269531 79.082031 157.332031 78.394531 158.320312 76.886719 C 166.847656 63.972656 178.964844 57.871094 194.371094 58.847656 C 210.148438 59.851562 222.582031 67.042969 231.625 80.042969 C 232.070312 80.691406 232.488281 81.207031 233.335938 81.492188 C 258.027344 89.847656 277.652344 104.714844 291.523438 126.902344 C 299.316406 139.371094 303.996094 153.003906 306.46875 167.484375 C 308.691406 180.589844 308.992188 193.734375 307.660156 206.921875 C 306.179688 221.546875 301.972656 235.453125 296.042969 248.871094 C 293 255.746094 289.613281 262.449219 285.636719 268.835938 C 285.105469 269.679688 284.617188 270.542969 283.382812 269.910156 C 282.464844 269.078125 283.179688 268.332031 283.582031 267.65625 C 286.597656 262.777344 289.210938 257.683594 291.652344 252.515625 C 297.320312 240.546875 301.742188 228.148438 304.042969 215.046875 C 305.820312 204.898438 306.367188 194.667969 305.863281 184.421875 C 305.089844 168.863281 302.015625 153.765625 295.5 139.5 C 290.53125 128.636719 283.914062 118.90625 275.5 110.382812 C 264.632812 99.359375 251.957031 91.152344 237.570312 85.496094 C 236.78125 85.183594 235.976562 84.910156 235.171875 84.636719 C 235.015625 84.578125 234.855469 84.523438 234.640625 84.636719 C 234.496094 85.269531 234.886719 85.800781 235.058594 86.359375 C 237.125 92.929688 236.679688 99.304688 233.59375 105.472656 C 232.761719 107.140625 232 108.859375 231.082031 110.484375 C 227.019531 117.660156 226.15625 125.320312 227.460938 133.328125 C 228.109375 137.304688 228.523438 141.308594 228.28125 145.34375 C 227.894531 151.757812 225.382812 157.039062 219.753906 160.554688 C 218.632812 161.257812 217.414062 161.6875 216.035156 162.148438 C 218.847656 164.054688 221.089844 166.4375 223.285156 168.863281 C 223.945312 169.59375 224.578125 169.550781 225.410156 169.207031 C 232.257812 166.367188 239.277344 165.964844 246.355469 168.160156 C 260.398438 172.507812 268.035156 190.132812 256.132812 203.25 C 254.652344 204.886719 252.816406 206.148438 250.851562 207.195312 C 248.925781 208.214844 248.910156 208.53125 250.132812 210.296875 C 253.390625 214.988281 256.691406 219.667969 259.507812 224.660156 C 259.953125 225.449219 260.382812 226.253906 260.785156 227.058594 C 263.855469 233.230469 263.226562 238.050781 258.515625 243.089844 C 257.527344 244.148438 257.570312 244.566406 258.675781 245.5 C 262.078125 248.371094 263.941406 252.242188 265.207031 256.421875 C 266.441406 260.496094 267.171875 264.6875 267.632812 268.90625 C 268.25 274.589844 268.765625 280.273438 268.78125 285.996094 C 268.78125 286.800781 268.78125 287.589844 268.378906 288.308594 Z M 268.378906 288.308594 " fill-opacity="1" fill-rule="nonzero"/></g><path fill="#fee0a0" d="M 268.378906 288.308594 C 268.277344 281.289062 267.875 274.289062 266.957031 267.3125 C 266.398438 263.050781 265.636719 258.832031 264.1875 254.769531 C 262.535156 250.175781 260.570312 247.507812 256.59375 244.378906 C 257.46875 243.460938 258.371094 242.570312 259.207031 241.609375 C 262.304688 238.035156 262.964844 233.976562 261.359375 229.570312 C 259.738281 225.121094 256.996094 221.273438 254.425781 217.355469 C 252.746094 214.800781 250.992188 212.289062 249.214844 209.808594 C 248.367188 208.617188 248.4375 207.898438 249.84375 207.210938 C 255.976562 204.195312 259.851562 199.300781 261.144531 192.613281 C 262.867188 183.773438 258.632812 174.832031 250.476562 170.457031 C 242.320312 166.078125 233.851562 166.324219 225.410156 169.753906 C 224.289062 170.210938 223.730469 170.226562 222.941406 169.222656 C 220.757812 166.46875 218.1875 164.070312 215.015625 162.046875 C 221.847656 160.082031 225.8125 155.589844 227.375 148.914062 C 228.152344 145.570312 228.050781 142.171875 227.707031 138.785156 C 227.347656 135.179688 226.703125 131.621094 226.472656 128.003906 C 226.097656 121.964844 227.519531 116.339844 230.320312 111.027344 C 231.082031 109.578125 231.8125 108.113281 232.589844 106.664062 C 236.507812 99.273438 236.996094 91.695312 233.636719 83.773438 C 235.460938 84.0625 236.96875 84.78125 238.488281 85.398438 C 263.757812 95.703125 282.964844 112.648438 294.980469 137.335938 C 300.695312 149.074219 303.925781 161.542969 305.449219 174.488281 C 306.839844 186.359375 306.796875 198.210938 305.277344 210.050781 C 303.4375 224.300781 298.972656 237.777344 293 250.792969 C 290.300781 256.648438 287.316406 262.363281 283.941406 267.859375 C 283.554688 268.476562 283.050781 269.0625 283.382812 269.882812 C 281.371094 271.949219 280.007812 274.503906 278.199219 276.726562 C 275.027344 280.671875 271.996094 284.75 268.378906 288.308594 Z M 268.378906 288.308594 " fill-opacity="1" fill-rule="nonzero"/><path fill="#fee0a0" d="M 75.828125 222.050781 C 76.589844 220.945312 75.941406 219.824219 75.757812 218.777344 C 73.289062 205.328125 72.769531 191.796875 73.746094 178.191406 C 74.59375 166.410156 76.417969 154.8125 80.722656 143.75 C 87.054688 127.476562 97.019531 113.8125 110.558594 102.789062 C 123.492188 92.257812 138.136719 85.226562 154.386719 81.507812 C 154.761719 81.421875 155.148438 81.394531 155.75 81.292969 C 152.433594 87.878906 150.828125 94.898438 148.429688 101.613281 C 146.390625 107.339844 142.527344 111.589844 137.5625 114.917969 C 133.511719 117.644531 129.0625 119.625 124.640625 121.664062 C 119.359375 124.117188 114.375 126.972656 110.800781 131.75 C 105.546875 138.796875 104.253906 146.734375 105.574219 155.257812 C 106.320312 160.136719 108.058594 164.773438 108.976562 169.59375 C 109.308594 171.332031 109.394531 173.082031 108.761719 174.789062 C 108.445312 175.636719 107.871094 176.328125 106.910156 176.3125 C 105.949219 176.296875 105.445312 175.523438 105.128906 174.703125 C 104.511719 173.125 104.84375 171.589844 105.476562 170.097656 C 105.746094 169.4375 106.351562 168.777344 105.703125 168.074219 C 105.015625 167.328125 104.152344 167.585938 103.335938 167.875 C 99.085938 169.324219 96.933594 173.511719 98.066406 178.320312 C 99.214844 183.1875 102.230469 186.671875 106.492188 189.085938 C 107.773438 189.800781 108.058594 190.546875 107.773438 191.855469 C 104.238281 208.445312 103.609375 225.292969 103.535156 242.167969 C 103.507812 249.402344 103.695312 256.648438 105.632812 263.726562 C 107.773438 271.503906 112.550781 276.8125 120.148438 279.496094 C 121.4375 279.957031 121.828125 280.574219 121.785156 281.921875 C 121.625 287.476562 121.957031 293 122.359375 298.539062 C 121.855469 298.855469 121.46875 298.726562 121.023438 298.324219 C 115.910156 293.761719 111.230469 288.824219 106.867188 283.542969 C 102.789062 278.621094 99 273.527344 95.527344 268.175781 C 89.066406 258.199219 83.824219 247.636719 79.863281 236.429688 C 78.382812 232.238281 77.207031 227.949219 75.914062 223.699219 C 75.769531 223.210938 75.855469 222.609375 75.828125 222.050781 Z M 75.828125 222.050781 " fill-opacity="1" fill-rule="nonzero"/><path fill="#fe9575" d="M 124.554688 301.269531 C 124.238281 295.640625 123.679688 290.015625 123.792969 284.363281 C 123.808594 283.574219 123.851562 282.769531 123.78125 281.980469 C 123.691406 280.933594 124.152344 280.730469 125.085938 280.917969 C 135.851562 282.984375 146.492188 281.765625 157.074219 279.625 C 165.558594 277.902344 173.855469 275.492188 181.953125 272.4375 C 183.847656 271.71875 183.804688 271.746094 184.0625 273.84375 C 184.308594 275.851562 184.4375 277.902344 185.210938 279.8125 C 186.332031 282.566406 188.511719 284.175781 191.113281 284.160156 C 193.710938 284.132812 196.023438 282.324219 196.96875 279.511719 C 197.285156 278.605469 197.574219 277.6875 197.601562 276.484375 C 199.09375 278.078125 200.445312 279.527344 202.597656 279.925781 C 206.832031 280.703125 210.566406 277.875 210.851562 273.554688 C 211.023438 271 210.664062 268.460938 210.40625 265.933594 C 210.277344 264.65625 210.664062 264.484375 211.828125 264.457031 C 219.410156 264.300781 226.816406 263.222656 233.792969 260.109375 C 238.03125 258.214844 241.976562 255.945312 244.230469 251.597656 C 244.546875 250.996094 245.164062 250.808594 245.738281 250.59375 C 248.597656 249.472656 251.351562 248.167969 253.777344 246.273438 C 254.523438 245.699219 255.085938 245.871094 255.773438 246.289062 C 258.601562 247.9375 260.253906 250.550781 261.503906 253.449219 C 263.785156 258.757812 264.660156 264.386719 265.25 270.082031 C 265.925781 276.554688 266.371094 283.042969 266.28125 289.558594 C 266.28125 289.886719 266.238281 290.246094 266.570312 290.476562 C 262.304688 294.753906 258.015625 298.984375 253.105469 302.515625 C 252.34375 301.929688 252.429688 300.996094 252.257812 300.207031 C 251.367188 296.085938 250.347656 292.011719 247.761719 288.566406 C 244.691406 284.476562 240.46875 283.042969 235.503906 283.558594 C 228.324219 284.289062 221.847656 287.1875 215.476562 290.273438 C 206.34375 294.695312 197.585938 299.804688 188.785156 304.828125 C 180.128906 309.761719 171.472656 314.699219 162.902344 319.78125 C 162.554688 319.980469 162.15625 320.054688 161.808594 320.253906 C 148.15625 316.351562 135.839844 309.835938 124.554688 301.269531 Z M 124.554688 301.269531 " fill-opacity="1" fill-rule="nonzero"/><path fill="#fe9576" d="M 232.300781 315.203125 C 228.957031 317.125 225.296875 318.316406 221.664062 319.535156 C 209.558594 323.582031 197.097656 325.0625 184.394531 324.300781 C 177.574219 323.898438 170.8125 322.953125 164.25 320.84375 C 164.28125 319.996094 165.011719 319.765625 165.570312 319.4375 C 172.863281 315.203125 180.1875 310.996094 187.507812 306.792969 C 195.117188 302.414062 202.769531 298.097656 210.535156 294.019531 C 218.175781 290.015625 225.828125 286.070312 234.496094 284.707031 C 241.058594 283.671875 245.507812 285.839844 248.582031 291.867188 C 250.1875 295.023438 250.90625 298.484375 251.382812 301.972656 C 251.46875 302.632812 251.480469 303.335938 251.066406 303.9375 C 247.664062 306.835938 243.800781 309.058594 239.96875 311.3125 C 238.257812 312.316406 236.566406 313.308594 234.714844 314.039062 C 233.921875 313.019531 235.300781 311.886719 234.484375 310.683594 C 233.191406 311.988281 233.578125 314.027344 232.300781 315.203125 Z M 232.300781 315.203125 " fill-opacity="1" fill-rule="nonzero"/><path fill="#574152" d="M 251.078125 303.953125 C 250.820312 299.445312 249.859375 295.097656 247.664062 291.121094 C 244.933594 286.171875 240.597656 284.246094 234.972656 285.078125 C 228.324219 286.070312 222.265625 288.667969 216.320312 291.59375 C 202.96875 298.183594 190.179688 305.789062 177.285156 313.207031 C 172.921875 315.71875 168.5 318.117188 164.28125 320.84375 C 163.460938 320.640625 162.644531 320.457031 161.824219 320.253906 C 163.433594 318.519531 165.601562 317.628906 167.597656 316.496094 C 182.066406 308.199219 196.378906 299.632812 211.183594 291.9375 C 217.699219 288.550781 224.320312 285.308594 231.570312 283.714844 C 235.417969 282.871094 239.265625 282.453125 243.039062 284.132812 C 247.621094 286.183594 249.773438 290.160156 251.28125 294.59375 C 252.15625 297.164062 252.730469 299.816406 253.117188 302.5 C 252.472656 303.046875 251.925781 303.707031 251.078125 303.953125 Z M 251.078125 303.953125 " fill-opacity="1" fill-rule="nonzero"/><path fill="#4a4654" d="M 67.085938 115.621094 C 66.496094 115.492188 65.992188 115.21875 66.125 114.5 C 66.210938 114.011719 66.453125 113.539062 66.640625 113.066406 C 68.535156 108.386719 70.976562 104.011719 73.820312 99.835938 C 74.046875 99.503906 74.25 99.160156 74.523438 98.871094 C 74.953125 98.414062 75.3125 97.59375 76.144531 98.226562 C 76.949219 98.84375 76.375 99.433594 75.984375 99.976562 C 73.316406 103.710938 71.078125 107.683594 69.167969 111.847656 C 68.734375 112.765625 68.390625 113.726562 67.976562 114.644531 C 67.804688 115.0625 67.628906 115.519531 67.085938 115.621094 Z M 67.085938 115.621094 " fill-opacity="1" fill-rule="nonzero"/><path fill="#464155" d="M 295.972656 96.304688 C 296.503906 96.449219 296.820312 96.863281 297.121094 97.265625 C 300.265625 101.484375 302.949219 105.960938 305.015625 110.8125 C 305.277344 111.414062 305.921875 112.234375 304.84375 112.679688 C 303.882812 113.066406 303.625 112.203125 303.324219 111.546875 C 301.226562 106.925781 298.730469 102.519531 295.683594 98.457031 C 295.328125 97.984375 294.808594 97.496094 295.167969 96.804688 C 295.3125 96.476562 295.585938 96.289062 295.972656 96.304688 Z M 295.972656 96.304688 " fill-opacity="1" fill-rule="nonzero"/><g clip-path="url(#1075cbb110)"><path fill="#464553" d="M 191.972656 49.863281 C 194.226562 49.992188 196.480469 49.890625 198.722656 50.308594 C 199.324219 50.421875 200.070312 50.410156 200.027344 51.285156 C 199.984375 52.175781 199.253906 52.144531 198.632812 52.074219 C 194.355469 51.613281 190.09375 51.515625 185.8125 52.03125 C 185.195312 52.101562 184.621094 51.902344 184.492188 51.253906 C 184.335938 50.453125 185.023438 50.394531 185.570312 50.28125 C 187.679688 49.820312 189.835938 49.992188 191.972656 49.863281 Z M 191.972656 49.863281 " fill-opacity="1" fill-rule="nonzero"/></g><path fill="#494456" d="M 298.542969 265.847656 C 298.398438 266.179688 298.242188 266.59375 298.039062 267.011719 C 296.5625 270.140625 294.695312 273.023438 292.699219 275.835938 C 292.3125 276.382812 291.894531 277.101562 291.078125 276.554688 C 290.332031 276.050781 290.789062 275.449219 291.132812 274.933594 C 293.128906 271.976562 294.996094 268.949219 296.589844 265.761719 C 296.832031 265.261719 297.164062 264.742188 297.882812 264.875 C 298.355469 264.972656 298.527344 265.316406 298.542969 265.847656 Z M 298.542969 265.847656 " fill-opacity="1" fill-rule="nonzero"/><path fill="#474253" d="M 86.367188 275.722656 C 86.367188 276.253906 86.078125 276.453125 85.777344 276.625 C 85.332031 276.898438 84.988281 276.613281 84.773438 276.296875 C 83.984375 275.207031 83.164062 274.117188 82.476562 272.96875 C 81.285156 270.945312 80.148438 268.863281 79.042969 266.78125 C 78.742188 266.207031 78.371094 265.433594 79.203125 265.003906 C 80.078125 264.558594 80.351562 265.347656 80.667969 265.949219 C 82.1875 268.964844 83.898438 271.863281 85.792969 274.660156 C 86.050781 275.019531 86.222656 275.4375 86.367188 275.722656 Z M 86.367188 275.722656 " fill-opacity="1" fill-rule="nonzero"/><path fill="#484753" d="M 124.898438 77.289062 C 124.367188 77.390625 124.023438 77.230469 123.867188 76.800781 C 123.648438 76.199219 124.039062 75.867188 124.484375 75.582031 C 126.105469 74.5625 127.828125 73.714844 129.621094 73.054688 C 131.300781 72.421875 133.011719 71.863281 134.703125 71.277344 C 135.292969 71.074219 135.851562 70.988281 136.070312 71.734375 C 136.242188 72.351562 135.882812 72.667969 135.335938 72.855469 C 131.875 74.015625 128.515625 75.421875 125.300781 77.171875 C 125.15625 77.261719 124.972656 77.273438 124.898438 77.289062 Z M 124.898438 77.289062 " fill-opacity="1" fill-rule="nonzero"/><path fill="#5a4356" d="M 232.300781 315.203125 C 232.703125 313.8125 233.121094 312.433594 233.519531 311.039062 C 233.707031 310.394531 234.050781 309.878906 234.828125 310.066406 C 235.632812 310.25 235.402344 310.941406 235.316406 311.441406 C 235.171875 312.316406 234.929688 313.179688 234.726562 314.039062 C 234.039062 314.6875 233.148438 314.886719 232.300781 315.203125 Z M 232.300781 315.203125 " fill-opacity="1" fill-rule="nonzero"/><path fill="#fcfcfd" d="M 135.179688 215.03125 C 135.179688 211.359375 135.179688 207.683594 135.179688 203.996094 C 135.179688 203.707031 135.207031 203.421875 135.179688 203.148438 C 135.121094 202.601562 135.148438 201.941406 134.347656 201.898438 C 133.527344 201.855469 133.285156 202.386719 133.253906 203.089844 C 133.199219 204.511719 133.097656 205.917969 133.054688 207.339844 C 132.796875 214.011719 132.523438 220.6875 132.351562 227.375 C 132.320312 228.59375 131.933594 229.195312 130.800781 229.613281 C 123.390625 232.296875 115.925781 232.796875 108.375 230.214844 C 106.796875 229.667969 105.660156 229.023438 105.777344 226.898438 C 106.40625 215.535156 107.167969 204.195312 109.523438 193.046875 C 111.316406 184.59375 114.246094 176.628906 120.519531 170.339844 C 125.242188 165.589844 130.855469 162.550781 137.632812 161.875 C 139.15625 161.714844 139.757812 162.277344 140.1875 163.753906 C 142.441406 171.546875 145.757812 178.78125 151.703125 184.550781 C 156.542969 189.226562 162.296875 191.753906 169.015625 192.140625 C 169.792969 192.183594 170.308594 192.140625 170.496094 193.203125 C 170.710938 194.410156 171.644531 195.328125 171.140625 196.863281 C 170.683594 198.296875 172.148438 199.246094 173.410156 199.5625 C 176.050781 200.191406 177.902344 202.386719 180.589844 202.890625 C 181.175781 203.003906 181.277344 203.75 181.535156 204.226562 C 183.558594 207.957031 185.511719 211.746094 188.902344 214.484375 C 193.292969 218.03125 198.535156 219.007812 203.976562 219.335938 C 206.113281 219.464844 206.171875 219.4375 205.726562 221.546875 C 205.382812 223.183594 205.839844 225.421875 204.648438 226.3125 C 203.558594 227.128906 201.492188 226.714844 199.855469 226.742188 C 191.472656 226.914062 183.875 229.496094 176.496094 233.457031 C 163.058594 240.664062 150.125 239.097656 137.734375 230.472656 C 135.105469 228.652344 133.945312 226.757812 134.332031 223.542969 C 134.660156 220.757812 134.402344 217.886719 134.402344 215.058594 C 134.660156 215.03125 134.921875 215.03125 135.179688 215.03125 Z M 135.179688 215.03125 " fill-opacity="1" fill-rule="nonzero"/><path fill="#fed7c4" d="M 224.347656 247.507812 C 223.085938 248.84375 221.433594 249.589844 219.855469 250.4375 C 219.351562 250.707031 218.863281 250.980469 218.402344 251.3125 C 218.117188 251.511719 217.957031 251.84375 218.117188 252.199219 C 218.273438 252.546875 218.574219 252.660156 218.949219 252.675781 C 219.652344 252.6875 220.253906 252.34375 220.875 252.058594 C 226.070312 249.660156 229.933594 245.757812 233.21875 241.179688 C 233.707031 240.492188 234.210938 239.789062 234.742188 239.140625 C 235.101562 238.710938 235.589844 238.164062 236.164062 238.539062 C 236.652344 238.855469 236.335938 239.457031 236.164062 239.945312 C 235.273438 242.429688 233.75 244.550781 232.144531 246.605469 C 228.785156 250.878906 224.476562 253.75 219.222656 255.199219 C 218.734375 255.328125 218.246094 255.488281 217.773438 255.660156 C 217.167969 255.890625 216.796875 256.335938 217.027344 256.980469 C 217.285156 257.683594 217.859375 257.308594 218.316406 257.210938 C 223.328125 256.160156 227.59375 253.707031 231.339844 250.175781 C 230.59375 251.484375 229.53125 252.574219 227.777344 253.808594 C 225.109375 255.6875 222.179688 257.167969 218.992188 257.699219 C 210.996094 259.019531 203.574219 261.929688 196.164062 265.058594 C 184.191406 270.109375 171.945312 274.445312 159.226562 277.285156 C 150.984375 279.125 142.660156 280.445312 134.160156 280.15625 C 130.3125 280.027344 126.492188 279.539062 122.773438 278.476562 C 114.492188 276.097656 109.164062 270.769531 107.285156 262.347656 C 105 252.144531 105.460938 241.78125 105.617188 231.21875 C 114.460938 234.878906 123.105469 234.320312 131.847656 231.320312 C 132.09375 233.097656 131.675781 234.808594 131.589844 236.515625 C 131.332031 241.496094 130.898438 246.460938 130.597656 251.425781 C 130.542969 252.402344 130.140625 252.515625 129.320312 252.429688 C 128.203125 252.316406 127.050781 252.300781 125.933594 252.273438 C 125.316406 252.257812 124.554688 252.214844 124.539062 253.089844 C 124.511719 253.953125 125.285156 253.964844 125.890625 254.007812 C 129.953125 254.355469 134.015625 254.710938 138.078125 255.015625 C 143.503906 255.429688 148.933594 255.730469 154.375 255.875 C 161.753906 256.074219 169.101562 255.703125 176.453125 255.1875 C 179.324219 254.984375 182.195312 254.65625 185.066406 254.355469 C 187.882812 254.066406 189.890625 252.632812 191.167969 250.089844 C 192.648438 247.148438 193.640625 244.019531 194.875 240.992188 C 196.078125 237.992188 197.328125 235.023438 199.828125 232.796875 C 200.601562 232.109375 201.421875 231.519531 202.425781 231.261719 C 203.054688 231.105469 203.832031 230.773438 204.277344 231.519531 C 204.679688 232.195312 204.292969 232.839844 203.859375 233.386719 C 203.328125 234.046875 202.769531 234.691406 202.222656 235.339844 C 199.050781 239.054688 200.5 243.230469 205.3125 244.164062 C 209.246094 244.925781 212.949219 243.878906 216.59375 242.601562 C 220.082031 241.378906 223.285156 239.601562 226.5 237.808594 C 227.074219 237.492188 227.894531 236.671875 228.425781 237.390625 C 228.941406 238.09375 227.980469 238.695312 227.507812 239.171875 C 225.066406 241.667969 222.121094 243.476562 219.09375 245.15625 C 218.648438 245.398438 218.203125 245.640625 217.757812 245.886719 C 217.253906 246.171875 216.695312 246.503906 216.996094 247.191406 C 217.355469 248.011719 218.089844 247.710938 218.605469 247.464844 C 220.027344 246.789062 221.40625 246.015625 222.8125 245.285156 C 223.328125 245.988281 224.074219 246.574219 224.347656 247.507812 Z M 224.347656 247.507812 " fill-opacity="1" fill-rule="nonzero"/><path fill="#fed7c3" d="M 185.355469 145.886719 C 185.398438 147.292969 185.382812 148.714844 185.742188 150.09375 C 186.71875 153.894531 189.101562 156.40625 192.734375 157.796875 C 194.742188 158.574219 196.855469 159.03125 198.949219 159.433594 C 200.011719 159.636719 200.671875 160.179688 201.117188 161.113281 C 205.613281 170.570312 204.234375 182.410156 193.941406 187.992188 C 192.621094 188.710938 192.089844 189.714844 192.203125 191.164062 C 192.316406 192.742188 192.546875 194.308594 192.347656 195.902344 C 190.148438 195.082031 188.328125 193.878906 187.179688 191.726562 C 186.519531 190.492188 185.570312 189.414062 184.738281 188.265625 C 183.71875 186.859375 182.398438 186.316406 180.761719 187.117188 C 180.015625 187.476562 179.441406 187.449219 178.722656 187.003906 C 176.753906 185.8125 175.835938 186.054688 174.445312 187.851562 C 172.375 190.492188 169.605469 190.417969 166.621094 189.960938 C 159.210938 188.824219 153.714844 184.777344 149.378906 178.921875 C 145.558594 173.757812 143.234375 167.917969 141.652344 161.730469 C 141.394531 160.742188 141.640625 160.28125 142.570312 159.953125 C 143.949219 159.464844 145.300781 158.875 146.648438 158.300781 C 155.75 154.382812 160.316406 146.878906 162.886719 137.777344 C 164.0625 133.589844 164.898438 129.3125 165.644531 125.035156 C 165.714844 124.648438 165.800781 124.273438 165.960938 123.570312 C 167.683594 126.285156 169.261719 128.753906 170.839844 131.21875 C 173.152344 136.414062 176.367188 140.835938 181.320312 143.863281 C 182.597656 144.667969 184.164062 144.898438 185.355469 145.886719 Z M 185.355469 145.886719 " fill-opacity="1" fill-rule="nonzero"/><path fill="#fed7c3" d="M 198.863281 101.414062 C 202.613281 100.480469 206.144531 99.574219 209.332031 97.683594 C 212.53125 95.789062 215.074219 93.304688 216.808594 89.574219 C 218.433594 94.382812 221.632812 97.683594 225.023438 100.808594 C 226.085938 101.785156 225.738281 102.832031 225.382812 103.925781 C 224.546875 106.464844 224.546875 106.464844 221.921875 106.292969 C 219.59375 106.132812 217.269531 106.132812 215.03125 106.851562 C 213.191406 107.441406 211.714844 108.546875 210.707031 110.210938 C 210.449219 110.65625 210.25 111.199219 210.792969 111.558594 C 211.226562 111.847656 211.671875 111.644531 211.972656 111.230469 C 214.011719 108.289062 217.070312 107.941406 220.253906 107.972656 C 224.058594 107.984375 224.074219 108 222.597656 111.542969 C 218.460938 121.445312 213.179688 130.589844 205.296875 138.039062 C 204.191406 139.085938 202.984375 140.046875 201.808594 141.007812 C 197.789062 144.265625 193.367188 144.839844 188.597656 142.960938 C 182.496094 140.546875 177.601562 136.53125 173.554688 131.449219 C 171.285156 128.609375 169.347656 125.566406 167.566406 122.410156 C 166.734375 120.929688 166.476562 119.523438 166.976562 117.886719 C 167.421875 116.4375 167.769531 114.945312 168.371094 113.539062 C 168.757812 112.648438 168.859375 111.945312 167.523438 112.160156 C 165.917969 112.421875 165.613281 111.644531 166.03125 110.3125 C 166.460938 108.949219 166.175781 108.332031 164.625 108.804688 C 164.078125 108.976562 163.660156 108.6875 163.332031 108.214844 C 162.269531 106.695312 162.5 103.335938 163.820312 101.425781 C 165.097656 99.574219 167.222656 98.742188 169.289062 99.261719 C 171.628906 99.847656 172.449219 101.613281 171.386719 103.765625 C 171.3125 103.925781 171.199219 104.054688 171.140625 104.210938 C 170.914062 104.855469 170.179688 105.589844 171.128906 106.121094 C 172.148438 106.695312 172.363281 105.660156 172.664062 105.074219 C 173.925781 102.675781 176.023438 101.511719 178.578125 101.371094 C 184.003906 101.070312 189.433594 101.714844 194.875 101.828125 C 197.242188 101.871094 199.265625 103.753906 201.40625 104.898438 C 202.09375 105.273438 202.941406 106.492188 203.675781 105.316406 C 204.390625 104.195312 203.011719 103.851562 202.339844 103.394531 C 201.261719 102.71875 200.15625 102.160156 198.863281 101.414062 Z M 198.863281 101.414062 " fill-opacity="1" fill-rule="nonzero"/><path fill="#fcfcfd" d="M 224.347656 247.507812 C 223.703125 246.847656 222.683594 246.433594 222.796875 245.253906 C 224.851562 243.675781 227.03125 242.253906 228.796875 240.332031 C 230.433594 238.539062 230.824219 237.277344 230.019531 236.171875 C 229.15625 235.007812 227.75 234.949219 225.566406 236.183594 C 221.375 238.554688 217.140625 240.792969 212.417969 241.910156 C 209.976562 242.484375 207.507812 242.84375 205.039062 242.15625 C 202.125 241.335938 201.464844 239.027344 203.414062 236.757812 C 204.304688 235.738281 205.367188 234.863281 205.898438 233.558594 C 206.371094 232.410156 206.558594 231.261719 205.683594 230.214844 C 204.851562 229.210938 203.789062 229.210938 202.597656 229.425781 C 199.941406 229.898438 198.160156 231.550781 196.640625 233.585938 C 194.730469 236.15625 193.59375 239.113281 192.460938 242.070312 C 191.570312 244.394531 190.652344 246.691406 189.660156 248.972656 C 188.628906 251.324219 186.71875 252.445312 184.191406 252.632812 C 182.671875 252.746094 181.105469 252.71875 179.640625 253.105469 C 177.847656 253.578125 177.488281 252.632812 177.242188 251.269531 C 175.492188 241.480469 180.6875 232.898438 190.292969 230.015625 C 196.066406 228.292969 202.039062 228.335938 207.980469 228.59375 C 209.171875 228.652344 210.320312 229.339844 211.5 229.742188 C 212.074219 229.929688 212.660156 230.058594 212.960938 229.382812 C 213.320312 228.621094 212.761719 228.191406 212.1875 227.949219 C 210.722656 227.332031 209.246094 226.769531 207.679688 226.539062 C 207.105469 226.453125 206.730469 226.425781 206.890625 225.664062 C 207.21875 223.945312 207.476562 222.222656 207.808594 220.210938 C 209.589844 221.863281 211.511719 222.824219 213.710938 223.226562 C 214.097656 223.296875 214.484375 223.382812 214.871094 223.425781 C 215.390625 223.46875 215.90625 223.5 215.992188 222.753906 C 216.0625 222.09375 215.703125 221.847656 215.160156 221.703125 C 213.910156 221.359375 212.648438 221.058594 211.425781 220.644531 C 210.882812 220.457031 210.234375 220.296875 210.019531 219.480469 C 212.820312 219.351562 215.5625 219.234375 218.304688 219.09375 C 218.992188 219.050781 220.011719 219.222656 219.910156 218.132812 C 219.8125 217.183594 218.90625 217.285156 218.144531 217.285156 C 213.105469 217.3125 208.097656 217.671875 203.042969 217.398438 C 193.855469 216.910156 187.566406 212.519531 183.660156 204.3125 C 182.023438 200.882812 184.394531 196.605469 188.242188 196.445312 C 189.445312 196.402344 190.453125 196.847656 191.226562 197.78125 C 193.078125 199.992188 195.003906 202.160156 196.769531 204.441406 C 198.503906 206.691406 200.703125 207.699219 203.53125 207.539062 C 206.417969 207.382812 209.300781 207.367188 212.1875 207.253906 C 217.199219 207.023438 222.136719 207.265625 226.886719 209.117188 C 230.535156 210.539062 234.339844 210.941406 238.214844 210.46875 C 238.875 210.382812 239.222656 210.394531 239.480469 211.113281 C 241.074219 215.390625 241.574219 219.867188 242.148438 224.359375 C 242.265625 225.277344 241.703125 225.175781 241.128906 225.191406 C 239.4375 225.222656 237.726562 224.960938 236.0625 225.449219 C 234.066406 226.039062 233.347656 227.402344 234.082031 229.296875 C 234.195312 229.613281 234.382812 229.769531 234.136719 230.15625 C 232.445312 232.925781 232.617188 233.890625 235.042969 236.027344 C 235.15625 236.128906 235.257812 236.269531 235.488281 236.5 C 233.59375 237.132812 232.675781 238.695312 231.667969 240.160156 C 229.644531 243.015625 227.289062 245.542969 224.347656 247.507812 Z M 224.347656 247.507812 " fill-opacity="1" fill-rule="nonzero"/><path fill="#fe9475" d="M 134 229.957031 C 141.007812 235.296875 148.214844 239.15625 156.785156 239.714844 C 165.253906 240.273438 173.023438 238.078125 180.285156 233.6875 C 178.996094 235.453125 177.660156 237.148438 176.796875 239.128906 C 175.089844 243.03125 174.730469 247.078125 175.421875 251.253906 C 175.777344 253.421875 175.808594 253.449219 173.582031 253.578125 C 170.925781 253.738281 168.269531 253.867188 165.613281 253.964844 C 155.132812 254.324219 144.683594 253.636719 134.230469 252.902344 C 133.382812 252.847656 132.492188 252.890625 132.578125 251.570312 C 133.054688 244.523438 133.511719 237.476562 134 229.957031 Z M 134 229.957031 " fill-opacity="1" fill-rule="nonzero"/><path fill="#fed7c2" d="M 217.054688 183.328125 C 218.503906 184.765625 218.605469 186.15625 217.398438 187.550781 C 216.996094 188.007812 216.507812 188.425781 216.019531 188.8125 C 213.796875 190.605469 213.710938 191.511719 215.5625 193.648438 C 215.703125 193.804688 215.820312 193.992188 216.078125 194.335938 C 215 194.507812 213.980469 194.609375 214.109375 196.015625 C 214.210938 197.121094 214.757812 197.808594 215.734375 198.167969 C 216.136719 198.3125 216.679688 198.46875 216.953125 197.953125 C 217.269531 197.363281 216.722656 197.179688 216.351562 196.964844 C 215.863281 196.675781 215.230469 196.390625 215.402344 195.730469 C 215.546875 195.183594 216.105469 194.898438 216.695312 194.738281 C 218.074219 194.378906 217.742188 193.964844 216.851562 193.21875 C 216.148438 192.644531 215.246094 191.769531 215.445312 190.949219 C 215.675781 190.046875 217.644531 188.941406 218.058594 188.425781 C 219.839844 186.15625 219.753906 184.507812 217.6875 182.667969 C 217.382812 182.410156 217.425781 182.253906 217.527344 181.996094 C 217.671875 181.621094 217.800781 181.25 217.957031 180.890625 C 218.433594 179.800781 218.648438 178.378906 219.464844 177.71875 C 220.484375 176.914062 221.433594 178.421875 222.511719 178.707031 C 224.621094 179.296875 226.714844 179.511719 228.882812 179.355469 C 229.429688 179.3125 230.132812 178.980469 230.335938 179.984375 C 231.09375 183.6875 233.808594 185.167969 237.167969 185.914062 C 239.121094 186.359375 239.121094 186.386719 238.101562 188.121094 C 237.355469 189.398438 236.679688 190.707031 236.421875 192.171875 C 235.917969 194.984375 237.195312 197.394531 239.722656 198.511719 C 242.953125 199.949219 243.167969 204.125 240.125 206.347656 C 238.777344 207.339844 237.226562 207.554688 235.601562 207.425781 C 234.886719 207.367188 234.453125 206.964844 234.253906 206.320312 C 233.835938 205.015625 233.019531 204.886719 231.753906 205.113281 C 227.90625 205.847656 224.046875 206.304688 220.140625 205.375 C 214.140625 203.953125 208.253906 194.550781 214.183594 188.453125 C 215.589844 187.03125 216.320312 185.195312 217.054688 183.328125 Z M 217.054688 183.328125 " fill-opacity="1" fill-rule="nonzero"/><path fill="#fed6c2" d="M 249.226562 213.222656 C 252.628906 217.945312 255.960938 222.738281 258.617188 227.933594 C 261.589844 233.789062 260.742188 238.179688 255.757812 242.457031 C 250.964844 246.589844 245.507812 249.460938 239.179688 250.4375 C 238.171875 250.59375 237.152344 250.578125 236.132812 250.609375 C 235.6875 250.621094 235.101562 250.652344 235 250.121094 C 234.871094 249.445312 235.503906 249.332031 235.992188 249.214844 C 237.3125 248.914062 238.648438 248.65625 239.96875 248.355469 C 243.929688 247.464844 245.179688 244.980469 243.554688 241.207031 C 243.355469 240.75 243.113281 240.304688 242.867188 239.832031 C 243.253906 239.429688 244.261719 239.757812 244.21875 238.855469 C 244.1875 238.023438 243.382812 238.007812 242.824219 237.851562 C 240.527344 237.175781 238.316406 236.34375 236.378906 234.90625 C 235.832031 234.507812 235.34375 234.03125 234.914062 233.515625 C 234.484375 233 234.46875 232.367188 234.84375 231.777344 C 235.214844 231.207031 235.730469 231.25 236.335938 231.421875 C 238.515625 232.007812 240.714844 232.527344 242.894531 233.070312 C 243.113281 233.128906 243.339844 233.214844 243.554688 233.214844 C 244.359375 233.214844 245.550781 233.757812 245.765625 232.683594 C 246.011719 231.492188 244.691406 231.707031 243.945312 231.507812 C 241.660156 230.890625 239.351562 230.316406 237.066406 229.683594 C 236.234375 229.453125 235.316406 229.039062 235.445312 228.019531 C 235.589844 226.972656 236.636719 226.898438 237.46875 226.871094 C 241.230469 226.699219 244.890625 227.34375 248.507812 228.378906 C 249.082031 228.550781 250.046875 229.238281 250.332031 228.0625 C 250.589844 227.027344 249.542969 227.042969 248.910156 226.769531 C 247.5625 226.152344 245.59375 226.527344 245.191406 224.417969 C 245.882812 221.53125 246.441406 218.621094 247.332031 215.792969 C 247.675781 214.773438 247.949219 213.597656 249.226562 213.222656 Z M 249.226562 213.222656 " fill-opacity="1" fill-rule="nonzero"/><path fill="#fdfdfd" d="M 202.898438 160.222656 C 209.617188 160.710938 215.085938 163.4375 219.566406 168.203125 C 222.335938 171.144531 222.421875 171.273438 219.453125 173.800781 C 218.230469 174.847656 218.230469 176.238281 217.585938 177.429688 C 216.839844 178.808594 216.292969 180.316406 215.804688 181.808594 C 215.015625 184.261719 214.023438 186.558594 212.171875 188.425781 C 211.324219 189.269531 210.9375 190.433594 210.464844 191.421875 C 210.394531 191.507812 209.429688 194.824219 210.464844 197.996094 C 211.683594 201.714844 214.929688 205.359375 214.828125 205.34375 C 212.503906 205.199219 203.488281 207.496094 199.121094 204.140625 C 197.515625 202.316406 195.964844 200.4375 194.414062 198.554688 C 194.167969 198.253906 193.898438 197.953125 194.011719 197.496094 C 194.542969 195.425781 194.242188 193.316406 194.167969 191.238281 C 194.140625 190.460938 194.300781 190.003906 195.015625 189.617188 C 205.355469 184.046875 207.636719 171.90625 203.558594 161.890625 C 203.359375 161.386719 203.15625 160.871094 202.898438 160.222656 Z M 202.898438 160.222656 " fill-opacity="1" fill-rule="nonzero"/><path fill="#fed6c1" d="M 195.90625 267.328125 C 195.835938 271 196.195312 274.460938 195.546875 277.875 C 195.101562 280.230469 193.609375 281.949219 191.816406 282.210938 C 189.488281 282.554688 187.4375 281.160156 186.746094 278.691406 C 186.128906 276.511719 186.085938 274.230469 185.828125 271.992188 C 185.757812 271.386719 186.015625 271.058594 186.574219 270.859375 C 189.632812 269.710938 192.675781 268.546875 195.90625 267.328125 Z M 195.90625 267.328125 " fill-opacity="1" fill-rule="nonzero"/><path fill="#fcfcfb" d="M 207.507812 262.375 C 211.382812 260.941406 215.476562 260.46875 219.453125 259.460938 C 224.546875 258.183594 229.113281 256.003906 232.601562 251.914062 C 232.847656 251.625 233.046875 250.953125 233.636719 251.410156 C 235.617188 253.003906 237.828125 252.285156 239.996094 252.070312 C 240.554688 252.015625 241.117188 251.957031 241.820312 251.871094 C 241.160156 253.320312 240.109375 254.222656 238.960938 255.042969 C 233.636719 258.816406 227.59375 260.710938 221.246094 261.789062 C 216.695312 262.578125 212.117188 262.648438 207.507812 262.375 Z M 207.507812 262.375 " fill-opacity="1" fill-rule="nonzero"/><path fill="#fed5c0" d="M 187.078125 194.667969 C 184.292969 195.730469 182.226562 197.464844 181.148438 200.207031 C 180.859375 200.9375 180.503906 201.195312 179.769531 200.78125 C 177.761719 199.632812 175.792969 198.441406 173.496094 197.9375 C 172.90625 197.808594 172.492188 197.320312 172.691406 196.660156 C 172.90625 195.929688 173.511719 196.304688 173.984375 196.316406 C 174.488281 196.332031 175.160156 196.992188 175.421875 196.175781 C 175.648438 195.441406 174.804688 195.382812 174.34375 195.125 C 173.710938 194.765625 173.035156 194.453125 172.460938 194.019531 C 172.019531 193.691406 171.917969 193.117188 172.261719 192.65625 C 172.578125 192.226562 172.949219 192.628906 173.308594 192.742188 C 174.183594 193.03125 174.960938 193.777344 176.09375 193.390625 C 175.75 192.386719 174.6875 192.328125 174.054688 191.753906 C 173.625 191.367188 172.820312 191.179688 173.453125 190.347656 C 173.925781 189.714844 174.414062 189.789062 175.046875 190.1875 C 175.894531 190.71875 176.699219 192.257812 177.644531 191.351562 C 178.21875 190.804688 176.683594 189.988281 176.09375 189.300781 C 175.792969 188.957031 175.664062 188.597656 176.066406 188.28125 C 176.46875 187.980469 176.925781 187.664062 177.445312 188.023438 C 177.761719 188.238281 178.003906 188.566406 178.261719 188.855469 C 179.09375 189.757812 179.800781 191.78125 180.816406 188.898438 C 181.164062 187.9375 183.101562 188.152344 183.429688 189.285156 C 183.960938 191.09375 185.65625 191.925781 186.375 193.503906 C 186.5625 193.878906 186.820312 194.238281 187.078125 194.667969 Z M 187.078125 194.667969 " fill-opacity="1" fill-rule="nonzero"/><path fill="#fed6c1" d="M 208.382812 265.21875 C 208.613281 267.628906 208.957031 270.039062 209.058594 272.449219 C 209.171875 275.148438 207.664062 277.34375 205.511719 278.03125 C 203.199219 278.765625 200.976562 277.71875 199.28125 275.390625 C 197.929688 273.511719 197.671875 271.488281 197.917969 269.292969 C 201.046875 267.542969 204.449219 266.421875 207.765625 265.089844 C 207.980469 265.003906 208.195312 265.058594 208.382812 265.21875 Z M 208.382812 265.21875 " fill-opacity="1" fill-rule="nonzero"/><path fill="#fdbfa2" d="M 249.226562 213.222656 C 247.144531 215.847656 247.074219 219.148438 246.242188 222.191406 C 246.027344 223.011719 245.898438 223.828125 245.207031 224.402344 C 244.488281 223.785156 243.886719 223.484375 244.042969 225.175781 C 243.742188 222.351562 243.542969 219.839844 242.953125 217.371094 C 242.710938 216.378906 242.882812 215.648438 243.644531 214.960938 C 245.050781 213.667969 246.097656 212.046875 247.347656 210.4375 C 248.035156 211.472656 248.625 212.347656 249.226562 213.222656 Z M 249.226562 213.222656 " fill-opacity="1" fill-rule="nonzero"/><path fill="#fb9470" d="M 185.355469 145.886719 C 181.4375 145.070312 178.464844 142.6875 175.808594 139.875 C 173.652344 137.605469 172.0625 134.953125 170.78125 132.109375 C 170.652344 131.824219 170.410156 131.507812 170.8125 131.21875 C 173.726562 134.578125 176.683594 137.894531 180.359375 140.449219 C 181.609375 141.308594 182.84375 142.242188 184.222656 142.84375 C 185.8125 143.535156 186.015625 144.496094 185.355469 145.886719 Z M 185.355469 145.886719 " fill-opacity="1" fill-rule="nonzero"/><path fill="#fbfbfa" d="M 238.289062 238.292969 C 240.484375 239.472656 242.019531 240.890625 242.308594 243.246094 C 242.480469 244.679688 242.050781 245.828125 240.484375 246.230469 C 238.589844 246.703125 236.679688 247.164062 234.484375 247.695312 C 235.847656 244.464844 238.042969 241.855469 238.289062 238.292969 Z M 238.289062 238.292969 " fill-opacity="1" fill-rule="nonzero"/><path fill="#f7f6f8" d="M 124.425781 128.035156 C 118.007812 134.578125 114.980469 142.484375 114.878906 151.671875 C 112.59375 143.460938 116.34375 131.792969 124.425781 128.035156 Z M 124.425781 128.035156 " fill-opacity="1" fill-rule="nonzero"/><path fill="#fdbea4" d="M 208.382812 265.21875 C 205.28125 266.539062 202.195312 267.871094 199.09375 269.164062 C 198.75 269.308594 198.320312 269.25 197.929688 269.292969 C 197.886719 268.617188 197.859375 267.957031 197.773438 267.285156 C 197.714844 266.78125 197.800781 266.421875 198.332031 266.222656 C 201.105469 265.132812 203.730469 263.378906 206.945312 264.269531 C 207.492188 264.429688 208.410156 264.125 208.382812 265.21875 Z M 208.382812 265.21875 " fill-opacity="1" fill-rule="nonzero"/><path fill="#f7f6f8" d="M 220.125 141.410156 C 221.21875 149.402344 215.289062 156.75 209.429688 154.570312 C 216.148438 152.648438 219.710938 148.3125 220.125 141.410156 Z M 220.125 141.410156 " fill-opacity="1" fill-rule="nonzero"/><path fill="#f5eff0" d="M 242.394531 213.726562 C 242.09375 212.863281 241.921875 212.320312 241.71875 211.800781 C 240.785156 209.21875 240.785156 209.203125 243.457031 208.847656 C 244.402344 208.71875 245.351562 208.601562 246.628906 208.445312 C 245.179688 210.265625 243.871094 211.886719 242.394531 213.726562 Z M 242.394531 213.726562 " fill-opacity="1" fill-rule="nonzero"/><path fill="#f0ebf0" d="M 167.238281 76.644531 C 164.28125 79.511719 161.9375 82.855469 159.972656 86.472656 C 160.691406 81.980469 163.203125 78.765625 167.238281 76.644531 Z M 167.238281 76.644531 " fill-opacity="1" fill-rule="nonzero"/><path fill="#f0ecf1" d="M 183.632812 82.441406 C 179.800781 83.863281 176.109375 85.570312 172.59375 87.691406 C 175.550781 84.390625 179.3125 82.8125 183.632812 82.441406 Z M 183.632812 82.441406 " fill-opacity="1" fill-rule="nonzero"/><path fill="#e59b88" d="M 234.066406 208.746094 C 231.882812 208.902344 229.945312 208 227.835938 207.683594 C 231.496094 206.464844 232.027344 206.550781 234.066406 208.746094 Z M 234.066406 208.746094 " fill-opacity="1" fill-rule="nonzero"/><path fill="#e2dce0" d="M 230.578125 89.328125 C 232.15625 91.511719 232.257812 93.820312 231.667969 96.246094 C 231.296875 93.9375 230.9375 91.640625 230.578125 89.328125 Z M 230.578125 89.328125 " fill-opacity="1" fill-rule="nonzero"/><path fill="#e1d8de" d="M 253.160156 192.515625 C 253.863281 191.308594 254.453125 190.089844 254.96875 188.726562 C 255.660156 190.320312 255.140625 191.394531 253.160156 192.515625 Z M 253.160156 192.515625 " fill-opacity="1" fill-rule="nonzero"/><path fill="#564653" d="M 275.875 166.953125 C 277.539062 168.332031 279.578125 167.3125 281.714844 167.011719 C 284.285156 166.652344 286.09375 169.066406 285.390625 171.5625 C 284.53125 174.589844 282.722656 177 280.136719 178.808594 C 279.03125 179.582031 277.910156 179.582031 276.835938 178.792969 C 274.410156 177.015625 272.570312 174.761719 271.695312 171.835938 C 270.90625 169.164062 272.65625 166.953125 275.875 166.953125 Z M 275.875 166.953125 " fill-opacity="1" fill-rule="nonzero"/><path fill="#514150" d="M 268.996094 228.851562 C 268.953125 225.835938 271.941406 224.074219 274.78125 225.523438 C 275.628906 225.953125 276.1875 225.996094 277.023438 225.523438 C 278.5 224.691406 280.09375 224.734375 281.472656 225.824219 C 282.878906 226.941406 283.210938 228.476562 282.59375 230.113281 C 281.542969 232.871094 279.921875 235.222656 277.425781 236.875 C 276.691406 237.363281 275.902344 237.5625 275.011719 237.234375 C 272.527344 236.300781 269.039062 231.449219 268.996094 228.851562 Z M 268.996094 228.851562 " fill-opacity="1" fill-rule="nonzero"/><path fill="#fcf9ed" d="M 258.445312 137.40625 C 258.316406 137.378906 258.070312 137.363281 257.898438 137.234375 C 256.246094 136.085938 254.582031 134.953125 252.960938 133.761719 C 252.5 133.429688 252.085938 132.957031 252.542969 132.339844 C 252.972656 131.75 253.476562 132.152344 253.878906 132.410156 C 255.644531 133.503906 257.4375 134.535156 258.933594 136 C 259.207031 136.273438 259.535156 136.542969 259.390625 137.003906 C 259.25 137.433594 258.875 137.378906 258.445312 137.40625 Z M 258.445312 137.40625 " fill-opacity="1" fill-rule="nonzero"/><path fill="#fcf9ee" d="M 276.707031 203.695312 C 276.691406 204.296875 274.609375 206.636719 274.0625 206.679688 C 273.445312 206.722656 273.117188 206.40625 273.132812 205.789062 C 273.144531 205.257812 275.441406 203.019531 275.929688 203.046875 C 276.375 203.0625 276.675781 203.277344 276.707031 203.695312 Z M 276.707031 203.695312 " fill-opacity="1" fill-rule="nonzero"/><path fill="#554352" d="M 85.675781 196.1875 C 85.664062 193.230469 88.578125 191.539062 91.347656 192.972656 C 92.167969 193.390625 92.742188 193.621094 93.644531 193.089844 C 95.339844 192.097656 96.933594 192.300781 98.195312 193.433594 C 99.558594 194.652344 99.773438 196.246094 99.199219 197.796875 C 98.195312 200.492188 96.53125 202.761719 94.074219 204.367188 C 93.402344 204.8125 92.742188 205.101562 91.863281 204.785156 C 89.222656 203.851562 85.691406 198.988281 85.675781 196.1875 Z M 85.675781 196.1875 " fill-opacity="1" fill-rule="nonzero"/><path fill="#fcf9ef" d="M 89.453125 225.277344 C 89.453125 225.679688 89.4375 226.324219 88.707031 226.398438 C 87.945312 226.484375 87.816406 225.867188 87.746094 225.277344 C 87.527344 223.554688 87.300781 221.832031 87.113281 220.113281 C 87.054688 219.625 87.027344 219.019531 87.789062 218.992188 C 88.40625 218.976562 88.707031 219.335938 88.777344 219.925781 C 88.992188 221.660156 89.207031 223.382812 89.453125 225.277344 Z M 89.453125 225.277344 " fill-opacity="1" fill-rule="nonzero"/><path fill="#fcf4ec" d="M 249.3125 276.8125 C 249.917969 275.363281 250.546875 273.800781 251.207031 272.234375 C 251.382812 271.832031 251.695312 271.605469 252.15625 271.804688 C 252.601562 271.992188 252.703125 272.394531 252.574219 272.796875 C 252.027344 274.386719 251.46875 275.980469 250.863281 277.558594 C 250.675781 278.03125 250.246094 278.234375 249.757812 278.074219 C 249.15625 277.875 249.3125 277.371094 249.3125 276.8125 Z M 249.3125 276.8125 " fill-opacity="1" fill-rule="nonzero"/><path fill="#fdf5eb" d="M 205.367188 316.550781 C 204.964844 316.566406 204.535156 316.582031 204.40625 316.078125 C 204.292969 315.617188 204.621094 315.316406 204.980469 315.144531 C 206 314.671875 207.035156 314.242188 208.082031 313.824219 C 210.394531 312.921875 212.746094 312.144531 215.144531 311.515625 C 215.660156 311.386719 216.234375 311.398438 216.4375 311.988281 C 216.609375 312.503906 216.179688 312.835938 215.746094 312.992188 C 212.402344 314.167969 209.042969 315.332031 205.699219 316.496094 C 205.597656 316.539062 205.484375 316.539062 205.367188 316.550781 Z M 205.367188 316.550781 " fill-opacity="1" fill-rule="nonzero"/><path fill="#484257" d="M 160.949219 230.789062 C 152.148438 230.773438 145.730469 227.316406 140.460938 221.433594 C 139.972656 220.902344 139.328125 220.296875 140.203125 219.582031 C 141.007812 218.921875 141.4375 219.695312 141.867188 220.15625 C 145.660156 224.316406 150.125 227.386719 155.738281 228.449219 C 162.816406 229.785156 169.40625 228.003906 175.777344 225.035156 C 177 224.460938 178.164062 223.742188 179.367188 223.140625 C 179.886719 222.882812 180.472656 222.335938 180.976562 223.167969 C 181.492188 224.03125 180.804688 224.402344 180.230469 224.761719 C 177.085938 226.699219 173.769531 228.207031 170.238281 229.269531 C 166.933594 230.257812 163.605469 230.71875 160.949219 230.789062 Z M 160.949219 230.789062 " fill-opacity="1" fill-rule="nonzero"/><path fill="#4c3f5c" d="M 191.902344 129.855469 C 193.566406 133.503906 196.050781 134.835938 199.855469 134.25 C 200.429688 134.164062 201.132812 133.703125 201.375 134.664062 C 201.605469 135.570312 200.832031 135.640625 200.257812 135.796875 C 194.257812 137.390625 190.09375 132.714844 189.589844 128.019531 C 189.488281 127.058594 190.136719 126.46875 191.125 127.1875 C 194.5 129.671875 198.261719 131.035156 202.4375 131.25 C 202.941406 131.277344 203.359375 131.378906 203.328125 131.996094 C 203.300781 132.683594 202.742188 132.8125 202.238281 132.84375 C 200.414062 132.941406 198.648438 132.539062 196.898438 132.066406 C 195.175781 131.609375 193.667969 130.632812 191.902344 129.855469 Z M 191.902344 129.855469 " fill-opacity="1" fill-rule="nonzero"/><path fill="#fdb092" d="M 209.847656 117.328125 C 210.679688 119.625 210.996094 122.0625 211.097656 124.433594 C 211.253906 128.164062 208.253906 130.214844 204.363281 128.664062 C 203.902344 128.480469 203.472656 128.207031 203.027344 127.976562 C 203.445312 127.359375 204.105469 127.476562 204.691406 127.386719 C 207.234375 126.988281 208.296875 125.539062 207.792969 122.996094 C 207.550781 121.734375 207.25 120.472656 207.078125 119.195312 C 206.976562 118.433594 206.773438 117.628906 207.476562 117 C 207.566406 116.796875 207.679688 116.609375 207.738281 116.410156 C 207.851562 115.992188 207.550781 115.390625 208.023438 115.191406 C 208.671875 114.917969 208.671875 115.820312 209.128906 115.980469 C 209.632812 116.296875 210.003906 116.683594 209.847656 117.328125 Z M 209.847656 117.328125 " fill-opacity="1" fill-rule="nonzero"/><path fill="#544157" d="M 207.507812 116.984375 C 207.347656 118.632812 207.78125 120.226562 208.109375 121.820312 C 209.027344 126.398438 207.765625 127.949219 203.054688 127.960938 C 202.265625 127.675781 201.449219 127.433594 200.6875 127.074219 C 200.171875 126.828125 199.738281 126.371094 200.140625 125.710938 C 200.472656 125.148438 200.933594 125.207031 201.464844 125.4375 C 202.4375 125.867188 203.402344 126.339844 204.535156 126.15625 C 206.15625 125.882812 206.816406 125.105469 206.546875 123.472656 C 206.015625 120.300781 205.367188 117.15625 205.640625 113.914062 C 205.667969 113.523438 205.710938 113.125 205.785156 112.734375 C 205.898438 112.175781 206.230469 111.832031 206.859375 111.902344 C 207.476562 111.988281 207.464844 112.476562 207.464844 112.9375 C 207.476562 114.285156 207.492188 115.636719 207.507812 116.984375 Z M 207.507812 116.984375 " fill-opacity="1" fill-rule="nonzero"/><path fill="#4f4153" d="M 195.390625 114.574219 C 191.816406 114.386719 189.1875 113.050781 187.191406 110.484375 C 186.820312 110.007812 186.300781 109.433594 186.949219 108.859375 C 187.609375 108.257812 188.113281 108.847656 188.5 109.304688 C 190.882812 112.132812 193.796875 113.425781 197.515625 112.578125 C 198.046875 112.464844 198.722656 112.292969 198.894531 113.09375 C 199.066406 113.871094 198.433594 114.070312 197.886719 114.183594 C 196.96875 114.386719 196.007812 114.488281 195.390625 114.574219 Z M 195.390625 114.574219 " fill-opacity="1" fill-rule="nonzero"/><path fill="#513f5b" d="M 209.847656 117.328125 C 209.617188 116.882812 209.386719 116.425781 209.15625 115.980469 C 209.417969 114.988281 210.046875 115.246094 210.578125 115.621094 C 212.789062 117.226562 215.171875 117.703125 217.785156 116.871094 C 218.316406 116.695312 218.648438 116.769531 218.804688 117.355469 C 218.964844 118.003906 218.632812 118.289062 218.089844 118.476562 C 215.921875 119.238281 213.765625 119.195312 211.671875 118.21875 C 211.054688 117.929688 210.449219 117.628906 209.847656 117.328125 Z M 209.847656 117.328125 " fill-opacity="1" fill-rule="nonzero"/><path fill="#513e4e" d="M 167.695312 100.96875 C 168.988281 100.910156 169.835938 101.585938 170.382812 102.675781 C 170.554688 103.019531 170.652344 103.523438 170.238281 103.738281 C 169.863281 103.9375 169.460938 103.78125 169.246094 103.363281 C 168.570312 102.128906 167.667969 102.074219 166.605469 102.863281 C 166.160156 103.191406 165.585938 103.378906 165.285156 102.832031 C 165.011719 102.347656 165.398438 101.871094 165.816406 101.527344 C 166.347656 101.070312 167.007812 100.953125 167.695312 100.96875 Z M 167.695312 100.96875 " fill-opacity="1" fill-rule="nonzero"/><path fill="#4c4457" d="M 226.515625 192.214844 C 225.566406 190.074219 225.066406 187.992188 222.480469 188.109375 C 222.996094 186.746094 223.773438 186.945312 224.605469 187.332031 C 226.226562 188.09375 227.046875 189.902344 226.515625 192.214844 Z M 226.515625 192.214844 " fill-opacity="1" fill-rule="nonzero"/><path fill="#483f4c" d="M 239.925781 203.980469 C 239.363281 203.191406 239.363281 201.941406 238.03125 201.898438 C 237.742188 201.886719 237.757812 201.457031 237.941406 201.210938 C 238.1875 200.882812 238.53125 200.707031 238.960938 200.765625 C 240.253906 200.925781 240.769531 202.515625 239.925781 203.980469 Z M 239.925781 203.980469 " fill-opacity="1" fill-rule="nonzero"/><path fill="#4c4457" d="M 223.429688 193.605469 C 223.386719 194.0625 223.140625 194.351562 222.695312 194.335938 C 222.351562 194.324219 222.078125 194.136719 222.078125 193.71875 C 222.078125 193.273438 222.28125 192.929688 222.710938 192.886719 C 223.15625 192.859375 223.386719 193.175781 223.429688 193.605469 Z M 223.429688 193.605469 " fill-opacity="1" fill-rule="nonzero"/><path fill="#4c4457" d="M 215.964844 187.246094 C 215.921875 187.707031 215.675781 187.992188 215.230469 187.980469 C 214.886719 187.964844 214.613281 187.777344 214.613281 187.363281 C 214.613281 186.917969 214.816406 186.574219 215.246094 186.53125 C 215.691406 186.5 215.921875 186.816406 215.964844 187.246094 Z M 215.964844 187.246094 " fill-opacity="1" fill-rule="nonzero"/><path fill="#fddea3" d="M 283.839844 170.828125 C 283.066406 173.414062 281.488281 175.636719 279.191406 177.316406 C 278.398438 177.890625 277.652344 177.300781 277.066406 176.785156 C 275.65625 175.535156 274.523438 174.03125 273.71875 172.335938 C 273.1875 171.230469 272.902344 169.996094 274.121094 169.121094 C 275.355469 168.261719 276.621094 168.632812 277.453125 169.679688 C 278.355469 170.816406 278.875 170.671875 279.679688 169.625 C 280.382812 168.707031 281.445312 168.375 282.578125 168.777344 C 283.367188 169.078125 283.796875 169.753906 283.839844 170.828125 Z M 283.839844 170.828125 " fill-opacity="1" fill-rule="nonzero"/><path fill="#fddfa3" d="M 281.097656 228.851562 C 281.097656 230.632812 277.910156 234.992188 276.273438 235.523438 C 275.671875 235.726562 275.269531 235.425781 274.898438 235.109375 C 273.21875 233.714844 271.898438 232.050781 271.050781 230.027344 C 270.5625 228.878906 270.519531 227.746094 271.710938 227.042969 C 272.800781 226.398438 274.0625 226.554688 274.753906 227.574219 C 275.730469 229.007812 276.332031 228.59375 277.179688 227.53125 C 277.882812 226.640625 278.902344 226.496094 279.949219 226.914062 C 280.785156 227.257812 281.027344 228.035156 281.097656 228.851562 Z M 281.097656 228.851562 " fill-opacity="1" fill-rule="nonzero"/><path fill="#fedfa0" d="M 87.398438 196.273438 C 87.300781 195.414062 87.671875 194.679688 88.546875 194.324219 C 89.609375 193.890625 90.671875 194.238281 91.320312 195.039062 C 92.265625 196.21875 92.796875 196.304688 93.757812 195.027344 C 94.464844 194.105469 95.683594 193.792969 96.804688 194.566406 C 97.878906 195.3125 97.792969 196.417969 97.390625 197.464844 C 96.617188 199.445312 95.296875 201.066406 93.757812 202.503906 C 93.316406 202.917969 92.753906 203.234375 92.066406 202.960938 C 90.558594 202.375 87.441406 198.011719 87.398438 196.273438 Z M 87.398438 196.273438 " fill-opacity="1" fill-rule="nonzero"/></svg>