<svg xmlns="http://www.w3.org/2000/svg" xmlns:xlink="http://www.w3.org/1999/xlink" width="500" zoomAndPan="magnify" viewBox="0 0 375 374.999991" height="500" preserveAspectRatio="xMidYMid meet" version="1.0"><defs><clipPath id="d89a940041"><path d="M 82 129 L 301 129 L 301 346.984375 L 82 346.984375 Z M 82 129 " clip-rule="nonzero"/></clipPath><clipPath id="f043f218c9"><path d="M 240 156.121094 L 300.976562 156.121094 L 300.976562 308.6875 L 240 308.6875 Z M 240 156.121094 " clip-rule="nonzero"/></clipPath><clipPath id="c2d0ba8e85"><path d="M 111 310 L 118 310 L 118 346.984375 L 111 346.984375 Z M 111 310 " clip-rule="nonzero"/></clipPath><clipPath id="2359e71a26"><path d="M 267 307 L 274 307 L 274 346.984375 L 267 346.984375 Z M 267 307 " clip-rule="nonzero"/></clipPath><clipPath id="2637fa6a56"><path d="M 200 312 L 202 312 L 202 346.984375 L 200 346.984375 Z M 200 312 " clip-rule="nonzero"/></clipPath></defs><path fill="#ffe3cc" d="M 187.300781 160.753906 C 185.71875 160.429688 185.515625 158.152344 184.574219 156.832031 C 183.8125 155.769531 182.597656 154.515625 181.675781 153.59375 C 177.332031 149.253906 172.105469 146.066406 168.714844 140.980469 C 166.820312 138.140625 166.007812 134.035156 166.007812 134.035156 C 166.007812 134.035156 166.0625 128.300781 165.722656 123.519531 C 165.503906 120.421875 165.105469 116.964844 164.734375 115.109375 C 164.292969 112.886719 159.265625 112.539062 157.703125 111.234375 C 154.316406 108.417969 153.5 107.550781 152.667969 103.390625 C 152.351562 101.816406 152.523438 99.851562 152.855469 98.199219 C 153.226562 96.335938 156.175781 94.59375 156.175781 94.59375 C 156.175781 94.59375 159.390625 92.515625 160.1875 91.71875 C 162.195312 89.714844 163.554688 86.242188 164.960938 83.710938 C 169.222656 76.046875 172.707031 68.046875 178.777344 61.550781 C 182.808594 57.230469 187.167969 53.648438 193.441406 54.90625 C 194.890625 55.195312 196.132812 56.382812 197.363281 57.121094 C 200.398438 58.941406 204.0625 61.082031 205.890625 64.277344 C 207.457031 67.011719 208.566406 70.703125 210.835938 72.972656 C 214.527344 76.660156 220.128906 78.765625 221.578125 84.5625 C 222.113281 86.695312 222.359375 89.183594 221.921875 91.378906 C 221.65625 92.6875 220.746094 95.484375 220.746094 95.484375 C 220.746094 95.484375 223.054688 95.917969 223.671875 96.660156 C 225.742188 99.148438 224.996094 103.085938 223.925781 106.03125 C 223.042969 108.464844 217.910156 111.839844 217.910156 111.839844 C 217.910156 111.839844 217.148438 115.257812 216.726562 116.414062 C 216.074219 118.21875 214.339844 122.34375 213.6875 123.578125 C 213.03125 124.808594 209.160156 129.382812 209.160156 129.382812 L 209.335938 136.546875 C 209.335938 136.546875 211.066406 136.863281 210.492188 138.765625 C 209.714844 141.363281 207.945312 143.742188 206.402344 145.925781 C 203.886719 149.46875 200.640625 154.597656 196.511719 156.660156 C 195.347656 157.242188 194.054688 157.554688 192.929688 158.195312 C 190.742188 159.445312 189.9375 161.289062 187.300781 160.753906 " fill-opacity="1" fill-rule="evenodd"/><g clip-path="url(#d89a940041)"><path fill="#ffffff" d="M 90.316406 301.691406 C 94.011719 304.9375 99.046875 306.535156 103.445312 307.738281 C 107.847656 308.941406 116.503906 310.699219 116.503906 310.699219 C 116.503906 310.699219 114.242188 323.539062 113.050781 333.996094 C 112.46875 339.125 112.140625 343.671875 111.960938 346.984375 L 272.867188 346.984375 C 272.6875 342.691406 272.296875 336.113281 271.449219 328.863281 C 270.144531 317.714844 268.222656 307.617188 268.222656 307.617188 C 268.222656 307.617188 272.023438 308.1875 276.867188 306.546875 C 280.609375 305.277344 285.769531 302.140625 289.976562 297.125 C 296.207031 289.695312 301.417969 273.261719 300.234375 258.320312 C 300.042969 255.894531 299.175781 250.480469 297.859375 243.777344 C 296.519531 236.96875 294.71875 228.8125 292.933594 218.761719 C 291.242188 209.199219 290.078125 198.59375 288.238281 189.570312 C 286.410156 180.609375 283.902344 173.199219 281.585938 170.800781 C 280.050781 169.207031 277.285156 166.480469 275.164062 165.007812 C 265.722656 158.46875 252.480469 155.128906 241.203125 150.558594 C 233.269531 147.339844 225.421875 142.847656 225.421875 142.847656 L 209.839844 129.398438 L 209.230469 129.726562 C 209.230469 129.726562 210.234375 142.378906 207.335938 153.226562 C 202.4375 171.550781 193.441406 224.101562 193.441406 224.101562 L 166.375 134.292969 L 165.753906 130.039062 L 152.21875 142.9375 C 152.21875 142.9375 148.34375 144.839844 142.636719 146.773438 C 139.820312 147.730469 135.765625 148.789062 133.066406 149.445312 C 132.839844 149.5 132.613281 149.554688 132.386719 149.609375 C 122.792969 151.914062 112.785156 153.828125 104.683594 159.671875 C 100.734375 162.519531 96.542969 166.816406 94.378906 171.589844 C 91.96875 176.890625 89.648438 184.324219 88.359375 192.675781 C 86.152344 206.929688 84.574219 226.167969 83.722656 242.539062 C 82.800781 260.390625 82.472656 276.015625 83.097656 283.695312 C 83.828125 292.777344 86.332031 298.195312 90.316406 301.691406 " fill-opacity="1" fill-rule="evenodd"/></g><path fill="#ffe3cc" d="M 247.65625 223.289062 C 247.65625 223.289062 247.496094 217.582031 247.496094 217.171875 C 247.496094 214.070312 246.96875 207.589844 246.359375 204.535156 C 245.746094 201.472656 242.132812 195.96875 241.082031 193.355469 C 240.332031 191.480469 238.769531 187.375 238.265625 185.363281 C 237.535156 182.453125 235.792969 179.054688 236.679688 175.945312 C 237.324219 173.695312 240.402344 171.480469 241.550781 169.476562 C 242.410156 167.972656 244.59375 164.34375 246.222656 163.367188 C 247.582031 162.550781 248.535156 163.019531 248.535156 163.019531 C 248.535156 163.019531 249.25 157.128906 249.460938 153.957031 C 249.671875 150.769531 250.828125 145.183594 251.519531 142.070312 C 252.398438 138.113281 253.085938 133.632812 254.988281 130.101562 C 256.253906 127.753906 258.222656 122.925781 261.011719 125.65625 C 262.542969 127.148438 261.1875 132.070312 260.617188 134.714844 C 259.714844 138.9375 259.113281 146.628906 258.839844 149.476562 C 258.566406 152.316406 258.601562 158.871094 258.601562 158.871094 C 258.601562 158.871094 260.773438 159.429688 261.644531 160.054688 C 263.167969 161.140625 263.769531 161.914062 263.769531 161.914062 C 263.769531 161.914062 265.875 162.132812 266.304688 162.238281 C 267.8125 162.617188 270.152344 163.40625 271.285156 164.238281 C 272.730469 165.292969 273.597656 167.710938 273.597656 167.710938 C 273.597656 167.710938 275.820312 169.023438 276.730469 169.535156 C 278.097656 170.308594 279.667969 171.703125 280.050781 173.984375 C 280.761719 178.261719 279.546875 189.28125 277.84375 193.53125 C 275.53125 199.320312 273.800781 200.097656 272.96875 203.96875 C 271.882812 209.007812 272.785156 214.859375 273.140625 219.832031 C 273.261719 221.511719 274.074219 225.347656 274.074219 225.347656 C 274.074219 225.347656 272.335938 227.21875 269.957031 227.980469 C 266.5625 229.070312 262.046875 229.148438 260.972656 228.933594 C 257.699219 228.277344 252.871094 228.503906 250.230469 225.863281 C 249.285156 224.921875 247.65625 223.289062 247.65625 223.289062 " fill-opacity="1" fill-rule="evenodd"/><path fill="#ffe3cc" d="M 214.324219 297.78125 C 214.324219 297.78125 214.941406 294.988281 215.003906 294.117188 C 215.191406 291.757812 215.070312 289.324219 215.171875 286.957031 C 215.242188 285.246094 214.71875 275.785156 214.71875 275.785156 C 214.71875 275.785156 219.859375 275.183594 220.835938 274.488281 C 225.054688 271.476562 227.921875 267.046875 230.644531 262.695312 C 233.007812 258.917969 235.476562 253.175781 237.085938 250.851562 C 237.757812 249.882812 241.238281 248.132812 241.238281 248.132812 C 241.238281 248.132812 242.246094 258.523438 243.175781 266.695312 C 243.550781 270.019531 244.167969 273.664062 244.28125 275.175781 C 244.558594 278.929688 246.355469 286.65625 246.355469 286.65625 C 246.355469 286.65625 243.59375 290.382812 242.597656 291.199219 C 236.503906 296.179688 228.925781 295.824219 223.152344 296.398438 C 220.886719 296.625 214.324219 297.78125 214.324219 297.78125 " fill-opacity="1" fill-rule="evenodd"/><path fill="#ffffff" d="M 203.125 115.636719 C 203.125 115.636719 197.816406 116.488281 195.328125 116.214844 C 194.105469 116.078125 191.539062 116.183594 190.324219 116.011719 C 188.851562 115.800781 184.1875 115.183594 184.1875 115.183594 C 184.1875 115.183594 186.050781 120.195312 187.605469 121.441406 C 188.40625 122.074219 189.449219 123.195312 190.351562 123.582031 C 191.902344 124.246094 194.675781 124.835938 197.414062 123.550781 C 201.128906 121.816406 203.125 115.636719 203.125 115.636719 " fill-opacity="1" fill-rule="evenodd"/><path fill="#e9a479" d="M 156.191406 94.175781 C 156.191406 94.175781 154.160156 85.367188 153.421875 81.1875 C 152.296875 74.820312 152.011719 71.316406 152.613281 65.164062 C 153.167969 59.4375 154.085938 51.355469 158.359375 46.691406 C 159.523438 45.421875 162.03125 43.175781 165.429688 41.757812 C 169.230469 40.171875 171.738281 41.597656 175.121094 40.308594 C 178.984375 38.835938 181.015625 36.816406 184.160156 35.402344 C 186.609375 34.300781 192.363281 33.480469 195.628906 33.945312 C 199.136719 34.449219 202.238281 35.242188 205.804688 37.140625 C 208.378906 38.515625 211.738281 41.769531 213.757812 43.242188 C 217.480469 45.945312 219.460938 48.261719 221.96875 52.203125 C 222.902344 53.671875 224.128906 57.21875 224.738281 58.804688 C 226.847656 64.285156 226.507812 71.988281 225.917969 77.882812 C 225.34375 83.632812 225.105469 85.925781 223.859375 91.511719 C 223.578125 92.800781 222.71875 96.121094 222.71875 96.121094 L 220.683594 95.800781 C 220.683594 95.800781 220.714844 94.257812 220.714844 93.257812 C 220.714844 90.761719 220.71875 86.65625 219.09375 84.488281 C 218.296875 83.429688 216.679688 82.964844 214.960938 81.980469 C 212.777344 80.726562 212.054688 80.320312 210.261719 78.527344 C 207.867188 76.128906 206.152344 74.351562 204.59375 71.382812 C 202.378906 67.160156 198.859375 61.449219 193.636719 60.871094 C 192.355469 60.726562 187.839844 62.328125 186.523438 62.472656 C 183.496094 62.808594 181.203125 62.953125 179.761719 65.429688 C 178.640625 67.34375 177.539062 73.285156 175.417969 77.445312 C 173.394531 81.414062 171.226562 83.027344 171.226562 83.027344 C 171.226562 83.027344 171.011719 82.277344 169.191406 87.207031 C 167.367188 92.140625 166.253906 95.019531 162.328125 95.671875 C 161.585938 95.800781 156.191406 94.175781 156.191406 94.175781 " fill-opacity="1" fill-rule="evenodd"/><path fill="#b5b3c2" d="M 206.539062 274.769531 C 206.539062 274.769531 207.441406 279.785156 207.378906 282.226562 C 207.347656 283.304688 207.277344 287.242188 207.183594 289.011719 C 207.085938 290.777344 205.765625 299.75 205.445312 301.519531 C 205.125 303.285156 203.804688 307.367188 203.804688 307.367188 C 203.804688 307.367188 206.15625 307.082031 207.441406 307.109375 C 208.726562 307.140625 211.457031 307.34375 212.363281 305.632812 C 213.839844 302.835938 214.695312 296.964844 215.160156 292.453125 C 215.386719 290.261719 215.355469 286.277344 215.449219 283.578125 C 215.523438 281.484375 215.742188 276.984375 214.355469 275.285156 C 213.90625 274.730469 206.539062 274.769531 206.539062 274.769531 " fill-opacity="1" fill-rule="evenodd"/><path fill="#b5b3c2" d="M 246.730469 236.476562 C 246.730469 236.476562 246.96875 232.644531 246.8125 230.183594 C 246.652344 227.722656 246.617188 223.101562 247.023438 222.460938 C 247.332031 221.976562 248.347656 224.203125 250.621094 225.582031 C 252.894531 226.960938 257 228.226562 260.4375 228.621094 C 263.875 229.019531 268.929688 228.066406 270.703125 227.328125 C 272.472656 226.585938 274.679688 224.820312 274.722656 224.84375 C 276.058594 225.539062 276.304688 228.652344 276.574219 229.996094 C 276.929688 231.773438 278.136719 236.558594 278.136719 236.558594 C 278.136719 236.558594 274.328125 241.445312 271.945312 243.222656 C 269.246094 245.230469 265.261719 245.445312 264.085938 245.496094 C 261.105469 245.613281 255.269531 242.921875 253.082031 241.289062 C 250.746094 239.546875 246.730469 236.476562 246.730469 236.476562 " fill-opacity="1" fill-rule="evenodd"/><path fill="#e4e2f1" d="M 166.386719 136.964844 C 167.554688 142.425781 169.039062 147.703125 170.402344 153.144531 L 166.386719 136.964844 " fill-opacity="1" fill-rule="evenodd"/><path fill="#b5b3c2" d="M 187.894531 149.34375 C 187.21875 148.691406 179.742188 145.824219 173.902344 141.691406 C 169.558594 138.621094 165.914062 134.074219 165.734375 134.765625 C 165.265625 136.558594 167.515625 146.386719 170.421875 156.15625 C 173.835938 167.621094 178.089844 179.246094 178.984375 181.164062 C 179.421875 182.09375 183.851562 194.804688 187.648438 206.140625 C 189.066406 210.386719 190.464844 214.40625 191.46875 217.640625 C 192.5625 221.140625 193.222656 223.683594 193.734375 223.554688 C 194.253906 223.421875 196.050781 217.558594 197.976562 210.59375 C 201.628906 197.382812 206.179688 178.804688 206.363281 177.90625 C 213.425781 143.917969 210.09375 136.636719 210.09375 136.636719 C 210.09375 136.636719 207.648438 139.710938 205.160156 141.136719 C 200.910156 143.574219 196.714844 146.105469 193.992188 148.589844 C 189.980469 152.246094 189.828125 155.863281 189.828125 155.863281 C 189.828125 155.863281 189.910156 151.304688 187.894531 149.34375 " fill-opacity="1" fill-rule="evenodd"/><path fill="#dedede" d="M 133.671875 213.453125 L 136.328125 213.519531 C 136.328125 213.519531 136.105469 219.648438 135.800781 225.9375 C 135.53125 231.542969 135.003906 237.460938 136.515625 241.421875 C 138.054688 245.4375 141.230469 246.464844 143.90625 246.917969 C 146.828125 247.414062 149.128906 247.433594 149.128906 247.433594 C 149.128906 247.433594 149.445312 247.839844 149.300781 248.449219 C 149.15625 249.054688 148.550781 249.871094 148.550781 249.871094 C 148.550781 249.871094 146.339844 250.121094 143.136719 249.460938 C 140.140625 248.84375 135.464844 247.65625 133.648438 243.296875 C 131.929688 239.171875 132.277344 233.152344 132.625 227.210938 C 133.042969 220.15625 133.671875 213.453125 133.671875 213.453125 " fill-opacity="1" fill-rule="evenodd"/><path fill="#dedede" d="M 168.769531 212.007812 C 168.769531 212.007812 169.136719 211.167969 169.835938 210.964844 C 170.539062 210.757812 171.574219 211.179688 171.574219 211.179688 C 171.574219 211.179688 172.933594 215.140625 174.542969 221.128906 C 176.039062 226.675781 177.761719 234.429688 177.257812 238.945312 C 176.203125 248.335938 167.289062 249.46875 167.289062 249.46875 C 167.289062 249.46875 166.511719 248.835938 166.339844 248.105469 C 166.164062 247.375 166.523438 246.632812 166.523438 246.632812 C 166.523438 246.632812 173.445312 246.578125 173.957031 238.109375 C 174.472656 229.636719 168.769531 212.007812 168.769531 212.007812 " fill-opacity="1" fill-rule="evenodd"/><path fill="#dedede" d="M 237.628906 195.832031 C 237.628906 195.832031 236.921875 190.578125 237.09375 189.789062 C 237.269531 189.003906 239.472656 188.753906 239.472656 188.753906 C 239.472656 188.753906 240.796875 192.21875 242.476562 195.667969 C 244.152344 199.109375 244.882812 199.40625 245.996094 202.988281 C 247.109375 206.570312 247.011719 210.125 247.011719 210.125 C 247.011719 210.125 244.628906 212.570312 241.9375 213.230469 C 238.984375 213.949219 235.546875 212.691406 233.945312 211.183594 C 231.648438 209.03125 230.417969 205.039062 231.242188 202.304688 C 231.679688 200.859375 232.644531 199.246094 233.636719 198.265625 C 235.5 196.421875 237.628906 195.832031 237.628906 195.832031 " fill-opacity="1" fill-rule="evenodd"/><path fill="#ffe1b4" d="M 149.109375 246.789062 C 149.109375 246.789062 149.339844 247.828125 149.023438 248.859375 C 148.878906 249.320312 147.964844 250.433594 147.964844 250.433594 C 147.964844 250.433594 150.316406 252.414062 151.695312 251.445312 C 153.074219 250.472656 153.855469 247.765625 153.703125 246.550781 C 153.636719 246.042969 152.847656 245.265625 152.449219 245.0625 C 151.023438 244.34375 149.109375 246.789062 149.109375 246.789062 " fill-opacity="1" fill-rule="evenodd"/><path fill="#ffe1b4" d="M 166.703125 246.136719 C 166.703125 246.136719 166.523438 245.867188 164.242188 244.558594 C 163.480469 244.125 162.167969 244.160156 161.839844 245.644531 C 161.453125 247.347656 162.03125 249.820312 163.574219 250.871094 C 163.859375 251.066406 165.101562 251.214844 166.089844 250.730469 C 166.734375 250.414062 167.304688 249.410156 167.304688 249.410156 C 167.304688 249.410156 166.085938 248.609375 166.136719 247.480469 C 166.179688 246.351562 166.703125 246.136719 166.703125 246.136719 " fill-opacity="1" fill-rule="evenodd"/><path fill="#a4a9ae" d="M 162.128906 133.582031 C 162.128906 133.582031 159.398438 138.335938 156.203125 142.96875 C 153.003906 147.601562 150.785156 148.566406 149.742188 151.488281 C 149.15625 153.140625 151.421875 154.03125 151.421875 154.03125 C 151.421875 154.03125 150.140625 157.449219 149.816406 162.445312 C 149.492188 167.441406 150.078125 174.757812 150.078125 174.757812 C 150.078125 174.757812 155.320312 174.859375 158.296875 176.21875 C 161.273438 177.578125 161.976562 180.195312 161.976562 180.195312 C 161.976562 180.195312 170.054688 202.601562 172.125 210.324219 C 172.40625 211.359375 171.496094 210.851562 170.054688 211.136719 C 169.257812 211.292969 168.8125 212.269531 168.171875 211.605469 C 166.648438 210.027344 167.78125 209.46875 166.363281 204.769531 C 165.734375 202.679688 164.53125 199.457031 163.695312 196.761719 C 162.0625 191.503906 159.101562 183.046875 158.09375 181.234375 C 157.085938 179.417969 155 178.585938 153.195312 178.320312 C 148.125 177.566406 141.574219 179.984375 140.367188 182.160156 C 139.605469 183.527344 139.535156 185.082031 139.351562 187.542969 C 139.132812 190.4375 138.65625 194.914062 138.429688 197.789062 C 137.730469 206.738281 137.894531 209.789062 137.4375 213.433594 C 137.371094 213.996094 136.011719 213.296875 134.839844 213.28125 C 133.859375 213.265625 132.929688 213.988281 132.929688 213.054688 C 132.929688 209.9375 133.453125 203.589844 134.472656 193.371094 C 134.882812 189.238281 135.195312 184.324219 135.78125 181.433594 C 136.210938 179.316406 139.328125 177.207031 141.128906 176.457031 C 144 175.261719 146.195312 175.132812 146.195312 175.132812 C 146.195312 175.132812 145.824219 170.832031 145.882812 166.453125 C 145.960938 161.03125 146.816406 154.585938 148.539062 150.40625 C 150.289062 146.15625 152.394531 142.5 154.523438 139.945312 C 158.40625 135.289062 162.128906 133.582031 162.128906 133.582031 " fill-opacity="1" fill-rule="evenodd"/><path fill="#a4a9ae" d="M 228.191406 154.351562 L 229.957031 152.527344 L 230.214844 150.933594 C 230.214844 150.933594 232.777344 155.109375 234.769531 160.542969 C 236.765625 165.972656 238.191406 172.660156 238.191406 172.660156 L 236.070312 176.824219 C 236.070312 176.824219 233.820312 168.453125 231.933594 163.03125 C 230.050781 157.613281 228.191406 154.351562 228.191406 154.351562 " fill-opacity="1" fill-rule="evenodd"/><path fill="#a4a9ae" d="M 237.117188 183.144531 L 239.21875 188.632812 L 237.929688 188.917969 Z M 237.117188 183.144531 " fill-opacity="1" fill-rule="evenodd"/><path fill="#a4a9ae" d="M 216.171875 134.976562 C 216.171875 134.976562 219.402344 135.921875 222.714844 139.625 C 226.027344 143.328125 229.421875 149.785156 229.421875 149.785156 L 222.824219 143.714844 L 216.171875 134.976562 " fill-opacity="1" fill-rule="evenodd"/><path fill="#5b2714" d="M 249.15625 154.128906 C 249.089844 154.128906 249.019531 154.117188 248.949219 154.09375 C 242.476562 151.757812 232.980469 148.109375 225.238281 143.445312 C 224.949219 143.273438 224.859375 142.902344 225.035156 142.617188 C 225.207031 142.332031 225.582031 142.246094 225.859375 142.414062 C 233.507812 147.023438 242.9375 150.644531 249.359375 152.960938 C 249.675781 153.074219 249.835938 153.417969 249.722656 153.734375 C 249.632812 153.976562 249.402344 154.128906 249.15625 154.128906 " fill-opacity="1" fill-rule="nonzero"/><g clip-path="url(#f043f218c9)"><path fill="#5b2714" d="M 271.351562 308.339844 C 261.160156 308.339844 249.746094 299.644531 246.519531 288.949219 C 242.664062 276.199219 239.839844 245.105469 240.070312 227.867188 C 240.074219 227.539062 240.34375 227.273438 240.671875 227.273438 C 240.675781 227.273438 240.675781 227.273438 240.679688 227.273438 C 241.011719 227.277344 241.277344 227.550781 241.273438 227.882812 C 241.042969 245.042969 243.847656 275.949219 247.667969 288.601562 C 250.984375 299.570312 263.261719 308.347656 273.417969 307 C 279.023438 306.257812 294.507812 299.042969 298.742188 274.847656 C 301.054688 261.640625 299.148438 252.644531 296.269531 239.023438 C 295.179688 233.882812 293.945312 228.054688 292.761719 221.125 C 291.953125 216.378906 291.253906 211.722656 290.574219 207.222656 C 288.484375 193.300781 286.679688 181.277344 282.707031 173.816406 C 278.789062 166.449219 270.320312 162.039062 258.804688 157.675781 C 258.492188 157.558594 258.332031 157.214844 258.453125 156.902344 C 258.570312 156.589844 258.921875 156.433594 259.230469 156.550781 C 271 161.007812 279.675781 165.554688 283.769531 173.25 C 287.839844 180.894531 289.660156 193.011719 291.769531 207.042969 C 292.441406 211.535156 293.140625 216.1875 293.949219 220.925781 C 295.128906 227.828125 296.363281 233.644531 297.445312 238.773438 C 300.359375 252.53125 302.28125 261.617188 299.925781 275.058594 C 296.027344 297.332031 282.03125 307.074219 273.574219 308.195312 C 272.84375 308.289062 272.097656 308.339844 271.351562 308.339844 " fill-opacity="1" fill-rule="nonzero"/></g><path fill="#5b2714" d="M 246.910156 236.632812 C 246.898438 236.632812 246.890625 236.632812 246.878906 236.628906 C 246.546875 236.613281 246.289062 236.328125 246.308594 235.996094 C 246.453125 233.105469 246.289062 230.574219 246.148438 228.335938 C 245.925781 224.882812 245.765625 222.382812 246.898438 220.753906 C 247.085938 220.480469 247.460938 220.414062 247.734375 220.605469 C 248.007812 220.792969 248.078125 221.167969 247.886719 221.441406 C 246.996094 222.726562 247.152344 225.167969 247.351562 228.261719 C 247.496094 230.53125 247.660156 233.101562 247.507812 236.058594 C 247.492188 236.382812 247.226562 236.632812 246.910156 236.632812 " fill-opacity="1" fill-rule="nonzero"/><path fill="#5b2714" d="M 247.578125 223.53125 C 247.246094 223.527344 246.976562 223.257812 246.976562 222.925781 C 246.988281 219.558594 246.960938 217.054688 246.878906 215.050781 C 246.390625 203.1875 244.289062 199.945312 242.601562 197.339844 C 242.027344 196.453125 241.484375 195.613281 241.039062 194.539062 C 238.886719 189.359375 235.882812 179.851562 235.785156 178.269531 C 235.585938 175.054688 237.21875 173.339844 239.101562 171.347656 C 239.855469 170.550781 240.640625 169.726562 241.394531 168.71875 C 241.988281 167.933594 242.515625 167.171875 243.003906 166.464844 C 244.804688 163.882812 246.222656 161.84375 248.191406 162.445312 C 248.941406 162.671875 249.550781 163.226562 249.949219 164.042969 C 250.757812 165.695312 250.65625 168.289062 249.6875 170.816406 C 249.203125 172.082031 248.625 173.085938 248.117188 173.976562 C 247.28125 175.433594 246.671875 176.484375 247.003906 177.769531 C 247.164062 178.386719 248 179.222656 249.054688 180.273438 C 251.464844 182.675781 255.105469 186.304688 256.582031 193.003906 C 256.652344 193.328125 256.445312 193.648438 256.121094 193.71875 C 255.792969 193.789062 255.476562 193.585938 255.40625 193.261719 C 254.003906 186.910156 250.511719 183.429688 248.203125 181.125 C 246.96875 179.898438 246.078125 179.007812 245.839844 178.070312 C 245.386719 176.308594 246.164062 174.949219 247.070312 173.375 C 247.558594 172.523438 248.113281 171.5625 248.5625 170.386719 C 249.402344 168.195312 249.519531 165.914062 248.867188 164.570312 C 248.613281 164.054688 248.269531 163.726562 247.839844 163.59375 C 246.761719 163.269531 245.726562 164.660156 243.992188 167.152344 C 243.496094 167.871094 242.957031 168.640625 242.359375 169.4375 C 241.5625 170.503906 240.722656 171.394531 239.976562 172.179688 C 238.148438 174.109375 236.824219 175.503906 236.988281 178.195312 C 237.070312 179.503906 239.992188 188.882812 242.152344 194.078125 C 242.554688 195.050781 243.070312 195.84375 243.613281 196.6875 C 245.382812 199.414062 247.582031 202.8125 248.082031 215 C 248.164062 217.027344 248.195312 219.542969 248.183594 222.929688 C 248.179688 223.261719 247.914062 223.53125 247.578125 223.53125 " fill-opacity="1" fill-rule="nonzero"/><path fill="#5b2714" d="M 292.261719 279.402344 C 292.238281 279.402344 292.214844 279.402344 292.191406 279.402344 C 291.859375 279.363281 291.625 279.0625 291.664062 278.730469 C 292.550781 271.164062 290.171875 265.035156 287.15625 257.28125 C 284.390625 250.160156 280.945312 241.292969 278.972656 228.480469 C 278.925781 228.152344 279.148438 227.847656 279.476562 227.796875 C 279.816406 227.75 280.117188 227.972656 280.164062 228.296875 C 282.113281 240.980469 285.53125 249.777344 288.277344 256.84375 C 291.351562 264.757812 293.78125 271.003906 292.859375 278.875 C 292.824219 279.179688 292.5625 279.402344 292.261719 279.402344 " fill-opacity="1" fill-rule="nonzero"/><path fill="#5b2714" d="M 278.003906 236.617188 C 277.753906 236.617188 277.515625 236.457031 277.433594 236.203125 C 276.617188 233.761719 276.136719 231.433594 275.746094 229.5625 C 275.195312 226.929688 274.761719 224.847656 273.839844 224.386719 C 273.542969 224.238281 273.425781 223.875 273.574219 223.578125 C 273.722656 223.28125 274.085938 223.160156 274.382812 223.3125 C 275.820312 224.035156 276.285156 226.253906 276.921875 229.316406 C 277.328125 231.253906 277.785156 233.449219 278.574219 235.828125 C 278.679688 236.140625 278.511719 236.480469 278.195312 236.585938 C 278.128906 236.605469 278.066406 236.617188 278.003906 236.617188 " fill-opacity="1" fill-rule="nonzero"/><path fill="#5b2714" d="M 274.128906 225.679688 C 273.851562 225.679688 273.605469 225.492188 273.542969 225.210938 C 271.789062 217.574219 271.667969 211.878906 272.03125 205.679688 C 272.1875 202.960938 273.605469 200.472656 274.976562 198.058594 C 275.742188 196.707031 276.539062 195.3125 277.113281 193.882812 C 278.863281 189.5 281.65625 174.257812 277.984375 171.242188 C 275.773438 169.425781 272.417969 167.441406 270.273438 167.824219 C 265.601562 168.648438 263.578125 172.570312 262.214844 176.296875 C 261.484375 178.292969 262.144531 183 263.519531 185.628906 C 264.039062 186.625 264.632812 187.25 265.1875 187.398438 C 265.636719 187.515625 265.988281 187.460938 266.300781 187.234375 C 267.234375 186.5625 267.828125 184.4375 268.058594 180.921875 C 268.253906 177.894531 269.84375 176.773438 271.382812 175.6875 C 271.753906 175.425781 272.136719 175.15625 272.5 174.855469 C 272.757812 174.640625 273.136719 174.675781 273.351562 174.933594 C 273.5625 175.1875 273.527344 175.566406 273.273438 175.78125 C 272.878906 176.105469 272.476562 176.390625 272.078125 176.671875 C 270.652344 177.675781 269.417969 178.546875 269.261719 181.003906 C 268.996094 185.003906 268.277344 187.292969 267.003906 188.214844 C 266.398438 188.652344 265.679688 188.769531 264.886719 188.5625 C 263.972656 188.324219 263.15625 187.527344 262.457031 186.191406 C 260.925781 183.273438 260.246094 178.171875 261.078125 175.886719 C 262.476562 172.074219 264.761719 167.574219 270.0625 166.636719 C 273.363281 166.054688 277.878906 169.597656 278.75 170.3125 C 283.308594 174.058594 279.632812 190.816406 278.226562 194.328125 C 277.625 195.832031 276.808594 197.269531 276.023438 198.65625 C 274.660156 201.050781 273.375 203.3125 273.234375 205.746094 C 272.875 211.84375 272.996094 217.441406 274.71875 224.941406 C 274.789062 225.265625 274.585938 225.589844 274.265625 225.664062 C 274.21875 225.675781 274.171875 225.679688 274.128906 225.679688 " fill-opacity="1" fill-rule="nonzero"/><path fill="#5b2714" d="M 260.65625 186.5 C 260.253906 186.5 259.84375 186.398438 259.421875 186.191406 C 256.207031 184.597656 253.179688 176.773438 254.824219 172.121094 C 256.972656 166.03125 257.890625 163.835938 261.28125 162.042969 C 263.1875 161.035156 266.757812 161.328125 269.769531 162.738281 C 272.210938 163.882812 273.769531 165.515625 274.152344 167.339844 C 274.222656 167.664062 274.011719 167.980469 273.6875 168.050781 C 273.363281 168.121094 273.042969 167.910156 272.976562 167.585938 C 272.675781 166.164062 271.320312 164.792969 269.257812 163.828125 C 266.605469 162.585938 263.421875 162.273438 261.84375 163.105469 C 258.839844 164.695312 258.035156 166.632812 255.957031 172.523438 C 254.40625 176.910156 257.441406 183.867188 259.957031 185.113281 C 260.449219 185.355469 261.191406 185.546875 261.945312 184.398438 C 262.128906 184.121094 262.503906 184.042969 262.78125 184.226562 C 263.058594 184.410156 263.132812 184.78125 262.953125 185.058594 C 262.328125 186.007812 261.527344 186.5 260.65625 186.5 " fill-opacity="1" fill-rule="nonzero"/><path fill="#5b2714" d="M 249.957031 166.171875 C 249.828125 166.171875 249.695312 166.128906 249.582031 166.042969 C 249.320312 165.835938 249.277344 165.457031 249.484375 165.195312 C 250.152344 164.355469 250.910156 163.605469 251.714844 162.816406 C 252.375 162.164062 253.0625 161.488281 253.699219 160.746094 C 255.007812 159.230469 256.695312 158.484375 258.570312 158.585938 C 261.152344 158.726562 263.464844 160.414062 264.21875 161.511719 C 264.40625 161.785156 264.335938 162.15625 264.0625 162.347656 C 263.789062 162.535156 263.414062 162.464844 263.226562 162.1875 C 262.707031 161.4375 260.730469 159.910156 258.503906 159.789062 C 256.976562 159.691406 255.679688 160.289062 254.613281 161.53125 C 253.945312 162.308594 253.238281 163 252.558594 163.671875 C 251.78125 164.4375 251.054688 165.160156 250.425781 165.945312 C 250.308594 166.09375 250.132812 166.171875 249.957031 166.171875 " fill-opacity="1" fill-rule="nonzero"/><path fill="#5b2714" d="M 255.324219 184.578125 C 255.113281 184.578125 254.894531 184.558594 254.675781 184.515625 C 253.199219 184.226562 250.402344 182.710938 248.269531 175.851562 C 247.96875 174.882812 247.75 173.960938 247.613281 173.117188 C 247.558594 172.792969 247.78125 172.480469 248.109375 172.429688 C 248.445312 172.375 248.746094 172.597656 248.800781 172.925781 C 248.929688 173.714844 249.136719 174.578125 249.421875 175.496094 C 251.496094 182.175781 254.148438 183.183594 254.910156 183.335938 C 255.609375 183.46875 256.242188 183.269531 256.648438 182.769531 C 256.863281 182.515625 257.242188 182.480469 257.5 182.691406 C 257.753906 182.902344 257.792969 183.28125 257.582031 183.539062 C 257.027344 184.210938 256.210938 184.578125 255.324219 184.578125 " fill-opacity="1" fill-rule="nonzero"/><path fill="#5b2714" d="M 248.675781 163.640625 C 248.675781 163.640625 248.664062 163.640625 248.660156 163.640625 C 248.328125 163.632812 248.066406 163.359375 248.070312 163.027344 C 248.21875 156.449219 249.96875 146.152344 251.644531 138.863281 C 253.953125 128.804688 256.566406 124.253906 259.992188 124.5625 C 260.703125 124.625 261.257812 124.917969 261.640625 125.429688 C 262.75 126.90625 262.152344 129.960938 261.398438 133.824219 C 260.945312 136.140625 260.433594 138.765625 260.253906 141.3125 C 260.070312 143.933594 259.820312 145.96875 259.597656 147.769531 C 259.171875 151.253906 258.828125 154.007812 259.261719 158.824219 C 259.292969 159.15625 259.046875 159.449219 258.714844 159.476562 C 258.386719 159.507812 258.09375 159.261719 258.0625 158.929688 C 257.621094 153.988281 257.964844 151.179688 258.402344 147.621094 C 258.625 145.839844 258.871094 143.816406 259.050781 141.226562 C 259.238281 138.609375 259.757812 135.945312 260.21875 133.59375 C 260.859375 130.304688 261.46875 127.203125 260.675781 126.152344 C 260.566406 126.003906 260.363281 125.804688 259.882812 125.761719 C 258.113281 125.597656 255.421875 127.789062 252.816406 139.132812 C 251.15625 146.363281 249.417969 156.5625 249.277344 163.050781 C 249.269531 163.382812 249.003906 163.640625 248.675781 163.640625 " fill-opacity="1" fill-rule="nonzero"/><path fill="#5b2714" d="M 214.835938 276.246094 C 214.523438 276.246094 214.261719 276.007812 214.234375 275.6875 C 214.214844 275.355469 214.464844 275.066406 214.792969 275.046875 C 217.316406 274.867188 219.1875 274.507812 220.199219 274.007812 C 224.878906 271.707031 231.210938 261.007812 234.101562 254.808594 C 237.132812 248.300781 241.042969 247.527344 241.210938 247.5 C 241.53125 247.445312 241.847656 247.65625 241.910156 247.984375 C 241.96875 248.308594 241.75 248.625 241.425781 248.683594 C 241.394531 248.6875 237.9375 249.429688 235.191406 255.316406 C 232.113281 261.917969 225.722656 272.632812 220.730469 275.085938 C 219.566406 275.664062 217.59375 276.054688 214.878906 276.246094 C 214.867188 276.246094 214.851562 276.246094 214.835938 276.246094 " fill-opacity="1" fill-rule="nonzero"/><path fill="#5b2714" d="M 214.953125 298 C 214.65625 298 214.398438 297.78125 214.359375 297.476562 C 214.3125 297.148438 214.546875 296.84375 214.875 296.800781 C 217.90625 296.402344 221.652344 295.996094 227.027344 295.484375 C 236.402344 294.589844 241.09375 293.117188 245.882812 286.273438 C 246.074219 286 246.453125 285.9375 246.71875 286.125 C 246.992188 286.316406 247.0625 286.691406 246.871094 286.960938 C 241.808594 294.199219 236.90625 295.753906 227.140625 296.683594 C 221.78125 297.191406 218.046875 297.597656 215.035156 297.996094 C 215.003906 298 214.980469 298 214.953125 298 " fill-opacity="1" fill-rule="nonzero"/><path fill="#5b2714" d="M 181.546875 316.96875 C 176.078125 316.96875 169.53125 316.722656 161.523438 316.238281 C 135.371094 314.648438 101.316406 310.351562 91.402344 303.46875 C 80.289062 295.753906 81.46875 274.433594 82.71875 251.859375 C 82.917969 248.246094 83.121094 244.585938 83.28125 240.925781 C 84.289062 217.417969 87.511719 190.105469 90.460938 180.039062 C 97.070312 157.492188 112.488281 153.863281 128.816406 150.019531 C 136.527344 148.203125 144.496094 146.328125 151.777344 142.347656 C 152.074219 142.183594 152.4375 142.292969 152.597656 142.582031 C 152.757812 142.875 152.648438 143.242188 152.355469 143.398438 C 144.933594 147.460938 136.878906 149.359375 129.089844 151.191406 C 113.117188 154.953125 98.027344 158.503906 91.621094 180.378906 C 88.691406 190.363281 85.492188 217.546875 84.480469 240.976562 C 84.324219 244.644531 84.121094 248.308594 83.921875 251.925781 C 82.691406 274.152344 81.527344 295.148438 92.089844 302.480469 C 101.175781 308.785156 133.542969 313.328125 161.59375 315.035156 C 179.984375 316.148438 190.582031 316 198.160156 314.507812 C 202.832031 313.585938 206.558594 297.714844 206.777344 284.132812 C 206.902344 276.101562 205.695312 273.695312 205.042969 273.542969 C 199.886719 272.359375 190.378906 271.707031 181.992188 271.128906 C 175.683594 270.695312 170.234375 270.320312 167.480469 269.792969 C 157.90625 267.953125 149.914062 265.035156 142.859375 262.464844 C 132.433594 258.664062 123.429688 255.378906 112.9375 256.757812 C 112.601562 256.796875 112.300781 256.566406 112.261719 256.242188 C 112.214844 255.910156 112.449219 255.609375 112.777344 255.566406 C 123.554688 254.15625 132.695312 257.476562 143.277344 261.335938 C 150.285156 263.890625 158.230469 266.789062 167.707031 268.609375 C 170.386719 269.125 176.066406 269.511719 182.074219 269.925781 C 190.503906 270.507812 200.066406 271.160156 205.308594 272.371094 C 207.660156 272.910156 208.0625 279.074219 207.980469 284.15625 C 207.789062 296.148438 204.613281 314.464844 198.394531 315.6875 C 194.035156 316.546875 188.710938 316.96875 181.546875 316.96875 " fill-opacity="1" fill-rule="nonzero"/><path fill="#5b2714" d="M 130.613281 254.527344 L 130.605469 254.527344 C 130.273438 254.523438 130.007812 254.25 130.011719 253.917969 C 130.335938 228.519531 122.796875 192.910156 113.878906 177.707031 C 113.710938 177.425781 113.808594 177.054688 114.089844 176.886719 C 114.378906 176.714844 114.746094 176.8125 114.914062 177.101562 C 125.03125 194.34375 131.511719 230.746094 131.214844 253.933594 C 131.210938 254.261719 130.941406 254.527344 130.613281 254.527344 " fill-opacity="1" fill-rule="nonzero"/><path fill="#5b2714" d="M 204.070312 308.09375 C 203.789062 308.09375 203.53125 307.890625 203.480469 307.597656 C 203.421875 307.273438 203.640625 306.957031 203.96875 306.898438 C 205.203125 306.679688 206.445312 306.59375 207.546875 306.515625 C 209.660156 306.371094 211.488281 306.246094 211.988281 305.242188 C 212.335938 304.550781 213.988281 297.992188 214.542969 291.488281 C 215.222656 283.457031 214.582031 276.3125 213.832031 275.601562 C 213.183594 275.210938 212.175781 275.269531 210.898438 275.34375 C 209.714844 275.410156 208.234375 275.492188 206.558594 275.214844 C 206.230469 275.160156 206.007812 274.847656 206.0625 274.519531 C 206.117188 274.195312 206.433594 273.964844 206.753906 274.027344 C 208.300781 274.285156 209.644531 274.210938 210.832031 274.140625 C 212.253906 274.0625 213.488281 273.988281 214.476562 274.585938 C 216.15625 275.59375 216.292969 285.109375 215.742188 291.589844 C 215.195312 298.054688 213.523438 304.871094 213.070312 305.78125 C 212.261719 307.398438 210.113281 307.546875 207.628906 307.71875 C 206.511719 307.796875 205.351562 307.875 204.179688 308.082031 C 204.144531 308.089844 204.109375 308.09375 204.070312 308.09375 " fill-opacity="1" fill-rule="nonzero"/><path fill="#5b2714" d="M 265.011719 246.066406 C 262.742188 246.066406 260.203125 245.449219 257.414062 244.222656 C 249.304688 240.644531 241.46875 232.75 240.34375 229.375 C 239.269531 226.160156 241.464844 221.976562 246.875 216.941406 C 247.121094 216.714844 247.5 216.730469 247.726562 216.972656 C 247.953125 217.21875 247.941406 217.601562 247.695312 217.824219 C 244.238281 221.046875 240.351562 225.59375 241.484375 228.996094 C 242.546875 232.183594 250.324219 239.78125 257.902344 243.121094 C 262.199219 245.015625 265.953125 245.359375 268.757812 244.113281 C 274.5 241.5625 278.652344 236.375 279.09375 231.199219 C 279.449219 226.953125 277.324219 223.171875 272.941406 220.257812 C 272.664062 220.074219 272.59375 219.699219 272.777344 219.421875 C 272.960938 219.148438 273.332031 219.074219 273.609375 219.253906 C 279.632812 223.261719 280.570312 228.015625 280.292969 231.300781 C 279.816406 236.898438 275.378906 242.488281 269.246094 245.210938 C 267.96875 245.78125 266.550781 246.066406 265.011719 246.066406 " fill-opacity="1" fill-rule="nonzero"/><path fill="#5b2714" d="M 262.828125 229.382812 C 261.164062 229.382812 259.4375 229.214844 257.683594 228.875 C 252.277344 227.820312 248.027344 225.328125 246.589844 222.371094 C 246.445312 222.070312 246.570312 221.710938 246.871094 221.566406 C 247.167969 221.421875 247.527344 221.542969 247.675781 221.84375 C 248.929688 224.425781 252.949219 226.726562 257.914062 227.691406 C 264.433594 228.960938 270.542969 227.71875 274.257812 224.363281 C 274.503906 224.144531 274.882812 224.160156 275.109375 224.40625 C 275.332031 224.652344 275.3125 225.035156 275.066406 225.257812 C 272.085938 227.945312 267.714844 229.382812 262.828125 229.382812 " fill-opacity="1" fill-rule="nonzero"/><g clip-path="url(#c2d0ba8e85)"><path fill="#5b2714" d="M 112.582031 346.984375 C 113.640625 330.046875 116.148438 314.804688 116.996094 311.058594 C 117.070312 310.734375 116.867188 310.410156 116.542969 310.339844 C 116.21875 310.261719 115.894531 310.46875 115.820312 310.792969 C 114.96875 314.566406 112.4375 329.9375 111.375 346.984375 L 112.582031 346.984375 " fill-opacity="1" fill-rule="nonzero"/></g><g clip-path="url(#2359e71a26)"><path fill="#5b2714" d="M 272.34375 346.984375 L 273.550781 346.984375 C 272.976562 333.46875 271.027344 317.488281 268.691406 307.777344 C 268.613281 307.457031 268.289062 307.257812 267.964844 307.332031 C 267.640625 307.410156 267.441406 307.738281 267.519531 308.058594 C 269.839844 317.691406 271.769531 333.554688 272.34375 346.984375 " fill-opacity="1" fill-rule="nonzero"/></g><path fill="#5b2714" d="M 193.785156 137.003906 C 193.460938 137.003906 193.144531 136.988281 192.828125 136.960938 C 185.339844 136.3125 174.554688 131.933594 168.792969 121.71875 C 168.628906 121.429688 168.734375 121.066406 169.023438 120.898438 C 169.3125 120.738281 169.679688 120.839844 169.84375 121.128906 C 177.121094 134.039062 191.335938 135.625 192.929688 135.761719 C 198.113281 136.210938 205.265625 132.164062 209.359375 128.125 C 215.015625 122.539062 216.730469 115.167969 217.664062 108.6875 C 217.710938 108.359375 218.015625 108.132812 218.34375 108.179688 C 218.675781 108.226562 218.902344 108.53125 218.855469 108.859375 C 217.894531 115.535156 216.113281 123.148438 210.207031 128.980469 C 206.832031 132.308594 199.847656 137.003906 193.785156 137.003906 " fill-opacity="1" fill-rule="nonzero"/><path fill="#5b2714" d="M 161.800781 113.222656 C 160.117188 113.222656 157.925781 112.25 156.058594 110.632812 C 153.398438 108.324219 151.851562 105.164062 151.820312 101.957031 C 151.789062 98.300781 153.042969 95.523438 155.175781 94.527344 C 156.902344 93.722656 158.980469 94.183594 160.875 95.800781 C 161.125 96.015625 161.15625 96.394531 160.941406 96.648438 C 160.722656 96.902344 160.339844 96.929688 160.089844 96.714844 C 158.550781 95.398438 156.984375 95.011719 155.6875 95.617188 C 153.992188 96.410156 152.996094 98.777344 153.027344 101.949219 C 153.054688 104.808594 154.449219 107.640625 156.851562 109.722656 C 158.640625 111.269531 160.769531 112.183594 162.160156 111.996094 C 162.5 111.957031 162.792969 112.183594 162.835938 112.511719 C 162.882812 112.84375 162.652344 113.144531 162.320312 113.191406 C 162.15625 113.210938 161.980469 113.222656 161.800781 113.222656 " fill-opacity="1" fill-rule="nonzero"/><path fill="#5b2714" d="M 218.175781 112.082031 C 217.902344 112.082031 217.65625 111.898438 217.589844 111.621094 C 217.511719 111.300781 217.710938 110.976562 218.035156 110.898438 C 218.203125 110.855469 222.125 109.824219 223.804688 104.148438 C 224.636719 101.332031 224.507812 98.863281 223.464844 97.539062 C 222.890625 96.8125 222.050781 96.472656 221.003906 96.53125 C 220.675781 96.558594 220.386719 96.292969 220.367188 95.960938 C 220.351562 95.628906 220.609375 95.34375 220.9375 95.324219 C 222.414062 95.261719 223.59375 95.757812 224.410156 96.792969 C 225.714844 98.445312 225.917969 101.253906 224.960938 104.492188 C 223.074219 110.871094 218.507812 112.023438 218.3125 112.066406 C 218.269531 112.078125 218.21875 112.082031 218.175781 112.082031 " fill-opacity="1" fill-rule="nonzero"/><path fill="#5b2714" d="M 194.382812 107.589844 C 194.203125 107.589844 194.027344 107.507812 193.910156 107.363281 C 193.703125 107.101562 193.746094 106.722656 194.007812 106.515625 C 196.660156 104.40625 196.179688 103.417969 195.308594 101.625 C 194.480469 99.925781 193.351562 97.601562 194.828125 93.695312 C 194.945312 93.382812 195.300781 93.230469 195.605469 93.347656 C 195.917969 93.460938 196.074219 93.8125 195.957031 94.121094 C 194.660156 97.542969 195.578125 99.429688 196.390625 101.097656 C 197.304688 102.976562 198.167969 104.75 194.753906 107.457031 C 194.644531 107.546875 194.511719 107.589844 194.382812 107.589844 " fill-opacity="1" fill-rule="nonzero"/><path fill="#5b2714" d="M 174.652344 87.257812 C 174.441406 87.257812 174.234375 87.144531 174.125 86.945312 C 173.964844 86.652344 174.074219 86.289062 174.367188 86.128906 C 176.71875 84.847656 182.125 84.042969 185.230469 85.714844 C 185.527344 85.875 185.632812 86.238281 185.476562 86.527344 C 185.320312 86.824219 184.953125 86.933594 184.664062 86.777344 C 182.039062 85.367188 177.035156 86.042969 174.945312 87.183594 C 174.851562 87.234375 174.753906 87.257812 174.652344 87.257812 " fill-opacity="1" fill-rule="nonzero"/><path fill="#5b2714" d="M 211.652344 87.253906 C 211.519531 87.253906 211.390625 87.210938 211.277344 87.125 C 209.566406 85.753906 205.582031 85.894531 203.296875 86.929688 C 202.992188 87.066406 202.640625 86.933594 202.5 86.632812 C 202.363281 86.328125 202.496094 85.972656 202.800781 85.835938 C 205.457031 84.636719 209.898438 84.476562 212.03125 86.183594 C 212.289062 86.390625 212.332031 86.769531 212.125 87.027344 C 212.003906 87.175781 211.832031 87.253906 211.652344 87.253906 " fill-opacity="1" fill-rule="nonzero"/><path fill="#5b2714" d="M 160.203125 105.433594 C 160.039062 105.433594 159.875 105.367188 159.757812 105.234375 L 157.335938 102.558594 C 157.113281 102.316406 157.132812 101.933594 157.378906 101.710938 C 157.628906 101.488281 158.007812 101.507812 158.230469 101.753906 L 160.648438 104.425781 C 160.871094 104.675781 160.851562 105.054688 160.605469 105.277344 C 160.492188 105.382812 160.347656 105.433594 160.203125 105.433594 " fill-opacity="1" fill-rule="nonzero"/><path fill="#5b2714" d="M 220.289062 99.34375 C 220.265625 99.34375 220.242188 99.34375 220.21875 99.339844 C 219.886719 99.300781 219.652344 99 219.691406 98.671875 C 219.953125 96.4375 220.574219 90.328125 220.300781 88.925781 C 220.238281 88.601562 220.449219 88.285156 220.773438 88.21875 C 221.097656 88.160156 221.417969 88.367188 221.480469 88.695312 C 221.839844 90.539062 220.984375 97.972656 220.886719 98.8125 C 220.851562 99.121094 220.589844 99.34375 220.289062 99.34375 " fill-opacity="1" fill-rule="nonzero"/><path fill="#5b2714" d="M 176.851562 96.117188 C 176.976562 94.640625 178.074219 93.550781 179.296875 93.683594 C 180.519531 93.816406 181.40625 95.117188 181.277344 96.597656 C 181.152344 98.074219 180.058594 99.164062 178.835938 99.03125 C 177.609375 98.898438 176.722656 97.59375 176.851562 96.117188 " fill-opacity="1" fill-rule="evenodd"/><path fill="#5b2714" d="M 149.070312 68.949219 C 148.820312 68.949219 148.585938 68.792969 148.5 68.546875 C 148.390625 68.234375 148.554688 67.890625 148.867188 67.78125 C 152.171875 66.628906 152.523438 63.503906 152.964844 59.546875 C 153.320312 56.390625 153.714844 52.816406 155.695312 49.410156 C 160.011719 41.988281 167.835938 38.746094 174.300781 41.699219 C 174.601562 41.839844 174.734375 42.195312 174.597656 42.496094 C 174.460938 42.800781 174.101562 42.933594 173.796875 42.792969 C 167.910156 40.105469 160.738281 43.136719 156.738281 50.015625 C 154.886719 53.199219 154.5 56.644531 154.164062 59.683594 C 153.691406 63.886719 153.285156 67.515625 149.269531 68.917969 C 149.203125 68.941406 149.132812 68.949219 149.070312 68.949219 " fill-opacity="1" fill-rule="nonzero"/><path fill="#5b2714" d="M 156.148438 95.15625 C 155.851562 95.15625 155.59375 94.9375 155.550781 94.632812 C 155.410156 93.566406 155.0625 91.984375 154.664062 90.152344 C 153.644531 85.507812 152.253906 79.152344 152.71875 74.523438 C 152.753906 74.191406 153.046875 73.964844 153.378906 73.984375 C 153.710938 74.019531 153.953125 74.316406 153.921875 74.644531 C 153.472656 79.082031 154.839844 85.332031 155.839844 89.894531 C 156.246094 91.753906 156.601562 93.359375 156.746094 94.472656 C 156.792969 94.804688 156.558594 95.105469 156.230469 95.152344 C 156.203125 95.152344 156.171875 95.15625 156.148438 95.15625 " fill-opacity="1" fill-rule="nonzero"/><path fill="#5b2714" d="M 223.292969 49.015625 C 218.988281 49.015625 216.488281 46.667969 213.40625 43.773438 C 212.644531 43.058594 211.832031 42.292969 210.9375 41.507812 C 198.738281 30.832031 185.113281 33.683594 179.332031 39.117188 C 179.089844 39.347656 178.707031 39.335938 178.480469 39.089844 C 178.253906 38.851562 178.261719 38.46875 178.507812 38.242188 C 185.742188 31.441406 200.148438 30.464844 211.730469 40.605469 C 212.636719 41.398438 213.457031 42.167969 214.230469 42.894531 C 217.652344 46.109375 219.921875 48.230469 224.539062 47.742188 C 224.863281 47.707031 225.167969 47.945312 225.203125 48.277344 C 225.238281 48.609375 224.996094 48.902344 224.667969 48.9375 C 224.1875 48.988281 223.730469 49.015625 223.292969 49.015625 " fill-opacity="1" fill-rule="nonzero"/><path fill="#5b2714" d="M 166.320312 84.394531 C 166.089844 84.394531 165.859375 84.390625 165.621094 84.378906 C 165.289062 84.363281 165.03125 84.082031 165.046875 83.753906 C 165.058594 83.421875 165.359375 83.171875 165.675781 83.179688 C 173.324219 83.496094 174.964844 77.9375 176.6875 72.035156 C 177.964844 67.664062 179.285156 63.140625 183.453125 61.925781 C 183.773438 61.832031 184.105469 62.015625 184.199219 62.335938 C 184.292969 62.652344 184.109375 62.984375 183.789062 63.082031 C 180.257812 64.113281 179.085938 68.125 177.84375 72.375 C 176.199219 78.019531 174.335938 84.394531 166.320312 84.394531 " fill-opacity="1" fill-rule="nonzero"/><path fill="#5b2714" d="M 219.222656 83.5 C 211.9375 83.5 206.421875 75.808594 202.871094 69.933594 C 199.082031 63.664062 196.15625 59.730469 190.15625 62.101562 C 189.847656 62.222656 189.5 62.070312 189.375 61.761719 C 189.25 61.449219 189.40625 61.101562 189.710938 60.980469 C 196.574219 58.269531 199.921875 62.722656 203.90625 69.3125 C 207.410156 75.113281 212.859375 82.757812 219.867188 82.273438 C 220.167969 82.253906 220.488281 82.5 220.511719 82.832031 C 220.535156 83.164062 220.285156 83.453125 219.953125 83.476562 C 219.710938 83.492188 219.464844 83.5 219.222656 83.5 " fill-opacity="1" fill-rule="nonzero"/><path fill="#5b2714" d="M 223.847656 91.792969 C 223.800781 91.792969 223.753906 91.785156 223.703125 91.777344 C 223.378906 91.695312 223.183594 91.371094 223.265625 91.046875 C 224.457031 86.195312 228.085938 64.769531 222.578125 56.367188 C 222.394531 56.085938 222.472656 55.71875 222.753906 55.53125 C 223.03125 55.355469 223.402344 55.425781 223.582031 55.707031 C 229.386719 64.554688 225.730469 86.058594 224.433594 91.335938 C 224.367188 91.609375 224.117188 91.792969 223.847656 91.792969 " fill-opacity="1" fill-rule="nonzero"/><path fill="#5b2714" d="M 185.035156 115.820312 C 185.789062 118.050781 188.285156 123.730469 194.125 123.878906 C 198.960938 124.035156 201.5625 118.398438 202.394531 116.140625 C 200.964844 116.359375 198.140625 116.722656 194.617188 116.6875 C 190.867188 116.664062 186.832031 116.101562 185.035156 115.820312 Z M 194.296875 125.085938 C 194.230469 125.085938 194.160156 125.085938 194.09375 125.085938 C 185.921875 124.875 183.617188 115.300781 183.59375 115.199219 C 183.550781 115.003906 183.601562 114.796875 183.746094 114.652344 C 183.886719 114.503906 184.089844 114.4375 184.289062 114.476562 C 184.339844 114.484375 189.738281 115.449219 194.621094 115.484375 C 199.507812 115.519531 203.128906 114.792969 203.167969 114.785156 C 203.367188 114.746094 203.582031 114.8125 203.726562 114.96875 C 203.867188 115.121094 203.917969 115.335938 203.867188 115.535156 C 203.757812 115.933594 201.15625 125.085938 194.296875 125.085938 " fill-opacity="1" fill-rule="nonzero"/><path fill="#5b2714" d="M 162.828125 92.839844 C 162.550781 92.839844 162.304688 92.648438 162.242188 92.371094 C 162.167969 92.046875 162.371094 91.726562 162.695312 91.648438 C 164.820312 91.171875 166.457031 90.671875 168.121094 88.640625 C 168.332031 88.386719 168.707031 88.347656 168.964844 88.558594 C 169.222656 88.769531 169.261719 89.148438 169.050781 89.40625 C 167.152344 91.726562 165.25 92.304688 162.960938 92.824219 C 162.914062 92.832031 162.871094 92.839844 162.828125 92.839844 " fill-opacity="1" fill-rule="nonzero"/><path fill="#5b2714" d="M 209.390625 137.285156 C 209.082031 137.285156 208.824219 137.054688 208.792969 136.742188 C 208.566406 134.453125 208.488281 131.734375 208.59375 129.472656 C 208.609375 129.140625 208.898438 128.882812 209.222656 128.898438 C 209.554688 128.914062 209.8125 129.195312 209.796875 129.527344 C 209.695312 131.734375 209.765625 134.390625 209.992188 136.621094 C 210.023438 136.953125 209.78125 137.246094 209.449219 137.28125 C 209.429688 137.285156 209.410156 137.285156 209.390625 137.285156 " fill-opacity="1" fill-rule="nonzero"/><path fill="#5b2714" d="M 166.132812 135.511719 C 166.125 135.511719 166.121094 135.511719 166.113281 135.511719 C 165.78125 135.503906 165.519531 135.222656 165.53125 134.890625 C 165.738281 128.140625 165.09375 119.367188 164.542969 115.628906 C 164.496094 115.300781 164.722656 114.996094 165.054688 114.945312 C 165.382812 114.898438 165.6875 115.128906 165.734375 115.453125 C 166.269531 119.09375 166.957031 127.796875 166.734375 134.929688 C 166.722656 135.253906 166.457031 135.511719 166.132812 135.511719 " fill-opacity="1" fill-rule="nonzero"/><path fill="#5b2714" d="M 183.636719 56.464844 C 183.371094 56.464844 183.125 56.289062 183.054688 56.023438 C 182.164062 52.804688 179.503906 48.84375 179.476562 48.804688 C 179.289062 48.527344 179.363281 48.152344 179.640625 47.96875 C 179.914062 47.78125 180.289062 47.855469 180.472656 48.132812 C 180.585938 48.296875 183.273438 52.296875 184.214844 55.703125 C 184.300781 56.019531 184.117188 56.355469 183.792969 56.441406 C 183.742188 56.457031 183.6875 56.464844 183.636719 56.464844 " fill-opacity="1" fill-rule="nonzero"/><path fill="#5b2714" d="M 204.453125 96.226562 C 204.582031 94.75 205.675781 93.660156 206.898438 93.792969 C 208.121094 93.925781 209.007812 95.226562 208.882812 96.707031 C 208.75 98.183594 207.660156 99.273438 206.4375 99.140625 C 205.210938 99.007812 204.328125 97.703125 204.453125 96.226562 " fill-opacity="1" fill-rule="evenodd"/><path fill="#5b2714" d="M 199.925781 272.191406 C 199.613281 272.191406 199.347656 271.949219 199.328125 271.628906 C 197.902344 250.328125 195.347656 233.429688 191.527344 219.972656 C 188.320312 208.679688 183.59375 195.46875 179.027344 182.699219 C 171.128906 160.628906 163.671875 139.785156 165.058594 131.597656 C 165.113281 131.273438 165.417969 131.058594 165.753906 131.109375 C 166.078125 131.160156 166.300781 131.472656 166.246094 131.800781 C 164.914062 139.675781 172.316406 160.375 180.160156 182.289062 C 184.738281 195.085938 189.46875 208.3125 192.6875 219.644531 C 196.53125 233.183594 199.097656 250.164062 200.527344 271.550781 C 200.550781 271.882812 200.300781 272.167969 199.96875 272.191406 C 199.953125 272.191406 199.941406 272.191406 199.925781 272.191406 " fill-opacity="1" fill-rule="nonzero"/><g clip-path="url(#2637fa6a56)"><path fill="#5b2714" d="M 200.632812 346.984375 L 201.835938 346.984375 C 201.972656 335.84375 202.007812 323.523438 201.917969 312.652344 C 201.914062 312.320312 201.644531 312.050781 201.316406 312.050781 L 201.3125 312.050781 C 200.976562 312.054688 200.710938 312.328125 200.710938 312.660156 C 200.800781 323.527344 200.769531 335.847656 200.632812 346.984375 " fill-opacity="1" fill-rule="nonzero"/></g><path fill="#5b2714" d="M 193.523438 225.390625 C 193.453125 225.390625 193.386719 225.378906 193.316406 225.355469 C 193.003906 225.238281 192.84375 224.894531 192.957031 224.582031 C 200.226562 204.800781 214.53125 146.136719 209.234375 135.757812 C 209.082031 135.460938 209.203125 135.101562 209.496094 134.949219 C 209.792969 134.800781 210.15625 134.917969 210.308594 135.210938 C 215.835938 146.054688 201.621094 204.503906 194.089844 224.996094 C 194 225.238281 193.769531 225.390625 193.523438 225.390625 " fill-opacity="1" fill-rule="nonzero"/><path fill="#5b2714" d="M 192.277344 220.597656 L 192.269531 220.597656 C 191.933594 220.59375 191.671875 220.320312 191.675781 219.988281 C 191.898438 206.902344 191.882812 192.847656 190.28125 178.757812 C 189.382812 170.832031 189.257812 164.574219 189.164062 160.007812 C 189.074219 155.324219 189.011719 152.230469 188.21875 150.707031 C 187.699219 149.707031 185.285156 148.515625 182.492188 147.136719 C 176.976562 144.414062 169.425781 140.6875 165.277344 133.753906 C 165.105469 133.46875 165.199219 133.097656 165.488281 132.929688 C 165.773438 132.757812 166.140625 132.847656 166.3125 133.136719 C 170.277344 139.765625 177.644531 143.402344 183.023438 146.054688 C 186.253906 147.652344 188.585938 148.804688 189.289062 150.152344 C 190.210938 151.925781 190.273438 155.128906 190.371094 159.984375 C 190.460938 164.527344 190.585938 170.753906 191.476562 178.625 C 193.085938 192.78125 193.105469 206.878906 192.878906 220.011719 C 192.875 220.335938 192.605469 220.597656 192.277344 220.597656 " fill-opacity="1" fill-rule="nonzero"/><path fill="#5b2714" d="M 173.855469 166.214844 C 173.710938 166.214844 173.570312 166.167969 173.453125 166.0625 C 173.207031 165.84375 173.183594 165.464844 173.40625 165.214844 C 174.855469 163.585938 176.371094 161.453125 177.839844 159.394531 C 181.535156 154.203125 185.019531 149.304688 188.636719 149.886719 C 188.964844 149.9375 189.191406 150.25 189.136719 150.578125 C 189.082031 150.90625 188.773438 151.125 188.445312 151.074219 C 185.570312 150.59375 182.140625 155.425781 178.820312 160.09375 C 177.332031 162.179688 175.800781 164.335938 174.304688 166.015625 C 174.183594 166.148438 174.019531 166.214844 173.855469 166.214844 " fill-opacity="1" fill-rule="nonzero"/><path fill="#5b2714" d="M 189.757812 157.015625 C 189.726562 157.015625 189.691406 157.011719 189.660156 157.007812 C 189.332031 156.953125 189.109375 156.640625 189.164062 156.316406 C 190.359375 149.113281 196.015625 145.890625 201.007812 143.046875 C 204.558594 141.027344 207.910156 139.125 209.300781 136.070312 C 209.441406 135.765625 209.796875 135.632812 210.097656 135.769531 C 210.402344 135.910156 210.535156 136.265625 210.398438 136.566406 C 208.84375 139.972656 205.328125 141.976562 201.605469 144.097656 C 196.613281 146.933594 191.453125 149.875 190.351562 156.511719 C 190.304688 156.804688 190.050781 157.015625 189.757812 157.015625 " fill-opacity="1" fill-rule="nonzero"/><path fill="#5b2714" d="M 206.300781 166.941406 C 204.042969 166.941406 202.097656 163.507812 199.839844 159.527344 C 197.578125 155.53125 195.011719 151.007812 192.421875 151.007812 C 192.089844 151.007812 191.820312 150.738281 191.820312 150.40625 C 191.820312 150.070312 192.089844 149.800781 192.421875 149.800781 C 195.710938 149.800781 198.34375 154.445312 200.890625 158.933594 C 202.785156 162.28125 204.746094 165.738281 206.300781 165.738281 L 206.304688 165.738281 C 206.898438 165.734375 207.515625 165.164062 208.144531 164.039062 C 208.304688 163.75 208.671875 163.644531 208.960938 163.808594 C 209.253906 163.96875 209.355469 164.335938 209.195312 164.628906 C 208.328125 166.179688 207.386719 166.9375 206.3125 166.941406 L 206.300781 166.941406 " fill-opacity="1" fill-rule="nonzero"/><path fill="#5b2714" d="M 162.082031 161.199219 C 161.84375 161.199219 161.621094 161.054688 161.523438 160.820312 C 160.339844 157.886719 156.613281 156.554688 153.621094 155.484375 C 151.195312 154.617188 149.28125 153.929688 149.117188 152.519531 C 148.925781 150.859375 150.21875 149.363281 152.164062 147.09375 C 153.597656 145.429688 155.378906 143.359375 157.164062 140.539062 C 161.472656 133.726562 163.59375 130.667969 165.585938 129.34375 C 165.863281 129.15625 166.234375 129.230469 166.417969 129.507812 C 166.601562 129.785156 166.53125 130.160156 166.253906 130.34375 C 164.457031 131.539062 162.3125 134.652344 158.183594 141.179688 C 156.351562 144.074219 154.539062 146.183594 153.078125 147.878906 C 151.335938 149.90625 150.1875 151.246094 150.316406 152.382812 C 150.390625 153.050781 152.324219 153.742188 154.027344 154.351562 C 157.246094 155.503906 161.253906 156.9375 162.640625 160.371094 C 162.765625 160.679688 162.617188 161.027344 162.308594 161.152344 C 162.234375 161.183594 162.15625 161.199219 162.082031 161.199219 " fill-opacity="1" fill-rule="nonzero"/><path fill="#5b2714" d="M 155.890625 176.054688 C 155.671875 176.054688 155.460938 175.9375 155.355469 175.726562 C 149.636719 164.574219 148.832031 161.734375 149.386719 160.773438 C 149.871094 159.9375 151.128906 160.132812 153.207031 160.46875 C 155.777344 160.875 159.292969 161.429688 162.410156 160.238281 C 165.0625 159.222656 166.792969 156.339844 168.722656 152.015625 C 168.855469 151.710938 169.214844 151.574219 169.519531 151.710938 C 169.820312 151.847656 169.957031 152.203125 169.820312 152.507812 C 167.765625 157.113281 165.882812 160.199219 162.839844 161.363281 C 159.421875 162.671875 155.570312 162.0625 153.019531 161.65625 C 151.96875 161.488281 150.65625 161.28125 150.378906 161.4375 C 150.253906 161.972656 151.144531 164.871094 156.425781 175.179688 C 156.578125 175.472656 156.460938 175.835938 156.164062 175.988281 C 156.078125 176.035156 155.984375 176.054688 155.890625 176.054688 " fill-opacity="1" fill-rule="nonzero"/><path fill="#5b2714" d="M 194.769531 231.617188 C 194.542969 231.617188 194.328125 231.488281 194.226562 231.269531 C 189.390625 220.933594 181.664062 211.996094 174.191406 203.351562 C 171.386719 200.105469 168.734375 197.039062 166.332031 194 C 166.128906 193.742188 166.171875 193.359375 166.433594 193.15625 C 166.695312 192.953125 167.070312 192.992188 167.277344 193.253906 C 169.664062 196.269531 172.304688 199.328125 175.105469 202.5625 C 182.28125 210.863281 190.410156 220.273438 195.316406 230.761719 C 195.457031 231.0625 195.328125 231.417969 195.023438 231.5625 C 194.941406 231.601562 194.855469 231.617188 194.769531 231.617188 " fill-opacity="1" fill-rule="nonzero"/><path fill="#5b2714" d="M 218.355469 162.0625 C 218.296875 162.0625 218.238281 162.050781 218.183594 162.039062 C 217.863281 161.941406 217.683594 161.605469 217.777344 161.285156 C 218.835938 157.738281 222.691406 155.9375 225.792969 154.488281 C 227.429688 153.722656 229.289062 152.855469 229.300781 152.183594 C 229.328125 151.039062 228.054688 149.8125 226.125 147.957031 C 225.214844 147.074219 224.175781 146.074219 223.054688 144.867188 C 222.097656 143.832031 221.234375 142.816406 220.421875 141.765625 C 215.640625 135.570312 211.324219 130.910156 209.4375 129.890625 C 209.144531 129.734375 209.035156 129.371094 209.191406 129.078125 C 209.351562 128.78125 209.71875 128.675781 210.007812 128.832031 C 212.464844 130.15625 217.492188 136 221.375 141.027344 C 222.167969 142.050781 223.003906 143.042969 223.941406 144.050781 C 225.035156 145.230469 226.058594 146.21875 226.960938 147.089844 C 229.117188 149.167969 230.542969 150.539062 230.507812 152.210938 C 230.476562 153.628906 228.632812 154.488281 226.300781 155.578125 C 223.417969 156.921875 219.835938 158.601562 218.933594 161.632812 C 218.851562 161.890625 218.613281 162.0625 218.355469 162.0625 " fill-opacity="1" fill-rule="nonzero"/><path fill="#5b2714" d="M 195.335938 233.371094 C 195.265625 233.371094 195.199219 233.359375 195.128906 233.335938 C 194.820312 233.222656 194.65625 232.878906 194.765625 232.566406 C 198.675781 221.648438 205.015625 212.066406 210.613281 203.613281 C 215.28125 196.550781 219.695312 189.886719 222.179688 183.351562 C 222.535156 182.40625 223.121094 180.964844 223.8125 179.257812 C 225.839844 174.253906 230.589844 162.539062 230.011719 161.121094 C 229.792969 161.070312 228.507812 161.402344 227.476562 161.667969 C 224.976562 162.308594 221.195312 163.277344 217.671875 162.292969 C 214.53125 161.417969 212.367188 158.519531 209.890625 154.125 C 209.730469 153.839844 209.832031 153.46875 210.121094 153.304688 C 210.40625 153.144531 210.777344 153.246094 210.941406 153.535156 C 213.265625 157.660156 215.257812 160.371094 217.996094 161.132812 C 221.214844 162.035156 224.660156 161.148438 227.175781 160.5 C 229.21875 159.980469 230.449219 159.664062 231.007812 160.449219 C 231.9375 161.753906 229.691406 167.960938 224.929688 179.707031 C 224.242188 181.40625 223.660156 182.84375 223.304688 183.777344 C 220.773438 190.441406 216.328125 197.160156 211.617188 204.273438 C 205.789062 213.082031 199.761719 222.191406 195.902344 232.96875 C 195.8125 233.21875 195.582031 233.371094 195.335938 233.371094 " fill-opacity="1" fill-rule="nonzero"/><path fill="#5b2714" d="M 238.292969 173.636719 C 238.015625 173.636719 237.765625 173.449219 237.707031 173.167969 C 232.996094 152.707031 225.40625 140.289062 213.085938 132.910156 C 212.800781 132.742188 212.710938 132.371094 212.878906 132.085938 C 213.050781 131.800781 213.421875 131.707031 213.707031 131.878906 C 226.160156 139.335938 234.15625 152.371094 238.878906 172.898438 C 238.953125 173.222656 238.75 173.546875 238.425781 173.621094 C 238.378906 173.632812 238.335938 173.636719 238.292969 173.636719 " fill-opacity="1" fill-rule="nonzero"/><path fill="#5b2714" d="M 237.777344 189.4375 C 237.480469 189.4375 237.21875 189.210938 237.183594 188.90625 C 235.710938 176.183594 232.5 164.375 227.886719 154.761719 C 227.742188 154.464844 227.867188 154.101562 228.167969 153.957031 C 228.46875 153.816406 228.828125 153.941406 228.972656 154.242188 C 233.640625 163.976562 236.894531 175.914062 238.378906 188.765625 C 238.417969 189.097656 238.179688 189.394531 237.851562 189.433594 C 237.824219 189.4375 237.804688 189.4375 237.777344 189.4375 " fill-opacity="1" fill-rule="nonzero"/><path fill="#5b2714" d="M 146.277344 175.273438 C 145.972656 175.273438 145.710938 175.039062 145.679688 174.730469 C 142.640625 145.03125 157.542969 135.601562 162.441406 132.5 C 162.71875 132.320312 163.09375 132.40625 163.269531 132.6875 C 163.449219 132.96875 163.363281 133.339844 163.082031 133.515625 C 158.34375 136.519531 143.914062 145.652344 146.875 174.609375 C 146.910156 174.941406 146.667969 175.234375 146.339844 175.269531 C 146.320312 175.269531 146.296875 175.273438 146.277344 175.273438 " fill-opacity="1" fill-rule="nonzero"/><path fill="#5b2714" d="M 150.019531 174.828125 C 149.710938 174.828125 149.453125 174.59375 149.421875 174.28125 C 148.847656 168.335938 148.578125 161.273438 150.902344 153.972656 C 151.003906 153.65625 151.339844 153.476562 151.65625 153.582031 C 151.976562 153.679688 152.152344 154.019531 152.050781 154.335938 C 149.789062 161.429688 150.058594 168.339844 150.621094 174.167969 C 150.648438 174.5 150.410156 174.792969 150.078125 174.824219 C 150.058594 174.828125 150.039062 174.828125 150.019531 174.828125 " fill-opacity="1" fill-rule="nonzero"/><path fill="#5b2714" d="M 239.886719 214.085938 C 237.898438 214.085938 235.96875 213.460938 234.332031 212.261719 C 232.289062 210.765625 230.949219 208.558594 230.550781 206.054688 C 230.15625 203.546875 230.753906 201.035156 232.238281 198.988281 C 233.726562 196.933594 235.917969 195.589844 238.410156 195.195312 C 239.730469 194.984375 241.050781 195.058594 242.335938 195.40625 C 242.660156 195.492188 242.847656 195.824219 242.761719 196.144531 C 242.675781 196.464844 242.347656 196.65625 242.019531 196.566406 C 240.902344 196.265625 239.75 196.199219 238.597656 196.386719 C 236.421875 196.726562 234.511719 197.902344 233.214844 199.691406 C 231.917969 201.484375 231.398438 203.675781 231.742188 205.863281 C 232.085938 208.058594 233.257812 209.980469 235.042969 211.289062 C 236.828125 212.59375 239.015625 213.125 241.183594 212.78125 C 243.273438 212.453125 245.136719 211.34375 246.429688 209.660156 C 246.632812 209.394531 247.007812 209.347656 247.273438 209.550781 C 247.539062 209.75 247.585938 210.132812 247.382812 210.394531 C 245.902344 212.320312 243.769531 213.59375 241.371094 213.96875 C 240.875 214.046875 240.378906 214.085938 239.886719 214.085938 " fill-opacity="1" fill-rule="nonzero"/><path fill="#5b2714" d="M 240.257812 199.332031 C 240.03125 199.332031 239.804688 199.351562 239.578125 199.386719 C 238.433594 199.566406 237.429688 200.183594 236.746094 201.125 C 236.0625 202.066406 235.789062 203.21875 235.96875 204.371094 C 236.34375 206.75 238.574219 208.378906 240.9375 208.011719 C 243.296875 207.640625 244.917969 205.402344 244.542969 203.023438 C 244.359375 201.871094 243.742188 200.859375 242.804688 200.171875 C 242.054688 199.621094 241.167969 199.332031 240.257812 199.332031 Z M 240.261719 209.265625 C 237.578125 209.265625 235.210938 207.300781 234.78125 204.5625 C 234.546875 203.089844 234.898438 201.621094 235.769531 200.417969 C 236.640625 199.21875 237.925781 198.429688 239.390625 198.199219 C 240.851562 197.96875 242.316406 198.324219 243.515625 199.199219 C 244.714844 200.078125 245.5 201.367188 245.730469 202.835938 C 246.210938 205.867188 244.144531 208.722656 241.125 209.199219 C 240.832031 209.242188 240.546875 209.265625 240.261719 209.265625 " fill-opacity="1" fill-rule="nonzero"/><path fill="#5b2714" d="M 167.527344 249.824219 C 167.230469 249.824219 166.976562 249.609375 166.933594 249.3125 C 166.882812 248.980469 167.113281 248.679688 167.4375 248.628906 C 170.277344 248.207031 173.144531 246.324219 174.507812 244.679688 C 176.792969 241.925781 177.257812 238.109375 176.125 231.503906 C 175.058594 225.324219 173.605469 219.421875 171.261719 211.773438 C 171.164062 211.453125 171.34375 211.117188 171.660156 211.019531 C 171.980469 210.921875 172.316406 211.101562 172.414062 211.417969 C 174.773438 219.121094 176.234375 225.066406 177.308594 231.300781 C 178.511719 238.292969 177.964844 242.390625 175.4375 245.445312 C 173.972656 247.210938 170.902344 249.332031 167.617188 249.820312 C 167.585938 249.824219 167.554688 249.824219 167.527344 249.824219 " fill-opacity="1" fill-rule="nonzero"/><path fill="#5b2714" d="M 133.132812 214.316406 C 132.925781 214.316406 132.726562 214.207031 132.613281 214.011719 C 132.0625 213.039062 132.414062 209.519531 132.976562 204.65625 C 133.101562 203.542969 133.21875 202.53125 133.285156 201.785156 C 133.589844 198.351562 133.839844 195.378906 134.050781 192.832031 C 134.605469 186.167969 134.910156 182.5 135.40625 180.933594 C 136.40625 177.773438 140.636719 175.414062 146.726562 174.617188 C 152.507812 173.855469 159.425781 174.765625 161.464844 177.964844 C 163.242188 180.761719 168.027344 195.257812 169.679688 200.828125 C 170.34375 203.070312 171.03125 204.90625 171.585938 206.382812 C 172.507812 208.839844 173.0625 210.324219 172.730469 211.472656 C 172.640625 211.792969 172.304688 211.980469 171.988281 211.886719 C 171.664062 211.792969 171.480469 211.460938 171.574219 211.140625 C 171.796875 210.375 171.234375 208.878906 170.457031 206.804688 C 169.894531 205.3125 169.199219 203.453125 168.523438 201.167969 C 166.644531 194.828125 162.039062 181.113281 160.449219 178.613281 C 158.914062 176.203125 153.082031 174.996094 146.882812 175.808594 C 141.355469 176.535156 137.394531 178.636719 136.550781 181.300781 C 136.097656 182.734375 135.78125 186.574219 135.253906 192.933594 C 135.042969 195.480469 134.789062 198.453125 134.488281 201.890625 C 134.417969 202.644531 134.300781 203.667969 134.171875 204.796875 C 133.855469 207.550781 133.265625 212.683594 133.664062 213.417969 C 133.820312 213.707031 133.714844 214.078125 133.429688 214.238281 C 133.332031 214.289062 133.234375 214.316406 133.132812 214.316406 " fill-opacity="1" fill-rule="nonzero"/><path fill="#5b2714" d="M 148.191406 250.476562 C 143.871094 250.476562 140.054688 249.628906 137.152344 248.027344 C 133.460938 245.988281 131.507812 241.105469 131.644531 234.277344 C 131.699219 231.617188 131.925781 228.320312 132.210938 224.148438 C 132.414062 221.199219 132.644531 217.855469 132.855469 214.074219 C 132.875 213.742188 133.160156 213.460938 133.492188 213.507812 C 133.820312 213.523438 134.078125 213.808594 134.058594 214.140625 C 133.847656 217.925781 133.617188 221.28125 133.410156 224.234375 C 133.128906 228.386719 132.902344 231.667969 132.851562 234.300781 C 132.71875 240.660156 134.457031 245.160156 137.734375 246.972656 C 140.460938 248.476562 144.074219 249.273438 148.191406 249.273438 C 148.234375 249.273438 148.292969 249.285156 148.3125 249.273438 C 148.644531 249.273438 148.914062 249.542969 148.914062 249.871094 C 148.914062 250.246094 148.558594 250.476562 148.191406 250.476562 " fill-opacity="1" fill-rule="nonzero"/><path fill="#5b2714" d="M 166.511719 247.28125 C 166.222656 247.28125 165.96875 247.070312 165.917969 246.777344 C 165.863281 246.449219 166.089844 246.140625 166.414062 246.089844 C 172.335938 245.113281 174.460938 241.265625 173.292969 233.605469 C 172.617188 229.144531 170.675781 220.480469 168.007812 212.003906 C 167.90625 211.683594 168.082031 211.34375 168.402344 211.246094 C 168.714844 211.148438 169.054688 211.324219 169.15625 211.640625 C 171.84375 220.183594 173.804688 228.921875 174.484375 233.425781 C 175.757812 241.785156 173.253906 246.183594 166.609375 247.277344 C 166.578125 247.28125 166.542969 247.28125 166.511719 247.28125 " fill-opacity="1" fill-rule="nonzero"/><path fill="#5b2714" d="M 137.183594 214.296875 C 137.042969 214.296875 136.90625 214.25 136.792969 214.152344 C 136.539062 213.9375 136.507812 213.558594 136.722656 213.304688 C 137.089844 212.875 137.089844 212.417969 137.039062 211.042969 C 137 210.007812 136.949219 208.585938 137.09375 206.476562 C 137.863281 195.488281 138.910156 184.636719 139.390625 182.777344 C 139.980469 180.46875 142.328125 178.796875 145.996094 178.078125 C 150.800781 177.136719 156.640625 177.996094 158.011719 179.847656 C 159.714844 182.136719 162.292969 189.957031 165.277344 199.015625 C 165.808594 200.625 166.34375 202.25 166.878906 203.867188 C 167.257812 204.992188 167.484375 206.386719 167.707031 207.734375 C 167.910156 209.011719 168.226562 210.945312 168.589844 211.214844 C 168.859375 211.410156 168.917969 211.785156 168.71875 212.054688 C 168.519531 212.320312 168.144531 212.378906 167.878906 212.183594 C 167.152344 211.648438 166.886719 210.21875 166.515625 207.925781 C 166.300781 206.625 166.085938 205.28125 165.738281 204.246094 C 165.199219 202.628906 164.664062 201 164.132812 199.390625 C 161.300781 190.804688 158.628906 182.699219 157.042969 180.5625 C 156.066406 179.246094 150.78125 178.367188 146.226562 179.257812 C 144.378906 179.621094 141.1875 180.597656 140.554688 183.074219 C 140.152344 184.648438 139.125 194.679688 138.296875 206.5625 C 138.15625 208.605469 138.203125 209.992188 138.242188 211 C 138.296875 212.46875 138.328125 213.277344 137.640625 214.085938 C 137.523438 214.226562 137.355469 214.296875 137.183594 214.296875 " fill-opacity="1" fill-rule="nonzero"/><path fill="#5b2714" d="M 148.9375 247.933594 C 148.9375 247.933594 148.933594 247.933594 148.933594 247.933594 C 141.925781 247.875 134.773438 246.410156 134.859375 236.027344 C 134.890625 231.980469 135.324219 223.703125 135.84375 214.101562 C 135.859375 213.765625 136.136719 213.492188 136.480469 213.53125 C 136.808594 213.546875 137.0625 213.832031 137.046875 214.167969 C 136.527344 223.753906 136.097656 232.015625 136.0625 236.035156 C 135.984375 245.800781 142.667969 246.675781 148.945312 246.730469 C 149.273438 246.734375 149.542969 247.003906 149.539062 247.339844 C 149.539062 247.671875 149.269531 247.933594 148.9375 247.933594 " fill-opacity="1" fill-rule="nonzero"/><path fill="#5b2714" d="M 148.730469 250.410156 C 149.777344 251.222656 150.734375 251.320312 151.578125 250.695312 C 152.910156 249.703125 153.484375 247.335938 153.058594 246.523438 C 152.773438 245.980469 152.441406 245.695312 152.039062 245.648438 C 151.246094 245.558594 150.226562 246.359375 149.65625 246.914062 C 149.796875 247.171875 149.925781 247.519531 149.929688 247.960938 C 149.9375 248.761719 149.535156 249.585938 148.730469 250.410156 Z M 150.414062 252.3125 C 149.566406 252.3125 148.527344 251.949219 147.363281 250.804688 C 147.125 250.570312 147.121094 250.191406 147.351562 249.953125 C 147.433594 249.867188 147.539062 249.8125 147.648438 249.789062 C 148.359375 249.125 148.726562 248.5 148.722656 247.972656 C 148.722656 247.558594 148.476562 247.324219 148.476562 247.320312 C 148.226562 247.105469 148.195312 246.726562 148.410156 246.472656 C 148.609375 246.246094 150.378906 244.238281 152.175781 244.453125 C 152.738281 244.515625 153.53125 244.828125 154.125 245.960938 C 154.839844 247.328125 154.082031 250.332031 152.296875 251.664062 C 151.875 251.972656 151.226562 252.3125 150.414062 252.3125 " fill-opacity="1" fill-rule="nonzero"/><path fill="#5b2714" d="M 163.476562 244.851562 C 163.332031 244.851562 163.1875 244.871094 163.046875 244.914062 C 162.609375 245.046875 162.414062 245.539062 162.328125 245.925781 C 162.039062 247.210938 162.523438 249.105469 163.316406 249.824219 C 163.980469 250.425781 164.605469 250.667969 165.171875 250.570312 C 165.8125 250.449219 166.308594 249.917969 166.601562 249.523438 C 166.1875 249.199219 165.671875 248.660156 165.519531 247.921875 C 165.441406 247.507812 165.457031 246.886719 165.925781 246.1875 C 165.394531 245.640625 164.40625 244.851562 163.476562 244.851562 Z M 164.90625 251.796875 C 164.109375 251.796875 163.304688 251.4375 162.511719 250.71875 C 161.390625 249.703125 160.765625 247.390625 161.152344 245.664062 C 161.375 244.671875 161.925781 243.996094 162.695312 243.761719 C 164.929688 243.085938 167.023438 245.59375 167.113281 245.703125 C 167.246094 245.863281 167.277344 246.078125 167.21875 246.265625 C 167.222656 246.40625 167.175781 246.546875 167.078125 246.660156 C 166.761719 247.03125 166.644531 247.367188 166.703125 247.683594 C 166.808594 248.238281 167.460938 248.6875 167.703125 248.816406 C 167.988281 248.96875 168.105469 249.324219 167.960938 249.617188 C 167.921875 249.695312 167.03125 251.441406 165.402344 251.75 C 165.238281 251.78125 165.074219 251.796875 164.90625 251.796875 " fill-opacity="1" fill-rule="nonzero"/><path fill="#5b2714" d="M 137.765625 208.058594 C 137.742188 208.058594 137.710938 208.058594 137.683594 208.050781 C 137.351562 208.003906 137.125 207.699219 137.171875 207.371094 C 138.554688 197.652344 143.859375 192.179688 146.207031 191.050781 C 149 189.714844 152.355469 189.769531 155.65625 191.199219 C 160.871094 193.460938 165.199219 198.65625 167.230469 205.097656 C 167.332031 205.417969 167.15625 205.753906 166.835938 205.855469 C 166.519531 205.953125 166.179688 205.777344 166.082031 205.460938 C 164.152344 199.34375 160.078125 194.425781 155.175781 192.300781 C 152.199219 191.015625 149.203125 190.953125 146.730469 192.136719 C 144.652344 193.132812 139.667969 198.390625 138.363281 207.542969 C 138.320312 207.84375 138.0625 208.058594 137.765625 208.058594 " fill-opacity="1" fill-rule="nonzero"/><path fill="#5b2714" d="M 168.425781 212.285156 C 168.179688 212.285156 167.949219 212.128906 167.859375 211.886719 C 167.746094 211.574219 167.910156 211.226562 168.21875 211.113281 C 168.449219 211.035156 168.65625 210.933594 168.859375 210.835938 C 169.625 210.46875 170.488281 210.054688 172.085938 210.566406 C 172.402344 210.667969 172.574219 211.007812 172.472656 211.324219 C 172.371094 211.640625 172.03125 211.816406 171.714844 211.710938 C 170.574219 211.34375 170.074219 211.582031 169.382812 211.917969 C 169.144531 212.035156 168.898438 212.148438 168.628906 212.25 C 168.5625 212.273438 168.496094 212.285156 168.425781 212.285156 " fill-opacity="1" fill-rule="nonzero"/><path fill="#5b2714" d="M 133.132812 214.242188 C 132.882812 214.242188 132.644531 214.085938 132.5625 213.835938 C 132.457031 213.519531 132.625 213.175781 132.941406 213.070312 C 134.03125 212.703125 135.378906 212.414062 137.09375 213.039062 C 137.40625 213.15625 137.566406 213.5 137.453125 213.8125 C 137.339844 214.125 136.996094 214.285156 136.679688 214.171875 C 135.394531 213.699219 134.410156 213.84375 133.324219 214.210938 C 133.261719 214.230469 133.195312 214.242188 133.132812 214.242188 " fill-opacity="1" fill-rule="nonzero"/><path fill="#5b2714" d="M 237.59375 196.128906 C 237.269531 196.128906 237 195.867188 236.992188 195.542969 C 236.960938 194.347656 236.828125 193.242188 236.707031 192.261719 C 236.570312 191.167969 236.464844 190.296875 236.550781 189.664062 C 236.703125 188.542969 238.402344 188.234375 239.125 188.15625 C 239.453125 188.121094 239.753906 188.355469 239.789062 188.6875 C 239.828125 189.019531 239.589844 189.3125 239.257812 189.351562 C 238.328125 189.453125 237.808594 189.730469 237.734375 189.859375 C 237.679688 190.304688 237.785156 191.144531 237.902344 192.117188 C 238.027344 193.121094 238.167969 194.261719 238.195312 195.507812 C 238.207031 195.84375 237.941406 196.117188 237.609375 196.128906 C 237.605469 196.128906 237.601562 196.128906 237.59375 196.128906 " fill-opacity="1" fill-rule="nonzero"/><path fill="#5b2714" d="M 270.359375 128.960938 C 270.207031 128.960938 270.054688 128.90625 269.9375 128.789062 C 269.070312 127.941406 268.667969 127.09375 268.734375 126.273438 C 268.820312 125.214844 269.644531 124.496094 270.285156 124.019531 C 270.242188 124.011719 270.203125 124.003906 270.15625 123.996094 C 269.4375 123.859375 268.546875 123.6875 267.789062 122.84375 C 266.863281 121.8125 267.875 119.824219 268.964844 117.707031 C 266.703125 119.246094 264.515625 120.425781 263.070312 120.015625 C 262.535156 119.863281 262.136719 119.5 261.914062 118.96875 C 261.453125 117.871094 261.78125 115.5625 262.285156 112.644531 C 260.78125 115.695312 259.464844 118.210938 258.527344 118.910156 C 258.15625 119.191406 257.722656 119.300781 257.292969 119.21875 C 256.148438 119.019531 255.226562 117.597656 254.480469 116.457031 C 254.445312 116.410156 254.414062 116.359375 254.378906 116.308594 C 254.375 116.523438 254.375 116.757812 254.371094 116.960938 C 254.351562 118.574219 254.332031 120.398438 253.414062 121.105469 C 252.652344 121.695312 251.535156 121.617188 250.644531 121.40625 C 251.027344 122.683594 250.578125 123.660156 250.210938 124.195312 C 250.023438 124.472656 249.648438 124.539062 249.375 124.355469 C 249.101562 124.164062 249.03125 123.789062 249.21875 123.515625 C 249.773438 122.707031 249.707031 121.789062 249.015625 120.796875 C 248.886719 120.613281 248.820312 120.292969 248.925781 120.097656 C 249.074219 119.8125 249.417969 119.691406 249.710938 119.828125 C 250.40625 120.144531 252.050781 120.644531 252.679688 120.15625 C 253.132812 119.800781 253.15625 117.945312 253.167969 116.949219 C 253.179688 115.722656 253.199219 115.066406 253.484375 114.6875 C 253.601562 114.53125 253.867188 114.375 254.082031 114.398438 C 254.585938 114.417969 254.886719 114.878906 255.488281 115.800781 C 256.007812 116.597656 256.875 117.925781 257.5 118.035156 C 257.578125 118.050781 257.667969 118.050781 257.804688 117.949219 C 258.664062 117.304688 260.535156 113.480469 261.546875 111.425781 C 262.75 108.964844 262.773438 108.917969 263.234375 108.917969 C 263.414062 108.917969 263.625 109.015625 263.738281 109.152344 C 264.035156 109.503906 263.980469 109.96875 263.546875 112.433594 C 263.210938 114.363281 262.640625 117.585938 263.023438 118.503906 C 263.109375 118.699219 263.222656 118.804688 263.402344 118.859375 C 264.765625 119.257812 268.230469 116.769531 269.371094 115.957031 C 270.21875 115.347656 270.449219 115.1875 270.824219 115.480469 C 271.039062 115.640625 271.117188 115.9375 271.023438 116.183594 C 270.8125 116.75 270.449219 117.449219 270.066406 118.195312 C 269.539062 119.21875 268.304688 121.613281 268.6875 122.042969 C 269.171875 122.582031 269.761719 122.695312 270.386719 122.8125 C 270.832031 122.902344 271.292969 122.988281 271.703125 123.242188 C 271.875 123.347656 272.03125 123.613281 272.039062 123.8125 C 272.050781 124.246094 271.722656 124.480469 271.269531 124.800781 C 270.757812 125.160156 269.988281 125.707031 269.933594 126.367188 C 269.898438 126.820312 270.183594 127.34375 270.78125 127.933594 C 271.019531 128.164062 271.023438 128.546875 270.789062 128.78125 C 270.671875 128.902344 270.515625 128.960938 270.359375 128.960938 " fill-opacity="1" fill-rule="nonzero"/></svg>