<svg xmlns="http://www.w3.org/2000/svg" xmlns:xlink="http://www.w3.org/1999/xlink" width="500" zoomAndPan="magnify" viewBox="0 0 375 374.999991" height="500" preserveAspectRatio="xMidYMid meet" version="1.0"><defs><clipPath id="45358058c1"><path d="M 41.128906 71 L 54 71 L 54 94 L 41.128906 94 Z M 41.128906 71 " clip-rule="nonzero"/></clipPath><clipPath id="c9297c8d4c"><path d="M 183 13.84375 L 203 13.84375 L 203 17 L 183 17 Z M 183 13.84375 " clip-rule="nonzero"/></clipPath></defs><path fill="#4c4457" d="M 284.738281 301.074219 C 284.429688 302.285156 283.234375 302.753906 282.578125 303.667969 C 281.300781 303.117188 281.644531 301.957031 281.664062 301.007812 C 281.75 291.449219 280.972656 281.941406 279.519531 272.503906 C 278.519531 266.023438 277.066406 259.613281 272.953125 254.21875 C 272.574219 253.734375 272.210938 253.25 271.761719 252.820312 C 269.273438 250.417969 268.496094 250.332031 265.625 252.265625 C 263.34375 253.785156 260.875 254.925781 258.335938 255.929688 C 257.367188 256.308594 256.449219 256.742188 255.898438 257.691406 C 253.582031 261.6875 250.089844 264.332031 246.066406 266.371094 C 238.53125 270.171875 230.511719 272.140625 222.09375 272.609375 C 220.332031 272.710938 218.585938 273.179688 216.808594 273.007812 C 215.71875 272.902344 215.613281 273.523438 215.632812 274.40625 C 215.703125 276.859375 216.152344 279.28125 216.097656 281.753906 C 216.03125 285.8125 214.835938 289.148438 210.863281 290.914062 C 206.957031 292.640625 203.554688 291.640625 200.5625 288.804688 C 200.460938 288.699219 200.339844 288.648438 200.046875 288.613281 C 199.613281 289.460938 199.441406 290.464844 199.058594 291.363281 C 197.695312 294.523438 195.308594 296.496094 191.871094 296.582031 C 188.554688 296.652344 186.03125 295.027344 184.507812 291.96875 C 183.265625 289.460938 183.125 286.710938 182.660156 284.035156 C 182.347656 282.183594 182.175781 282.046875 180.414062 282.703125 C 168.9375 286.972656 157.207031 290.273438 145.144531 292.3125 C 134.617188 294.09375 124.023438 294.785156 113.414062 293.023438 C 111.910156 292.78125 111.289062 293.089844 111.273438 294.714844 C 111.203125 300.710938 111.445312 306.691406 111.964844 312.671875 C 112.085938 314.003906 112.707031 315.457031 111.617188 316.699219 C 110.425781 315.871094 109.023438 315.230469 109.023438 313.453125 C 108.214844 312.121094 108.195312 310.597656 108.125 309.113281 C 107.867188 304.015625 107.503906 298.914062 107.695312 293.800781 C 107.746094 292.539062 107.453125 291.585938 106.085938 291.085938 C 95.199219 287.023438 89.34375 278.917969 87.371094 267.71875 C 86.542969 263.015625 85.902344 258.28125 86.023438 253.492188 C 86.09375 250.605469 85.472656 247.789062 85.59375 244.921875 C 86.023438 235.535156 86.058594 226.132812 86.714844 216.746094 C 87.457031 206.1875 88.632812 195.714844 90.777344 185.34375 C 91.121094 183.664062 90.605469 182.679688 89.152344 181.832031 C 85.558594 179.707031 82.707031 176.785156 80.804688 173.054688 C 78.558594 168.613281 78.074219 164.082031 80.667969 159.570312 C 81.945312 157.359375 84.035156 156.238281 86.335938 155.457031 C 87.335938 155.113281 88.375 155.199219 89.1875 156.027344 C 90.035156 156.875 89.585938 157.792969 89.273438 158.707031 C 88.789062 160.125 88.132812 161.523438 88.53125 163.082031 C 88.804688 164.152344 89.152344 165.363281 90.5 165.328125 C 91.691406 165.292969 92.140625 164.1875 92.347656 163.167969 C 92.695312 161.472656 92.589844 159.78125 92.28125 158.085938 C 91.519531 154.058594 90.242188 150.152344 89.289062 146.175781 C 87.785156 139.886719 87.042969 133.578125 88.21875 127.128906 C 90.308594 115.707031 96.738281 107.597656 106.898438 102.222656 C 112.566406 99.234375 118.617188 96.988281 124.09375 93.617188 C 129.554688 90.261719 134.53125 86.425781 137.746094 80.6875 C 138.921875 78.597656 139.820312 76.382812 140.546875 74.101562 C 142.84375 66.964844 144.902344 59.757812 147.960938 52.894531 C 147.457031 52.410156 146.992188 52.757812 146.578125 52.84375 C 128.640625 57.007812 112.34375 64.71875 97.773438 75.953125 C 84.484375 86.203125 73.839844 98.714844 65.71875 113.457031 C 57.855469 127.734375 53.8125 143.117188 51.910156 159.175781 C 51.183594 165.328125 50.855469 171.515625 50.613281 177.71875 C 50.113281 190.996094 51.167969 204.113281 53.398438 217.179688 C 53.621094 218.511719 54.660156 220.082031 52.964844 221.277344 C 51.410156 221.65625 51.167969 220.617188 50.925781 219.460938 C 48.851562 209.28125 47.796875 198.996094 47.589844 188.625 C 47.210938 169.441406 48.75 150.480469 54.605469 132.109375 C 61.140625 111.660156 72.542969 94.273438 88.445312 79.910156 C 105.484375 64.527344 125.339844 54.554688 147.71875 49.558594 C 149.792969 49.09375 151.070312 48.261719 152.261719 46.449219 C 162.527344 30.894531 177.113281 23.546875 195.65625 24.722656 C 214.648438 25.933594 229.613281 34.59375 240.5 50.25 C 241.035156 51.027344 241.535156 51.652344 242.554688 51.996094 C 272.28125 62.054688 295.902344 79.960938 312.597656 106.683594 C 321.980469 121.703125 327.613281 138.121094 330.585938 155.5625 C 333.265625 171.34375 333.628906 187.175781 332.019531 203.058594 C 330.242188 220.671875 325.175781 237.417969 318.039062 253.578125 C 314.375 261.859375 310.296875 269.929688 305.511719 277.621094 C 304.871094 278.640625 304.285156 279.679688 302.796875 278.917969 C 301.691406 277.914062 302.554688 277.015625 303.039062 276.203125 C 306.667969 270.328125 309.816406 264.191406 312.753906 257.96875 C 319.578125 243.554688 324.902344 228.621094 327.664062 212.839844 C 329.808594 200.621094 330.464844 188.296875 329.859375 175.957031 C 328.925781 157.222656 325.230469 139.039062 317.382812 121.859375 C 311.40625 108.773438 303.4375 97.054688 293.3125 86.789062 C 280.230469 73.515625 264.96875 63.628906 247.65625 56.820312 C 246.703125 56.4375 245.734375 56.109375 244.769531 55.78125 C 244.578125 55.710938 244.386719 55.644531 244.128906 55.78125 C 243.957031 56.542969 244.421875 57.183594 244.628906 57.855469 C 247.117188 65.773438 246.582031 73.445312 242.867188 80.878906 C 241.863281 82.882812 240.949219 84.957031 239.84375 86.910156 C 234.953125 95.550781 233.914062 104.78125 235.488281 114.425781 C 236.265625 119.214844 236.765625 124.035156 236.472656 128.894531 C 236.007812 136.617188 232.984375 142.980469 226.207031 147.214844 C 224.859375 148.0625 223.390625 148.578125 221.734375 149.132812 C 225.121094 151.429688 227.816406 154.300781 230.460938 157.222656 C 231.253906 158.101562 232.015625 158.050781 233.015625 157.636719 C 241.261719 154.214844 249.710938 153.730469 258.230469 156.375 C 275.132812 161.613281 284.324219 182.835938 270 198.632812 C 268.21875 200.605469 266.007812 202.125 263.640625 203.386719 C 261.324219 204.613281 261.304688 204.996094 262.773438 207.121094 C 266.699219 212.773438 270.671875 218.40625 274.058594 224.421875 C 274.59375 225.371094 275.113281 226.339844 275.597656 227.308594 C 279.296875 234.738281 278.535156 240.546875 272.867188 246.613281 C 271.675781 247.894531 271.726562 248.394531 273.058594 249.519531 C 277.152344 252.976562 279.398438 257.640625 280.921875 262.671875 C 282.40625 267.578125 283.289062 272.625 283.839844 277.707031 C 284.585938 284.550781 285.207031 291.398438 285.222656 298.292969 C 285.222656 299.261719 285.222656 300.210938 284.738281 301.074219 Z M 284.738281 301.074219 " fill-opacity="1" fill-rule="nonzero"/><path fill="#fee0a0" d="M 284.738281 301.074219 C 284.617188 292.625 284.136719 284.1875 283.027344 275.789062 C 282.355469 270.65625 281.4375 265.574219 279.695312 260.683594 C 277.707031 255.152344 275.339844 251.9375 270.550781 248.167969 C 271.605469 247.0625 272.695312 245.992188 273.695312 244.832031 C 277.429688 240.53125 278.222656 235.640625 276.289062 230.332031 C 274.335938 224.972656 271.035156 220.34375 267.941406 215.625 C 265.921875 212.546875 263.8125 209.523438 261.667969 206.53125 C 260.648438 205.097656 260.734375 204.234375 262.429688 203.402344 C 269.808594 199.773438 274.472656 193.878906 276.03125 185.828125 C 278.105469 175.179688 273.003906 164.410156 263.191406 159.140625 C 253.375 153.867188 243.179688 154.164062 233.015625 158.292969 C 231.667969 158.847656 230.996094 158.863281 230.042969 157.652344 C 227.417969 154.335938 224.324219 151.449219 220.503906 149.011719 C 228.730469 146.644531 233.5 141.234375 235.382812 133.195312 C 236.316406 129.167969 236.195312 125.074219 235.78125 120.996094 C 235.351562 116.65625 234.574219 112.371094 234.296875 108.015625 C 233.847656 100.738281 235.558594 93.960938 238.925781 87.566406 C 239.84375 85.820312 240.726562 84.058594 241.65625 82.3125 C 246.375 73.410156 246.964844 64.285156 242.917969 54.746094 C 245.113281 55.089844 246.929688 55.953125 248.761719 56.699219 C 279.175781 69.109375 302.296875 89.519531 316.761719 119.25 C 323.640625 133.386719 327.527344 148.40625 329.359375 163.996094 C 331.035156 178.289062 330.984375 192.566406 329.152344 206.828125 C 326.941406 223.988281 321.566406 240.21875 314.375 255.894531 C 311.128906 262.949219 307.535156 269.828125 303.472656 276.445312 C 303.003906 277.1875 302.402344 277.898438 302.796875 278.882812 C 300.378906 281.371094 298.738281 284.449219 296.558594 287.128906 C 292.742188 291.878906 289.09375 296.789062 284.738281 301.074219 Z M 284.738281 301.074219 " fill-opacity="1" fill-rule="nonzero"/><path fill="#fee0a0" d="M 52.964844 221.277344 C 53.882812 219.945312 53.105469 218.597656 52.878906 217.335938 C 49.90625 201.140625 49.285156 184.839844 50.460938 168.457031 C 51.480469 154.265625 53.675781 140.300781 58.859375 126.972656 C 66.480469 107.375 78.472656 90.921875 94.769531 77.644531 C 110.339844 64.960938 127.964844 56.492188 147.527344 52.015625 C 147.976562 51.910156 148.445312 51.875 149.167969 51.753906 C 145.175781 59.6875 143.242188 68.140625 140.355469 76.230469 C 137.902344 83.125 133.253906 88.242188 127.273438 92.25 C 122.402344 95.535156 117.042969 97.921875 111.722656 100.375 C 105.363281 103.332031 99.363281 106.769531 95.0625 112.523438 C 88.738281 121.011719 87.183594 130.570312 88.773438 140.835938 C 89.671875 146.710938 91.761719 152.296875 92.867188 158.101562 C 93.265625 160.195312 93.367188 162.304688 92.609375 164.359375 C 92.226562 165.378906 91.535156 166.210938 90.378906 166.191406 C 89.222656 166.175781 88.617188 165.242188 88.234375 164.257812 C 87.492188 162.355469 87.890625 160.503906 88.652344 158.707031 C 88.980469 157.914062 89.703125 157.117188 88.925781 156.269531 C 88.097656 155.371094 87.0625 155.683594 86.074219 156.027344 C 80.960938 157.773438 78.367188 162.820312 79.734375 168.613281 C 81.117188 174.472656 84.746094 178.671875 89.878906 181.574219 C 91.414062 182.4375 91.761719 183.335938 91.414062 184.910156 C 87.164062 204.890625 86.40625 225.183594 86.316406 245.507812 C 86.285156 254.21875 86.507812 262.949219 88.839844 271.46875 C 91.414062 280.835938 97.171875 287.230469 106.3125 290.464844 C 107.867188 291.015625 108.335938 291.761719 108.28125 293.382812 C 108.09375 300.074219 108.488281 306.726562 108.972656 313.398438 C 108.367188 313.78125 107.902344 313.625 107.367188 313.140625 C 101.214844 307.644531 95.582031 301.699219 90.328125 295.335938 C 85.417969 289.410156 80.855469 283.273438 76.675781 276.828125 C 68.898438 264.8125 62.589844 252.09375 57.820312 238.59375 C 56.042969 233.546875 54.625 228.378906 53.070312 223.261719 C 52.894531 222.675781 53 221.949219 52.964844 221.277344 Z M 52.964844 221.277344 " fill-opacity="1" fill-rule="nonzero"/><path fill="#fe9575" d="M 111.617188 316.683594 C 111.238281 309.90625 110.5625 303.132812 110.703125 296.324219 C 110.71875 295.371094 110.769531 294.402344 110.683594 293.453125 C 110.582031 292.191406 111.132812 291.949219 112.257812 292.175781 C 125.21875 294.664062 138.023438 293.195312 150.757812 290.617188 C 160.972656 288.546875 170.960938 285.640625 180.707031 281.960938 C 182.988281 281.09375 182.9375 281.128906 183.246094 283.652344 C 183.542969 286.074219 183.695312 288.546875 184.628906 290.84375 C 185.976562 294.164062 188.605469 296.097656 191.734375 296.082031 C 194.859375 296.046875 197.644531 293.867188 198.785156 290.480469 C 199.164062 289.390625 199.507812 288.285156 199.542969 286.832031 C 201.339844 288.753906 202.964844 290.5 205.558594 290.980469 C 210.65625 291.914062 215.148438 288.511719 215.496094 283.308594 C 215.703125 280.230469 215.269531 277.171875 214.957031 274.128906 C 214.804688 272.59375 215.269531 272.382812 216.667969 272.351562 C 225.792969 272.160156 234.710938 270.863281 243.109375 267.113281 C 248.207031 264.832031 252.960938 262.101562 255.671875 256.863281 C 256.054688 256.136719 256.796875 255.914062 257.488281 255.652344 C 260.925781 254.304688 264.246094 252.734375 267.164062 250.449219 C 268.0625 249.761719 268.738281 249.96875 269.566406 250.46875 C 272.972656 252.457031 274.957031 255.601562 276.460938 259.09375 C 279.210938 265.488281 280.265625 272.261719 280.972656 279.125 C 281.785156 286.921875 282.320312 294.734375 282.214844 302.578125 C 282.214844 302.976562 282.164062 303.410156 282.5625 303.6875 C 277.429688 308.835938 272.261719 313.933594 266.351562 318.1875 C 265.4375 317.476562 265.539062 316.355469 265.332031 315.402344 C 264.261719 310.445312 263.035156 305.535156 259.925781 301.386719 C 256.226562 296.460938 251.144531 294.734375 245.164062 295.355469 C 236.523438 296.238281 228.730469 299.726562 221.058594 303.445312 C 210.066406 308.765625 199.527344 314.921875 188.933594 320.96875 C 178.511719 326.914062 168.09375 332.859375 157.773438 338.980469 C 157.359375 339.222656 156.875 339.308594 156.460938 339.550781 C 140.027344 334.847656 125.199219 327 111.617188 316.683594 Z M 111.617188 316.683594 " fill-opacity="1" fill-rule="nonzero"/><path fill="#fe9576" d="M 241.3125 333.464844 C 237.285156 335.78125 232.878906 337.214844 228.507812 338.6875 C 213.9375 343.558594 198.9375 345.339844 183.644531 344.425781 C 175.4375 343.941406 167.296875 342.800781 159.398438 340.257812 C 159.433594 339.238281 160.316406 338.960938 160.988281 338.566406 C 169.769531 333.464844 178.582031 328.402344 187.394531 323.335938 C 196.554688 318.066406 205.765625 312.863281 215.113281 307.953125 C 224.308594 303.132812 233.519531 298.378906 243.957031 296.738281 C 251.855469 295.492188 257.210938 298.101562 260.910156 305.363281 C 262.84375 309.164062 263.707031 313.332031 264.277344 317.53125 C 264.382812 318.324219 264.398438 319.171875 263.898438 319.898438 C 259.804688 323.390625 255.15625 326.070312 250.539062 328.78125 C 248.484375 329.992188 246.445312 331.183594 244.214844 332.066406 C 243.265625 330.839844 244.925781 329.472656 243.9375 328.023438 C 242.382812 329.59375 242.851562 332.046875 241.3125 333.464844 Z M 241.3125 333.464844 " fill-opacity="1" fill-rule="nonzero"/><path fill="#574152" d="M 263.914062 319.914062 C 263.605469 314.488281 262.445312 309.25 259.804688 304.464844 C 256.519531 298.5 251.300781 296.183594 244.527344 297.1875 C 236.523438 298.378906 229.234375 301.507812 222.078125 305.035156 C 206.007812 312.96875 190.609375 322.128906 175.089844 331.0625 C 169.835938 334.089844 164.515625 336.976562 159.433594 340.257812 C 158.449219 340.015625 157.464844 339.792969 156.480469 339.550781 C 158.414062 337.457031 161.023438 336.386719 163.425781 335.023438 C 180.84375 325.03125 198.074219 314.714844 215.890625 305.449219 C 223.738281 301.371094 231.703125 297.464844 240.429688 295.546875 C 245.0625 294.523438 249.695312 294.023438 254.238281 296.046875 C 259.75 298.519531 262.34375 303.304688 264.15625 308.644531 C 265.210938 311.738281 265.902344 314.9375 266.371094 318.167969 C 265.59375 318.828125 264.933594 319.621094 263.914062 319.914062 Z M 263.914062 319.914062 " fill-opacity="1" fill-rule="nonzero"/><g clip-path="url(#45358058c1)"><path fill="#4a4654" d="M 42.441406 93.097656 C 41.734375 92.941406 41.128906 92.613281 41.285156 91.75 C 41.386719 91.164062 41.679688 90.59375 41.90625 90.023438 C 44.1875 84.386719 47.125 79.117188 50.546875 74.085938 C 50.824219 73.6875 51.066406 73.273438 51.394531 72.925781 C 51.910156 72.375 52.34375 71.390625 53.34375 72.148438 C 54.3125 72.894531 53.621094 73.601562 53.15625 74.257812 C 49.941406 78.753906 47.246094 83.539062 44.945312 88.550781 C 44.429688 89.660156 44.015625 90.816406 43.511719 91.921875 C 43.304688 92.425781 43.097656 92.976562 42.441406 93.097656 Z M 42.441406 93.097656 " fill-opacity="1" fill-rule="nonzero"/></g><path fill="#464155" d="M 317.953125 69.832031 C 318.59375 70.007812 318.972656 70.507812 319.335938 70.992188 C 323.121094 76.074219 326.351562 81.464844 328.839844 87.308594 C 329.152344 88.035156 329.929688 89.019531 328.632812 89.554688 C 327.476562 90.023438 327.164062 88.984375 326.800781 88.1875 C 324.277344 82.625 321.273438 77.316406 317.609375 72.425781 C 317.175781 71.855469 316.554688 71.269531 316.984375 70.4375 C 317.160156 70.042969 317.488281 69.816406 317.953125 69.832031 Z M 317.953125 69.832031 " fill-opacity="1" fill-rule="nonzero"/><g clip-path="url(#c9297c8d4c)"><path fill="#464553" d="M 192.769531 13.902344 C 195.484375 14.058594 198.195312 13.9375 200.890625 14.4375 C 201.617188 14.578125 202.515625 14.558594 202.464844 15.613281 C 202.414062 16.6875 201.53125 16.652344 200.789062 16.566406 C 195.636719 16.011719 190.503906 15.890625 185.355469 16.511719 C 184.613281 16.597656 183.921875 16.355469 183.765625 15.578125 C 183.574219 14.613281 184.40625 14.542969 185.0625 14.402344 C 187.601562 13.851562 190.195312 14.058594 192.769531 13.902344 Z M 192.769531 13.902344 " fill-opacity="1" fill-rule="nonzero"/></g><path fill="#494456" d="M 321.046875 274.027344 C 320.875 274.425781 320.683594 274.925781 320.441406 275.425781 C 318.664062 279.195312 316.414062 282.667969 314.015625 286.054688 C 313.546875 286.714844 313.046875 287.578125 312.0625 286.921875 C 311.164062 286.316406 311.714844 285.589844 312.128906 284.96875 C 314.53125 281.40625 316.777344 277.761719 318.695312 273.921875 C 318.992188 273.316406 319.386719 272.695312 320.253906 272.851562 C 320.824219 272.972656 321.03125 273.386719 321.046875 274.027344 Z M 321.046875 274.027344 " fill-opacity="1" fill-rule="nonzero"/><path fill="#474253" d="M 65.648438 285.917969 C 65.648438 286.558594 65.304688 286.800781 64.941406 287.007812 C 64.40625 287.335938 63.992188 286.988281 63.730469 286.609375 C 62.78125 285.296875 61.796875 283.980469 60.964844 282.597656 C 59.53125 280.164062 58.167969 277.65625 56.835938 275.148438 C 56.472656 274.457031 56.023438 273.523438 57.027344 273.007812 C 58.082031 272.472656 58.410156 273.421875 58.789062 274.148438 C 60.621094 277.777344 62.675781 281.269531 64.957031 284.640625 C 65.269531 285.070312 65.476562 285.570312 65.648438 285.917969 Z M 65.648438 285.917969 " fill-opacity="1" fill-rule="nonzero"/><path fill="#484753" d="M 112.03125 46.933594 C 111.394531 47.054688 110.976562 46.863281 110.789062 46.34375 C 110.527344 45.617188 110.996094 45.222656 111.53125 44.875 C 113.484375 43.648438 115.558594 42.628906 117.71875 41.832031 C 119.738281 41.074219 121.796875 40.398438 123.835938 39.691406 C 124.542969 39.449219 125.21875 39.34375 125.476562 40.242188 C 125.683594 40.988281 125.253906 41.367188 124.59375 41.59375 C 120.429688 42.992188 116.386719 44.6875 112.515625 46.792969 C 112.34375 46.898438 112.117188 46.914062 112.03125 46.933594 Z M 112.03125 46.933594 " fill-opacity="1" fill-rule="nonzero"/><path fill="#5a4356" d="M 241.3125 333.464844 C 241.796875 331.789062 242.296875 330.128906 242.78125 328.453125 C 243.003906 327.675781 243.421875 327.054688 244.355469 327.277344 C 245.320312 327.503906 245.042969 328.332031 244.941406 328.9375 C 244.769531 329.992188 244.476562 331.027344 244.234375 332.066406 C 243.402344 332.84375 242.332031 333.085938 241.3125 333.464844 Z M 241.3125 333.464844 " fill-opacity="1" fill-rule="nonzero"/><path fill="#fcfcfd" d="M 124.40625 212.824219 C 124.40625 208.398438 124.40625 203.976562 124.40625 199.53125 C 124.40625 199.1875 124.441406 198.839844 124.40625 198.511719 C 124.335938 197.855469 124.371094 197.0625 123.402344 197.007812 C 122.417969 196.957031 122.125 197.597656 122.089844 198.445312 C 122.019531 200.15625 121.898438 201.847656 121.847656 203.558594 C 121.535156 211.597656 121.207031 219.632812 121 227.6875 C 120.964844 229.15625 120.5 229.882812 119.136719 230.382812 C 110.21875 233.617188 101.230469 234.222656 92.140625 231.109375 C 90.242188 230.453125 88.875 229.675781 89.015625 227.117188 C 89.773438 213.429688 90.691406 199.773438 93.523438 186.34375 C 95.683594 176.164062 99.210938 166.570312 106.761719 159 C 112.445312 153.28125 119.203125 149.617188 127.359375 148.804688 C 129.191406 148.613281 129.917969 149.289062 130.4375 151.070312 C 133.148438 160.453125 137.140625 169.164062 144.296875 176.113281 C 150.121094 181.746094 157.050781 184.789062 165.136719 185.257812 C 166.070312 185.308594 166.691406 185.257812 166.917969 186.535156 C 167.175781 187.988281 168.300781 189.09375 167.695312 190.941406 C 167.140625 192.671875 168.90625 193.8125 170.425781 194.191406 C 173.605469 194.953125 175.835938 197.597656 179.066406 198.203125 C 179.773438 198.339844 179.894531 199.238281 180.207031 199.808594 C 182.644531 204.304688 184.992188 208.867188 189.070312 212.167969 C 194.359375 216.4375 200.667969 217.613281 207.214844 218.007812 C 209.792969 218.164062 209.859375 218.128906 209.324219 220.671875 C 208.910156 222.640625 209.464844 225.335938 208.027344 226.410156 C 206.714844 227.394531 204.226562 226.894531 202.257812 226.925781 C 192.164062 227.136719 183.023438 230.246094 174.140625 235.015625 C 157.964844 243.691406 142.394531 241.808594 127.480469 231.421875 C 124.320312 229.226562 122.917969 226.945312 123.386719 223.074219 C 123.785156 219.71875 123.472656 216.261719 123.472656 212.859375 C 123.785156 212.824219 124.09375 212.824219 124.40625 212.824219 Z M 124.40625 212.824219 " fill-opacity="1" fill-rule="nonzero"/><path fill="#fed7c4" d="M 231.738281 251.9375 C 230.21875 253.546875 228.230469 254.445312 226.328125 255.464844 C 225.726562 255.792969 225.136719 256.121094 224.585938 256.519531 C 224.238281 256.761719 224.046875 257.15625 224.238281 257.589844 C 224.429688 258.003906 224.792969 258.140625 225.242188 258.160156 C 226.085938 258.175781 226.8125 257.761719 227.554688 257.417969 C 233.8125 254.53125 238.460938 249.828125 242.417969 244.316406 C 243.003906 243.484375 243.609375 242.640625 244.25 241.859375 C 244.683594 241.34375 245.269531 240.6875 245.960938 241.136719 C 246.546875 241.515625 246.167969 242.242188 245.960938 242.828125 C 244.890625 245.820312 243.058594 248.378906 241.121094 250.847656 C 237.078125 256 231.894531 259.457031 225.570312 261.203125 C 224.980469 261.355469 224.394531 261.546875 223.824219 261.753906 C 223.097656 262.03125 222.648438 262.566406 222.925781 263.34375 C 223.234375 264.191406 223.925781 263.742188 224.480469 263.621094 C 230.511719 262.359375 235.644531 259.402344 240.15625 255.152344 C 239.253906 256.726562 237.976562 258.039062 235.867188 259.523438 C 232.65625 261.789062 229.128906 263.570312 225.292969 264.210938 C 215.667969 265.800781 206.734375 269.308594 197.816406 273.074219 C 183.402344 279.160156 168.664062 284.378906 153.351562 287.800781 C 143.433594 290.015625 133.410156 291.605469 123.179688 291.257812 C 118.546875 291.101562 113.949219 290.515625 109.476562 289.238281 C 99.503906 286.367188 93.09375 279.953125 90.828125 269.808594 C 88.082031 257.519531 88.632812 245.042969 88.824219 232.320312 C 99.46875 236.726562 109.871094 236.054688 120.394531 232.441406 C 120.691406 234.585938 120.1875 236.640625 120.085938 238.699219 C 119.773438 244.695312 119.253906 250.675781 118.894531 256.65625 C 118.824219 257.832031 118.339844 257.96875 117.355469 257.867188 C 116.007812 257.726562 114.625 257.710938 113.277344 257.675781 C 112.535156 257.660156 111.617188 257.605469 111.601562 258.660156 C 111.566406 259.699219 112.5 259.714844 113.226562 259.765625 C 118.113281 260.183594 123.003906 260.613281 127.894531 260.976562 C 134.429688 261.476562 140.960938 261.839844 147.511719 262.015625 C 156.394531 262.257812 165.242188 261.808594 174.089844 261.183594 C 177.542969 260.941406 181 260.546875 184.457031 260.183594 C 187.84375 259.835938 190.265625 258.109375 191.800781 255.046875 C 193.582031 251.503906 194.773438 247.738281 196.261719 244.089844 C 197.710938 240.476562 199.214844 236.902344 202.222656 234.222656 C 203.15625 233.390625 204.140625 232.683594 205.351562 232.371094 C 206.109375 232.183594 207.042969 231.785156 207.578125 232.683594 C 208.0625 233.496094 207.597656 234.273438 207.078125 234.929688 C 206.4375 235.726562 205.765625 236.503906 205.109375 237.28125 C 201.289062 241.757812 203.035156 246.785156 208.824219 247.910156 C 213.558594 248.828125 218.015625 247.566406 222.40625 246.027344 C 226.605469 244.558594 230.460938 242.414062 234.332031 240.253906 C 235.023438 239.875 236.007812 238.886719 236.644531 239.753906 C 237.269531 240.597656 236.109375 241.324219 235.539062 241.894531 C 232.601562 244.902344 229.058594 247.082031 225.414062 249.101562 C 224.878906 249.398438 224.34375 249.691406 223.804688 249.984375 C 223.203125 250.332031 222.527344 250.726562 222.890625 251.558594 C 223.324219 252.542969 224.203125 252.179688 224.824219 251.886719 C 226.535156 251.074219 228.195312 250.140625 229.890625 249.257812 C 230.511719 250.105469 231.410156 250.8125 231.738281 251.9375 Z M 231.738281 251.9375 " fill-opacity="1" fill-rule="nonzero"/><path fill="#fed7c3" d="M 184.804688 129.550781 C 184.855469 131.242188 184.835938 132.953125 185.269531 134.613281 C 186.445312 139.195312 189.3125 142.21875 193.683594 143.894531 C 196.105469 144.828125 198.644531 145.382812 201.167969 145.867188 C 202.445312 146.109375 203.242188 146.765625 203.777344 147.886719 C 209.1875 159.277344 207.527344 173.539062 195.136719 180.261719 C 193.546875 181.125 192.90625 182.335938 193.046875 184.082031 C 193.183594 185.980469 193.460938 187.867188 193.21875 189.785156 C 190.574219 188.800781 188.378906 187.347656 186.996094 184.753906 C 186.203125 183.269531 185.0625 181.972656 184.058594 180.589844 C 182.832031 178.894531 181.242188 178.238281 179.273438 179.207031 C 178.375 179.640625 177.683594 179.605469 176.820312 179.070312 C 174.453125 177.632812 173.34375 177.925781 171.667969 180.089844 C 169.179688 183.269531 165.84375 183.183594 162.25 182.628906 C 153.335938 181.261719 146.714844 176.390625 141.496094 169.335938 C 136.898438 163.117188 134.101562 156.082031 132.199219 148.632812 C 131.886719 147.4375 132.183594 146.886719 133.304688 146.488281 C 134.964844 145.902344 136.589844 145.191406 138.214844 144.5 C 149.167969 139.78125 154.664062 130.742188 157.757812 119.785156 C 159.175781 114.738281 160.175781 109.585938 161.074219 104.4375 C 161.164062 103.96875 161.265625 103.519531 161.457031 102.671875 C 163.53125 105.941406 165.429688 108.914062 167.332031 111.886719 C 170.113281 118.140625 173.984375 123.464844 179.945312 127.113281 C 181.484375 128.082031 183.367188 128.355469 184.804688 129.550781 Z M 184.804688 129.550781 " fill-opacity="1" fill-rule="nonzero"/><path fill="#fed7c3" d="M 201.066406 75.988281 C 205.574219 74.863281 209.824219 73.773438 213.664062 71.492188 C 217.515625 69.210938 220.574219 66.222656 222.664062 61.726562 C 224.617188 67.519531 228.472656 71.492188 232.550781 75.261719 C 233.828125 76.4375 233.414062 77.699219 232.984375 79.011719 C 231.980469 82.070312 231.980469 82.070312 228.816406 81.863281 C 226.019531 81.671875 223.21875 81.671875 220.523438 82.539062 C 218.3125 83.246094 216.53125 84.578125 215.320312 86.582031 C 215.011719 87.117188 214.769531 87.773438 215.425781 88.207031 C 215.945312 88.550781 216.480469 88.308594 216.84375 87.808594 C 219.296875 84.265625 222.976562 83.851562 226.8125 83.886719 C 231.394531 83.902344 231.410156 83.921875 229.628906 88.1875 C 224.652344 100.117188 218.292969 111.125 208.804688 120.09375 C 207.476562 121.355469 206.023438 122.515625 204.605469 123.671875 C 199.769531 127.597656 194.445312 128.289062 188.707031 126.023438 C 181.363281 123.121094 175.472656 118.28125 170.597656 112.164062 C 167.867188 108.738281 165.535156 105.074219 163.390625 101.273438 C 162.390625 99.492188 162.078125 97.800781 162.683594 95.828125 C 163.21875 94.082031 163.632812 92.285156 164.359375 90.59375 C 164.824219 89.519531 164.945312 88.671875 163.339844 88.933594 C 161.40625 89.242188 161.042969 88.308594 161.542969 86.703125 C 162.0625 85.0625 161.714844 84.316406 159.847656 84.886719 C 159.191406 85.09375 158.691406 84.75 158.292969 84.179688 C 157.015625 82.347656 157.292969 78.304688 158.882812 76.003906 C 160.417969 73.773438 162.976562 72.773438 165.464844 73.394531 C 168.28125 74.101562 169.265625 76.230469 167.988281 78.820312 C 167.902344 79.011719 167.765625 79.167969 167.695312 79.355469 C 167.417969 80.136719 166.535156 81.015625 167.675781 81.65625 C 168.90625 82.347656 169.164062 81.101562 169.527344 80.394531 C 171.046875 77.507812 173.570312 76.109375 176.644531 75.933594 C 183.179688 75.570312 189.710938 76.351562 196.261719 76.488281 C 199.113281 76.539062 201.546875 78.804688 204.125 80.1875 C 204.953125 80.636719 205.972656 82.105469 206.855469 80.6875 C 207.71875 79.339844 206.058594 78.925781 205.246094 78.371094 C 203.949219 77.558594 202.621094 76.886719 201.066406 75.988281 Z M 201.066406 75.988281 " fill-opacity="1" fill-rule="nonzero"/><path fill="#fcfcfd" d="M 231.738281 251.9375 C 230.960938 251.140625 229.734375 250.640625 229.871094 249.222656 C 232.34375 247.324219 234.96875 245.613281 237.09375 243.296875 C 239.066406 241.136719 239.53125 239.613281 238.566406 238.285156 C 237.527344 236.882812 235.835938 236.8125 233.207031 238.300781 C 228.160156 241.152344 223.0625 243.847656 217.378906 245.195312 C 214.441406 245.886719 211.46875 246.320312 208.496094 245.492188 C 204.988281 244.503906 204.191406 241.722656 206.542969 238.992188 C 207.613281 237.765625 208.894531 236.710938 209.53125 235.136719 C 210.101562 233.753906 210.328125 232.371094 209.273438 231.109375 C 208.269531 229.902344 206.992188 229.902344 205.558594 230.160156 C 202.359375 230.730469 200.21875 232.71875 198.386719 235.171875 C 196.085938 238.265625 194.722656 241.828125 193.355469 245.386719 C 192.285156 248.1875 191.179688 250.953125 189.988281 253.699219 C 188.742188 256.535156 186.445312 257.882812 183.402344 258.109375 C 181.570312 258.246094 179.6875 258.210938 177.925781 258.679688 C 175.765625 259.25 175.332031 258.109375 175.039062 256.464844 C 172.929688 244.679688 179.1875 234.34375 190.746094 230.867188 C 197.695312 228.792969 204.882812 228.847656 212.039062 229.15625 C 213.472656 229.226562 214.855469 230.054688 216.273438 230.539062 C 216.964844 230.765625 217.671875 230.921875 218.035156 230.109375 C 218.464844 229.191406 217.792969 228.671875 217.101562 228.378906 C 215.339844 227.636719 213.558594 226.960938 211.675781 226.6875 C 210.984375 226.582031 210.535156 226.546875 210.726562 225.632812 C 211.121094 223.558594 211.433594 221.484375 211.832031 219.0625 C 213.972656 221.050781 216.289062 222.210938 218.933594 222.691406 C 219.398438 222.78125 219.867188 222.882812 220.332031 222.933594 C 220.953125 222.988281 221.578125 223.023438 221.679688 222.121094 C 221.765625 221.328125 221.335938 221.035156 220.679688 220.859375 C 219.175781 220.445312 217.65625 220.082031 216.183594 219.582031 C 215.527344 219.355469 214.75 219.167969 214.492188 218.183594 C 217.863281 218.027344 221.164062 217.886719 224.464844 217.714844 C 225.292969 217.664062 226.519531 217.871094 226.398438 216.558594 C 226.277344 215.417969 225.1875 215.539062 224.273438 215.539062 C 218.207031 215.570312 212.175781 216.003906 206.09375 215.675781 C 195.035156 215.089844 187.464844 209.800781 182.765625 199.914062 C 180.792969 195.78125 183.644531 190.632812 188.277344 190.441406 C 189.726562 190.390625 190.9375 190.925781 191.871094 192.046875 C 194.101562 194.710938 196.414062 197.320312 198.542969 200.070312 C 200.632812 202.78125 203.277344 203.992188 206.679688 203.800781 C 210.15625 203.613281 213.628906 203.59375 217.101562 203.457031 C 223.132812 203.179688 229.078125 203.472656 234.796875 205.703125 C 239.1875 207.414062 243.765625 207.898438 248.433594 207.328125 C 249.226562 207.222656 249.640625 207.242188 249.953125 208.105469 C 251.871094 213.257812 252.476562 218.648438 253.167969 224.058594 C 253.304688 225.164062 252.632812 225.042969 251.941406 225.0625 C 249.902344 225.09375 247.84375 224.785156 245.839844 225.371094 C 243.4375 226.082031 242.574219 227.722656 243.453125 230.003906 C 243.59375 230.382812 243.816406 230.574219 243.523438 231.042969 C 241.484375 234.378906 241.691406 235.535156 244.613281 238.109375 C 244.75 238.230469 244.871094 238.402344 245.148438 238.679688 C 242.867188 239.441406 241.761719 241.324219 240.550781 243.089844 C 238.113281 246.527344 235.28125 249.570312 231.738281 251.9375 Z M 231.738281 251.9375 " fill-opacity="1" fill-rule="nonzero"/><path fill="#fe9475" d="M 122.988281 230.800781 C 131.421875 237.230469 140.097656 241.878906 150.414062 242.550781 C 160.609375 243.226562 169.957031 240.582031 178.703125 235.292969 C 177.148438 237.417969 175.539062 239.457031 174.503906 241.84375 C 172.445312 246.546875 172.015625 251.417969 172.84375 256.449219 C 173.277344 259.058594 173.3125 259.09375 170.632812 259.25 C 167.433594 259.4375 164.238281 259.59375 161.042969 259.714844 C 148.425781 260.148438 135.84375 259.316406 123.265625 258.4375 C 122.246094 258.367188 121.175781 258.417969 121.277344 256.828125 C 121.847656 248.34375 122.402344 239.855469 122.988281 230.800781 Z M 122.988281 230.800781 " fill-opacity="1" fill-rule="nonzero"/><path fill="#fed7c2" d="M 222.960938 174.644531 C 224.703125 176.371094 224.824219 178.046875 223.375 179.726562 C 222.890625 180.277344 222.304688 180.78125 221.714844 181.246094 C 219.035156 183.40625 218.933594 184.496094 221.164062 187.070312 C 221.335938 187.261719 221.472656 187.484375 221.785156 187.902344 C 220.488281 188.109375 219.261719 188.230469 219.417969 189.921875 C 219.539062 191.253906 220.195312 192.082031 221.371094 192.515625 C 221.855469 192.6875 222.511719 192.878906 222.839844 192.257812 C 223.21875 191.546875 222.5625 191.324219 222.113281 191.0625 C 221.523438 190.71875 220.765625 190.371094 220.972656 189.578125 C 221.144531 188.921875 221.820312 188.574219 222.527344 188.382812 C 224.1875 187.953125 223.789062 187.449219 222.71875 186.550781 C 221.871094 185.859375 220.78125 184.808594 221.023438 183.820312 C 221.300781 182.734375 223.667969 181.402344 224.167969 180.78125 C 226.3125 178.046875 226.207031 176.0625 223.71875 173.847656 C 223.355469 173.539062 223.410156 173.347656 223.53125 173.035156 C 223.703125 172.585938 223.859375 172.136719 224.046875 171.707031 C 224.617188 170.390625 224.878906 168.679688 225.863281 167.886719 C 227.089844 166.917969 228.230469 168.734375 229.527344 169.078125 C 232.066406 169.785156 234.589844 170.046875 237.199219 169.855469 C 237.855469 169.804688 238.703125 169.40625 238.945312 170.617188 C 239.859375 175.074219 243.125 176.855469 247.171875 177.753906 C 249.519531 178.289062 249.519531 178.324219 248.292969 180.417969 C 247.394531 181.953125 246.582031 183.527344 246.273438 185.289062 C 245.667969 188.679688 247.207031 191.582031 250.246094 192.929688 C 254.136719 194.660156 254.394531 199.6875 250.730469 202.367188 C 249.105469 203.558594 247.238281 203.820312 245.285156 203.664062 C 244.421875 203.59375 243.90625 203.109375 243.664062 202.332031 C 243.160156 200.761719 242.175781 200.605469 240.65625 200.878906 C 236.023438 201.761719 231.375 202.316406 226.675781 201.191406 C 219.453125 199.480469 212.367188 188.160156 219.503906 180.8125 C 221.195312 179.101562 222.078125 176.890625 222.960938 174.644531 Z M 222.960938 174.644531 " fill-opacity="1" fill-rule="nonzero"/><path fill="#fed6c2" d="M 261.6875 210.644531 C 265.78125 216.332031 269.792969 222.105469 272.988281 228.363281 C 276.566406 235.414062 275.546875 240.703125 269.550781 245.855469 C 263.777344 250.832031 257.210938 254.289062 249.589844 255.464844 C 248.378906 255.652344 247.152344 255.636719 245.925781 255.671875 C 245.390625 255.6875 244.683594 255.722656 244.5625 255.082031 C 244.40625 254.269531 245.164062 254.132812 245.753906 253.996094 C 247.34375 253.632812 248.949219 253.320312 250.539062 252.957031 C 255.308594 251.886719 256.8125 248.894531 254.859375 244.351562 C 254.617188 243.796875 254.324219 243.261719 254.03125 242.691406 C 254.496094 242.207031 255.707031 242.605469 255.65625 241.515625 C 255.621094 240.511719 254.652344 240.496094 253.980469 240.304688 C 251.214844 239.492188 248.554688 238.492188 246.21875 236.761719 C 245.5625 236.277344 244.976562 235.707031 244.457031 235.085938 C 243.9375 234.464844 243.921875 233.703125 244.371094 232.996094 C 244.820312 232.304688 245.441406 232.355469 246.167969 232.5625 C 248.792969 233.269531 251.4375 233.894531 254.066406 234.550781 C 254.324219 234.617188 254.601562 234.722656 254.859375 234.722656 C 255.828125 234.722656 257.261719 235.378906 257.523438 234.082031 C 257.816406 232.648438 256.226562 232.90625 255.328125 232.664062 C 252.578125 231.921875 249.796875 231.230469 247.050781 230.472656 C 246.046875 230.195312 244.941406 229.691406 245.097656 228.464844 C 245.269531 227.203125 246.53125 227.117188 247.535156 227.082031 C 252.0625 226.875 256.46875 227.652344 260.824219 228.898438 C 261.515625 229.105469 262.671875 229.933594 263.015625 228.519531 C 263.328125 227.273438 262.066406 227.289062 261.304688 226.960938 C 259.683594 226.21875 257.316406 226.667969 256.832031 224.128906 C 257.660156 220.652344 258.335938 217.144531 259.40625 213.738281 C 259.820312 212.511719 260.148438 211.09375 261.6875 210.644531 Z M 261.6875 210.644531 " fill-opacity="1" fill-rule="nonzero"/><path fill="#fdfdfd" d="M 205.921875 146.816406 C 214.007812 147.402344 220.59375 150.6875 225.984375 156.425781 C 229.320312 159.96875 229.421875 160.125 225.84375 163.167969 C 224.375 164.429688 224.375 166.105469 223.597656 167.539062 C 222.699219 169.199219 222.042969 171.015625 221.457031 172.8125 C 220.503906 175.765625 219.3125 178.53125 217.085938 180.78125 C 216.066406 181.800781 215.597656 183.199219 215.027344 184.390625 C 214.941406 184.496094 213.785156 188.488281 215.027344 192.308594 C 216.496094 196.785156 220.402344 201.175781 220.28125 201.15625 C 217.480469 200.984375 206.628906 203.75 201.375 199.707031 C 199.441406 197.511719 197.574219 195.246094 195.707031 192.980469 C 195.414062 192.617188 195.085938 192.257812 195.222656 191.703125 C 195.863281 189.214844 195.5 186.671875 195.414062 184.167969 C 195.378906 183.234375 195.570312 182.679688 196.433594 182.214844 C 208.875 175.507812 211.625 160.886719 206.714844 148.820312 C 206.472656 148.214844 206.230469 147.59375 205.921875 146.816406 Z M 205.921875 146.816406 " fill-opacity="1" fill-rule="nonzero"/><path fill="#fed6c1" d="M 197.503906 275.808594 C 197.417969 280.230469 197.851562 284.398438 197.074219 288.511719 C 196.535156 291.34375 194.738281 293.417969 192.578125 293.730469 C 189.78125 294.144531 187.308594 292.46875 186.480469 289.496094 C 185.734375 286.867188 185.683594 284.121094 185.375 281.425781 C 185.285156 280.699219 185.597656 280.300781 186.273438 280.058594 C 189.953125 278.675781 193.617188 277.277344 197.503906 275.808594 Z M 197.503906 275.808594 " fill-opacity="1" fill-rule="nonzero"/><path fill="#fcfcfb" d="M 211.46875 269.84375 C 216.132812 268.117188 221.058594 267.546875 225.84375 266.335938 C 231.980469 264.796875 237.476562 262.167969 241.675781 257.242188 C 241.96875 256.898438 242.210938 256.085938 242.917969 256.640625 C 245.304688 258.558594 247.964844 257.691406 250.574219 257.433594 C 251.25 257.363281 251.921875 257.296875 252.769531 257.191406 C 251.976562 258.9375 250.714844 260.027344 249.332031 261.011719 C 242.917969 265.558594 235.644531 267.839844 228.003906 269.136719 C 222.527344 270.085938 217.015625 270.171875 211.46875 269.84375 Z M 211.46875 269.84375 " fill-opacity="1" fill-rule="nonzero"/><path fill="#fed5c0" d="M 186.875 188.296875 C 183.523438 189.578125 181.035156 191.667969 179.738281 194.96875 C 179.394531 195.851562 178.960938 196.164062 178.082031 195.660156 C 175.660156 194.277344 173.292969 192.84375 170.527344 192.238281 C 169.820312 192.082031 169.320312 191.496094 169.5625 190.699219 C 169.820312 189.820312 170.546875 190.269531 171.117188 190.285156 C 171.722656 190.304688 172.535156 191.097656 172.84375 190.113281 C 173.121094 189.230469 172.101562 189.164062 171.546875 188.851562 C 170.789062 188.417969 169.976562 188.039062 169.285156 187.519531 C 168.75 187.121094 168.628906 186.429688 169.042969 185.878906 C 169.421875 185.359375 169.871094 185.84375 170.304688 185.980469 C 171.359375 186.328125 172.292969 187.226562 173.65625 186.761719 C 173.242188 185.550781 171.964844 185.480469 171.203125 184.789062 C 170.683594 184.324219 169.714844 184.097656 170.476562 183.09375 C 171.046875 182.335938 171.636719 182.421875 172.394531 182.90625 C 173.414062 183.546875 174.382812 185.394531 175.523438 184.304688 C 176.214844 183.648438 174.363281 182.664062 173.65625 181.832031 C 173.292969 181.417969 173.136719 180.988281 173.621094 180.605469 C 174.105469 180.242188 174.660156 179.863281 175.28125 180.296875 C 175.660156 180.554688 175.953125 180.953125 176.265625 181.296875 C 177.269531 182.386719 178.113281 184.824219 179.34375 181.351562 C 179.757812 180.191406 182.089844 180.449219 182.488281 181.816406 C 183.125 183.996094 185.164062 184.996094 186.03125 186.898438 C 186.253906 187.347656 186.566406 187.78125 186.875 188.296875 Z M 186.875 188.296875 " fill-opacity="1" fill-rule="nonzero"/><path fill="#fed6c1" d="M 212.523438 273.265625 C 212.796875 276.167969 213.214844 279.074219 213.335938 281.976562 C 213.472656 285.226562 211.65625 287.871094 209.066406 288.699219 C 206.285156 289.582031 203.605469 288.320312 201.566406 285.519531 C 199.941406 283.257812 199.628906 280.820312 199.925781 278.175781 C 203.691406 276.066406 207.785156 274.71875 211.777344 273.109375 C 212.039062 273.007812 212.296875 273.074219 212.523438 273.265625 Z M 212.523438 273.265625 " fill-opacity="1" fill-rule="nonzero"/><path fill="#fdbfa2" d="M 261.6875 210.644531 C 259.179688 213.808594 259.09375 217.785156 258.09375 221.449219 C 257.832031 222.433594 257.675781 223.417969 256.847656 224.109375 C 255.984375 223.367188 255.257812 223.003906 255.449219 225.042969 C 255.085938 221.640625 254.84375 218.613281 254.136719 215.640625 C 253.839844 214.449219 254.046875 213.566406 254.964844 212.738281 C 256.65625 211.183594 257.917969 209.230469 259.421875 207.292969 C 260.253906 208.539062 260.960938 209.59375 261.6875 210.644531 Z M 261.6875 210.644531 " fill-opacity="1" fill-rule="nonzero"/><path fill="#fb9470" d="M 184.804688 129.550781 C 180.085938 128.566406 176.507812 125.695312 173.3125 122.308594 C 170.71875 119.578125 168.800781 116.378906 167.261719 112.957031 C 167.105469 112.613281 166.8125 112.230469 167.296875 111.886719 C 170.804688 115.929688 174.363281 119.921875 178.789062 123 C 180.292969 124.035156 181.777344 125.160156 183.4375 125.886719 C 185.355469 126.714844 185.597656 127.875 184.804688 129.550781 Z M 184.804688 129.550781 " fill-opacity="1" fill-rule="nonzero"/><path fill="#fbfbfa" d="M 248.519531 240.839844 C 251.164062 242.257812 253.011719 243.96875 253.355469 246.804688 C 253.566406 248.53125 253.046875 249.914062 251.164062 250.398438 C 248.882812 250.96875 246.582031 251.523438 243.9375 252.164062 C 245.582031 248.273438 248.226562 245.128906 248.519531 240.839844 Z M 248.519531 240.839844 " fill-opacity="1" fill-rule="nonzero"/><path fill="#f7f6f8" d="M 111.460938 108.046875 C 103.738281 115.929688 100.089844 125.453125 99.96875 136.515625 C 97.222656 126.628906 101.734375 112.578125 111.460938 108.046875 Z M 111.460938 108.046875 " fill-opacity="1" fill-rule="nonzero"/><path fill="#fdbea4" d="M 212.523438 273.265625 C 208.789062 274.855469 205.074219 276.464844 201.339844 278.019531 C 200.925781 278.191406 200.40625 278.121094 199.941406 278.175781 C 199.890625 277.363281 199.855469 276.566406 199.75 275.753906 C 199.683594 275.148438 199.785156 274.71875 200.425781 274.476562 C 203.761719 273.164062 206.921875 271.054688 210.792969 272.125 C 211.449219 272.316406 212.554688 271.953125 212.523438 273.265625 Z M 212.523438 273.265625 " fill-opacity="1" fill-rule="nonzero"/><path fill="#f7f6f8" d="M 226.65625 124.15625 C 227.972656 133.785156 220.835938 142.632812 213.785156 140.007812 C 221.871094 137.691406 226.15625 132.472656 226.65625 124.15625 Z M 226.65625 124.15625 " fill-opacity="1" fill-rule="nonzero"/><path fill="#f5eff0" d="M 253.460938 211.25 C 253.097656 210.214844 252.890625 209.558594 252.648438 208.933594 C 251.523438 205.824219 251.523438 205.808594 254.738281 205.375 C 255.878906 205.21875 257.019531 205.082031 258.558594 204.890625 C 256.8125 207.085938 255.242188 209.039062 253.460938 211.25 Z M 253.460938 211.25 " fill-opacity="1" fill-rule="nonzero"/><path fill="#f0ebf0" d="M 162.996094 46.15625 C 159.433594 49.613281 156.617188 53.640625 154.25 57.996094 C 155.113281 52.585938 158.136719 48.710938 162.996094 46.15625 Z M 162.996094 46.15625 " fill-opacity="1" fill-rule="nonzero"/><path fill="#f0ecf1" d="M 182.730469 53.136719 C 178.113281 54.847656 173.675781 56.90625 169.441406 59.464844 C 173 55.488281 177.527344 53.585938 182.730469 53.136719 Z M 182.730469 53.136719 " fill-opacity="1" fill-rule="nonzero"/><path fill="#e59b88" d="M 243.4375 205.253906 C 240.8125 205.445312 238.476562 204.355469 235.9375 203.972656 C 240.34375 202.503906 240.984375 202.609375 243.4375 205.253906 Z M 243.4375 205.253906 " fill-opacity="1" fill-rule="nonzero"/><path fill="#e2dce0" d="M 239.238281 61.433594 C 241.140625 64.0625 241.261719 66.84375 240.550781 69.765625 C 240.101562 66.980469 239.671875 64.214844 239.238281 61.433594 Z M 239.238281 61.433594 " fill-opacity="1" fill-rule="nonzero"/><path fill="#e1d8de" d="M 266.421875 185.707031 C 267.269531 184.253906 267.976562 182.785156 268.597656 181.140625 C 269.429688 183.0625 268.804688 184.355469 266.421875 185.707031 Z M 266.421875 185.707031 " fill-opacity="1" fill-rule="nonzero"/><path fill="#564653" d="M 293.761719 154.921875 C 295.765625 156.582031 298.21875 155.355469 300.792969 154.992188 C 303.886719 154.558594 306.066406 157.464844 305.21875 160.472656 C 304.179688 164.117188 302.003906 167.023438 298.894531 169.199219 C 297.5625 170.132812 296.214844 170.132812 294.917969 169.183594 C 291.996094 167.039062 289.785156 164.324219 288.730469 160.800781 C 287.78125 157.585938 289.890625 154.921875 293.761719 154.921875 Z M 293.761719 154.921875 " fill-opacity="1" fill-rule="nonzero"/><path fill="#514150" d="M 285.484375 229.46875 C 285.429688 225.839844 289.023438 223.710938 292.445312 225.457031 C 293.464844 225.976562 294.140625 226.027344 295.144531 225.457031 C 296.921875 224.457031 298.839844 224.507812 300.5 225.820312 C 302.195312 227.167969 302.589844 229.019531 301.847656 230.988281 C 300.585938 234.308594 298.632812 237.140625 295.625 239.128906 C 294.746094 239.71875 293.792969 239.960938 292.722656 239.5625 C 289.734375 238.4375 285.535156 232.597656 285.484375 229.46875 Z M 285.484375 229.46875 " fill-opacity="1" fill-rule="nonzero"/><path fill="#fcf9ed" d="M 272.78125 119.335938 C 272.625 119.300781 272.332031 119.285156 272.125 119.128906 C 270.136719 117.746094 268.132812 116.378906 266.179688 114.945312 C 265.625 114.546875 265.125 113.976562 265.679688 113.234375 C 266.195312 112.523438 266.800781 113.007812 267.285156 113.320312 C 269.410156 114.632812 271.570312 115.878906 273.367188 117.640625 C 273.695312 117.96875 274.09375 118.296875 273.921875 118.851562 C 273.75 119.371094 273.300781 119.300781 272.78125 119.335938 Z M 272.78125 119.335938 " fill-opacity="1" fill-rule="nonzero"/><path fill="#fcf9ee" d="M 294.761719 199.167969 C 294.746094 199.894531 292.238281 202.710938 291.582031 202.765625 C 290.839844 202.816406 290.441406 202.4375 290.460938 201.691406 C 290.476562 201.054688 293.242188 198.355469 293.828125 198.390625 C 294.363281 198.410156 294.726562 198.667969 294.761719 199.167969 Z M 294.761719 199.167969 " fill-opacity="1" fill-rule="nonzero"/><path fill="#554352" d="M 64.820312 190.128906 C 64.804688 186.570312 68.3125 184.53125 71.644531 186.257812 C 72.632812 186.761719 73.324219 187.035156 74.410156 186.398438 C 76.449219 185.203125 78.367188 185.445312 79.890625 186.8125 C 81.53125 188.28125 81.789062 190.199219 81.097656 192.066406 C 79.890625 195.316406 77.886719 198.046875 74.929688 199.980469 C 74.117188 200.519531 73.324219 200.863281 72.269531 200.484375 C 69.089844 199.359375 64.835938 193.5 64.820312 190.128906 Z M 64.820312 190.128906 " fill-opacity="1" fill-rule="nonzero"/><path fill="#fcf9ef" d="M 69.363281 225.164062 C 69.363281 225.648438 69.347656 226.425781 68.464844 226.511719 C 67.550781 226.617188 67.394531 225.875 67.308594 225.164062 C 67.050781 223.089844 66.773438 221.015625 66.546875 218.941406 C 66.480469 218.355469 66.445312 217.628906 67.359375 217.59375 C 68.105469 217.578125 68.464844 218.007812 68.554688 218.71875 C 68.8125 220.808594 69.070312 222.882812 69.363281 225.164062 Z M 69.363281 225.164062 " fill-opacity="1" fill-rule="nonzero"/><path fill="#fcf4ec" d="M 261.789062 287.230469 C 262.515625 285.484375 263.277344 283.601562 264.070312 281.71875 C 264.277344 281.234375 264.660156 280.957031 265.210938 281.199219 C 265.746094 281.425781 265.867188 281.90625 265.714844 282.390625 C 265.054688 284.308594 264.382812 286.230469 263.65625 288.128906 C 263.433594 288.699219 262.914062 288.941406 262.324219 288.753906 C 261.601562 288.511719 261.789062 287.90625 261.789062 287.230469 Z M 261.789062 287.230469 " fill-opacity="1" fill-rule="nonzero"/><path fill="#fdf5eb" d="M 208.894531 335.089844 C 208.410156 335.109375 207.890625 335.125 207.734375 334.519531 C 207.597656 333.96875 207.996094 333.605469 208.425781 333.398438 C 209.652344 332.828125 210.898438 332.308594 212.160156 331.808594 C 214.941406 330.71875 217.773438 329.785156 220.660156 329.023438 C 221.285156 328.867188 221.976562 328.886719 222.214844 329.59375 C 222.425781 330.214844 221.90625 330.613281 221.386719 330.804688 C 217.359375 332.222656 213.316406 333.621094 209.289062 335.023438 C 209.167969 335.074219 209.03125 335.074219 208.894531 335.089844 Z M 208.894531 335.089844 " fill-opacity="1" fill-rule="nonzero"/><path fill="#484257" d="M 155.425781 231.800781 C 144.832031 231.785156 137.105469 227.617188 130.765625 220.53125 C 130.175781 219.894531 129.398438 219.167969 130.453125 218.304688 C 131.421875 217.507812 131.941406 218.441406 132.457031 218.996094 C 137.019531 224.007812 142.394531 227.707031 149.152344 228.984375 C 157.671875 230.59375 165.605469 228.449219 173.277344 224.871094 C 174.746094 224.179688 176.144531 223.316406 177.597656 222.589844 C 178.21875 222.277344 178.925781 221.621094 179.53125 222.625 C 180.15625 223.660156 179.324219 224.109375 178.632812 224.542969 C 174.847656 226.875 170.855469 228.691406 166.605469 229.96875 C 162.632812 231.164062 158.621094 231.714844 155.425781 231.800781 Z M 155.425781 231.800781 " fill-opacity="1" fill-rule="nonzero"/><path fill="#4c3f5c" d="M 192.683594 110.242188 C 194.6875 114.632812 197.675781 116.242188 202.257812 115.53125 C 202.949219 115.429688 203.796875 114.875 204.089844 116.035156 C 204.363281 117.121094 203.433594 117.210938 202.742188 117.398438 C 195.515625 119.316406 190.503906 113.683594 189.902344 108.03125 C 189.78125 106.875 190.558594 106.164062 191.75 107.027344 C 195.8125 110.019531 200.339844 111.660156 205.367188 111.921875 C 205.972656 111.953125 206.472656 112.074219 206.4375 112.820312 C 206.40625 113.648438 205.730469 113.804688 205.125 113.839844 C 202.929688 113.960938 200.804688 113.476562 198.695312 112.90625 C 196.625 112.351562 194.808594 111.175781 192.683594 110.242188 Z M 192.683594 110.242188 " fill-opacity="1" fill-rule="nonzero"/><path fill="#fdb092" d="M 214.285156 95.15625 C 215.285156 97.921875 215.667969 100.859375 215.789062 103.710938 C 215.976562 108.203125 212.367188 110.675781 207.683594 108.808594 C 207.128906 108.585938 206.613281 108.257812 206.074219 107.980469 C 206.578125 107.234375 207.371094 107.375 208.082031 107.269531 C 211.140625 106.785156 212.417969 105.042969 211.8125 101.980469 C 211.519531 100.460938 211.15625 98.941406 210.949219 97.402344 C 210.828125 96.484375 210.585938 95.519531 211.433594 94.757812 C 211.535156 94.515625 211.675781 94.289062 211.746094 94.046875 C 211.882812 93.546875 211.519531 92.820312 212.089844 92.578125 C 212.867188 92.25 212.867188 93.339844 213.421875 93.53125 C 214.023438 93.910156 214.476562 94.378906 214.285156 95.15625 Z M 214.285156 95.15625 " fill-opacity="1" fill-rule="nonzero"/><path fill="#544157" d="M 211.46875 94.738281 C 211.277344 96.726562 211.796875 98.644531 212.195312 100.566406 C 213.300781 106.078125 211.777344 107.945312 206.109375 107.960938 C 205.160156 107.617188 204.175781 107.324219 203.257812 106.890625 C 202.636719 106.597656 202.117188 106.042969 202.601562 105.25 C 203 104.574219 203.554688 104.644531 204.191406 104.921875 C 205.367188 105.4375 206.523438 106.007812 207.890625 105.785156 C 209.84375 105.457031 210.636719 104.523438 210.308594 102.550781 C 209.671875 98.734375 208.894531 94.949219 209.222656 91.042969 C 209.253906 90.574219 209.308594 90.089844 209.394531 89.625 C 209.53125 88.949219 209.929688 88.535156 210.691406 88.621094 C 211.433594 88.726562 211.414062 89.3125 211.414062 89.867188 C 211.433594 91.492188 211.449219 93.117188 211.46875 94.738281 Z M 211.46875 94.738281 " fill-opacity="1" fill-rule="nonzero"/><path fill="#4f4153" d="M 196.882812 91.835938 C 192.578125 91.613281 189.417969 90.003906 187.015625 86.910156 C 186.566406 86.339844 185.945312 85.648438 186.722656 84.957031 C 187.515625 84.230469 188.121094 84.941406 188.585938 85.492188 C 191.457031 88.898438 194.964844 90.453125 199.441406 89.433594 C 200.078125 89.296875 200.890625 89.089844 201.097656 90.054688 C 201.304688 90.988281 200.546875 91.230469 199.890625 91.371094 C 198.785156 91.613281 197.625 91.734375 196.882812 91.835938 Z M 196.882812 91.835938 " fill-opacity="1" fill-rule="nonzero"/><path fill="#513f5b" d="M 214.285156 95.15625 C 214.007812 94.617188 213.730469 94.066406 213.453125 93.53125 C 213.765625 92.335938 214.527344 92.648438 215.164062 93.097656 C 217.828125 95.035156 220.695312 95.605469 223.839844 94.601562 C 224.480469 94.394531 224.878906 94.480469 225.066406 95.1875 C 225.257812 95.96875 224.859375 96.3125 224.203125 96.539062 C 221.59375 97.453125 219.003906 97.402344 216.480469 96.226562 C 215.734375 95.878906 215.011719 95.519531 214.285156 95.15625 Z M 214.285156 95.15625 " fill-opacity="1" fill-rule="nonzero"/><path fill="#513e4e" d="M 163.546875 75.449219 C 165.101562 75.382812 166.121094 76.195312 166.777344 77.507812 C 166.984375 77.921875 167.105469 78.527344 166.605469 78.785156 C 166.15625 79.027344 165.671875 78.839844 165.414062 78.335938 C 164.601562 76.851562 163.511719 76.78125 162.234375 77.734375 C 161.699219 78.128906 161.007812 78.355469 160.644531 77.699219 C 160.316406 77.109375 160.78125 76.539062 161.285156 76.125 C 161.921875 75.570312 162.71875 75.433594 163.546875 75.449219 Z M 163.546875 75.449219 " fill-opacity="1" fill-rule="nonzero"/><path fill="#4c4457" d="M 234.347656 185.34375 C 233.207031 182.765625 232.601562 180.261719 229.492188 180.398438 C 230.113281 178.757812 231.046875 179 232.050781 179.464844 C 234.003906 180.382812 234.988281 182.558594 234.347656 185.34375 Z M 234.347656 185.34375 " fill-opacity="1" fill-rule="nonzero"/><path fill="#483f4c" d="M 250.488281 199.515625 C 249.816406 198.566406 249.816406 197.0625 248.207031 197.007812 C 247.863281 196.992188 247.878906 196.472656 248.105469 196.179688 C 248.398438 195.78125 248.8125 195.574219 249.332031 195.644531 C 250.886719 195.832031 251.507812 197.753906 250.488281 199.515625 Z M 250.488281 199.515625 " fill-opacity="1" fill-rule="nonzero"/><path fill="#4c4457" d="M 230.632812 187.019531 C 230.582031 187.570312 230.285156 187.917969 229.75 187.902344 C 229.335938 187.882812 229.007812 187.660156 229.007812 187.15625 C 229.007812 186.621094 229.25 186.207031 229.769531 186.15625 C 230.304688 186.121094 230.582031 186.5 230.632812 187.019531 Z M 230.632812 187.019531 " fill-opacity="1" fill-rule="nonzero"/><path fill="#4c4457" d="M 221.644531 179.363281 C 221.59375 179.914062 221.300781 180.261719 220.765625 180.242188 C 220.351562 180.226562 220.023438 180 220.023438 179.5 C 220.023438 178.964844 220.265625 178.550781 220.78125 178.5 C 221.316406 178.464844 221.59375 178.84375 221.644531 179.363281 Z M 221.644531 179.363281 " fill-opacity="1" fill-rule="nonzero"/><path fill="#fddea3" d="M 303.351562 159.589844 C 302.417969 162.699219 300.515625 165.378906 297.753906 167.402344 C 296.800781 168.09375 295.902344 167.382812 295.195312 166.761719 C 293.5 165.257812 292.136719 163.445312 291.167969 161.402344 C 290.527344 160.074219 290.183594 158.585938 291.652344 157.53125 C 293.136719 156.496094 294.660156 156.945312 295.660156 158.207031 C 296.75 159.570312 297.371094 159.398438 298.339844 158.136719 C 299.1875 157.03125 300.464844 156.632812 301.832031 157.117188 C 302.78125 157.480469 303.300781 158.292969 303.351562 159.589844 Z M 303.351562 159.589844 " fill-opacity="1" fill-rule="nonzero"/><path fill="#fddfa3" d="M 300.050781 229.46875 C 300.050781 231.613281 296.214844 236.867188 294.246094 237.503906 C 293.519531 237.746094 293.035156 237.382812 292.585938 237.003906 C 290.5625 235.328125 288.972656 233.324219 287.953125 230.886719 C 287.367188 229.503906 287.316406 228.136719 288.75 227.289062 C 290.0625 226.511719 291.582031 226.703125 292.414062 227.929688 C 293.585938 229.660156 294.3125 229.15625 295.332031 227.878906 C 296.179688 226.808594 297.40625 226.632812 298.667969 227.136719 C 299.671875 227.550781 299.964844 228.484375 300.050781 229.46875 Z M 300.050781 229.46875 " fill-opacity="1" fill-rule="nonzero"/><path fill="#fedfa0" d="M 66.894531 190.234375 C 66.773438 189.195312 67.222656 188.316406 68.277344 187.882812 C 69.554688 187.363281 70.835938 187.78125 71.613281 188.746094 C 72.753906 190.164062 73.390625 190.269531 74.550781 188.730469 C 75.394531 187.625 76.863281 187.242188 78.214844 188.175781 C 79.507812 189.074219 79.40625 190.40625 78.921875 191.667969 C 77.988281 194.054688 76.398438 196.007812 74.550781 197.734375 C 74.015625 198.238281 73.339844 198.617188 72.511719 198.289062 C 70.695312 197.578125 66.945312 192.324219 66.894531 190.234375 Z M 66.894531 190.234375 " fill-opacity="1" fill-rule="nonzero"/></svg>