<svg xmlns="http://www.w3.org/2000/svg" xmlns:xlink="http://www.w3.org/1999/xlink" width="500" zoomAndPan="magnify" viewBox="0 0 375 374.999991" height="500" preserveAspectRatio="xMidYMid meet" version="1.0"><defs><clipPath id="e7781b7018"><path d="M 32 237 L 98 237 L 98 324.78125 L 32 324.78125 Z M 32 237 " clip-rule="nonzero"/></clipPath></defs><path fill="#000000" d="M 337.070312 162.007812 C 336.832031 162.007812 336.597656 161.992188 336.359375 161.960938 C 333.320312 161.566406 331.179688 158.792969 331.574219 155.753906 C 335.886719 122.40625 313.292969 91.75 281.207031 87.402344 C 278.167969 86.992188 276.042969 84.191406 276.453125 81.167969 C 276.859375 78.128906 279.664062 76.035156 282.6875 76.410156 C 320.773438 81.574219 347.632812 117.808594 342.546875 157.1875 C 342.203125 159.976562 339.808594 162.007812 337.070312 162.007812 Z M 337.070312 162.007812 " fill-opacity="1" fill-rule="nonzero"/><path fill="#000000" d="M 313.308594 158.777344 C 312.964844 158.777344 312.601562 158.746094 312.253906 158.667969 C 309.25 158.085938 307.28125 155.1875 307.863281 152.179688 C 309.816406 142.089844 307.691406 132.355469 301.878906 124.800781 C 296.179688 117.351562 287.535156 112.863281 277.554688 112.140625 C 274.5 111.917969 272.199219 109.273438 272.421875 106.21875 C 272.640625 103.164062 275.332031 100.832031 278.339844 101.085938 C 291.535156 102.03125 303.011719 108.0625 310.679688 118.042969 C 318.441406 128.152344 321.308594 141.03125 318.742188 154.277344 C 318.238281 156.9375 315.910156 158.777344 313.308594 158.777344 Z M 313.308594 158.777344 " fill-opacity="1" fill-rule="nonzero"/><g clip-path="url(#e7781b7018)"><path fill="#000000" d="M 92.09375 324.742188 C 91.796875 324.742188 91.480469 324.726562 91.183594 324.664062 C 53.253906 318.378906 27.464844 281.378906 33.683594 242.167969 C 34.171875 239.144531 37.003906 237.050781 40.027344 237.554688 C 43.050781 238.027344 45.113281 240.878906 44.640625 243.902344 C 39.367188 277.109375 61.078125 308.429688 93.007812 313.734375 C 96.03125 314.238281 98.078125 317.089844 97.574219 320.113281 C 97.101562 322.820312 94.757812 324.742188 92.09375 324.742188 Z M 92.09375 324.742188 " fill-opacity="1" fill-rule="nonzero"/></g><path fill="#000000" d="M 96.804688 300.144531 C 96.613281 300.144531 96.425781 300.128906 96.238281 300.113281 C 83.074219 298.777344 71.769531 292.414062 64.398438 282.210938 C 56.9375 271.882812 54.449219 258.9375 57.394531 245.757812 C 58.054688 242.769531 61.046875 240.894531 64.007812 241.554688 C 67 242.214844 68.871094 245.175781 68.210938 248.167969 C 65.976562 258.199219 67.816406 267.976562 73.390625 275.707031 C 78.886719 283.3125 87.386719 288.070312 97.355469 289.078125 C 100.410156 289.390625 102.628906 292.101562 102.3125 295.15625 C 102.015625 298.019531 99.605469 300.144531 96.804688 300.144531 Z M 96.804688 300.144531 " fill-opacity="1" fill-rule="nonzero"/><path fill="#000000" d="M 182.550781 315.230469 C 171.308594 315.230469 160.445312 312.332031 149.375 306.570312 C 133.566406 298.335938 124.988281 289.140625 108.296875 253.933594 C 100.597656 237.714844 99.210938 234.613281 96.363281 228.1875 C 94.726562 224.503906 92.582031 219.714844 88.472656 210.644531 C 82.398438 197.277344 78.035156 189.972656 73.4375 182.222656 C 69.675781 175.894531 65.769531 169.359375 60.875 159.34375 C 57.945312 153.378906 50.199219 137.539062 63.472656 130.089844 C 67.738281 127.695312 78.773438 123.902344 88.960938 140.402344 C 94.125 148.71875 97.007812 154.054688 99.558594 158.761719 C 102.519531 164.257812 104.941406 168.730469 109.917969 176.035156 C 109.179688 174.097656 108.421875 172.164062 107.699219 170.257812 C 104.140625 161.03125 100.125 150.574219 96.347656 139.726562 L 94.660156 134.859375 C 92.679688 129.082031 91.105469 124.515625 87.515625 115.320312 C 85.386719 109.839844 82.332031 99.527344 85.8125 91.796875 C 87.433594 88.191406 90.300781 85.542969 94.09375 84.160156 C 101.101562 81.574219 111.179688 82.078125 119.429688 99.101562 C 129.300781 119.460938 132.246094 126.5 137.550781 140.039062 C 139.265625 144.417969 141.738281 149.945312 144.273438 155.1875 C 142.9375 149.394531 141.078125 142.121094 138.542969 133.113281 C 133.597656 118.074219 129.898438 104.171875 126.921875 82.128906 C 124.703125 65.832031 129.425781 55.074219 139.519531 53.359375 C 156.367188 50.398438 162.097656 69.042969 164.835938 77.96875 L 165.183594 79.089844 C 169.890625 94.1875 172.0625 102.816406 174.363281 111.964844 C 175.511719 116.5 176.707031 121.273438 178.296875 127.144531 C 178.882812 129.332031 179.605469 132.183594 180.410156 135.363281 C 180.707031 136.546875 181.054688 137.914062 181.433594 139.378906 C 181.320312 138.074219 181.210938 136.6875 181.070312 135.238281 C 179.148438 114.140625 178.882812 100.566406 180.0625 81.449219 C 181.382812 60.664062 191.664062 57.5 196.027344 57.105469 C 207.710938 56.113281 213.804688 67.8125 215.535156 79.214844 L 215.753906 80.632812 C 218.746094 100.375 219.472656 105.054688 220.777344 127.601562 C 222.054688 149.378906 222.949219 160.511719 225.21875 173.109375 C 227.972656 188.445312 230.242188 196.507812 231.800781 200.742188 C 233.136719 196.617188 234.476562 190.886719 235.34375 187.199219 C 236.398438 182.726562 237.292969 178.855469 238.238281 176.148438 C 245.984375 153.976562 255.417969 145.457031 259.101562 142.8125 C 263.257812 139.835938 275.871094 133.726562 284.136719 141.046875 C 287.425781 143.976562 290.132812 149.171875 287.851562 155.03125 C 286.574219 158.289062 285.363281 161.171875 284.183594 163.960938 C 281.332031 170.699219 278.859375 176.523438 276.4375 185.71875 C 271.492188 204.488281 269.730469 215.730469 268.171875 225.652344 C 266.609375 235.539062 265.273438 244.074219 261.148438 256.449219 C 253.730469 278.714844 244.632812 293.910156 220.054688 305.640625 C 206.65625 312.035156 194.390625 315.230469 182.550781 315.230469 Z M 71.203125 139.097656 C 70.117188 139.097656 69.34375 139.539062 68.902344 139.773438 C 65.960938 141.425781 66.527344 145.679688 70.824219 154.496094 C 75.53125 164.101562 79.3125 170.445312 82.964844 176.570312 C 87.515625 184.222656 92.238281 192.144531 98.566406 206.0625 C 102.707031 215.164062 104.847656 219.984375 106.503906 223.683594 C 109.320312 230.046875 110.691406 233.117188 118.328125 249.175781 C 134.683594 283.691406 141.914062 290.164062 154.507812 296.730469 C 174.09375 306.933594 192.265625 306.601562 215.300781 295.613281 C 236.414062 285.535156 244.015625 272.828125 250.660156 252.925781 C 254.488281 241.429688 255.699219 233.699219 257.242188 223.917969 C 258.769531 214.234375 260.660156 202.191406 265.746094 182.886719 C 268.375 172.917969 271.097656 166.460938 273.996094 159.628906 C 275.144531 156.921875 276.308594 154.132812 277.554688 150.984375 C 277.820312 150.308594 277.050781 149.550781 276.8125 149.332031 C 274.828125 147.597656 268.640625 149.628906 265.585938 151.820312 C 263.367188 153.410156 255.621094 160.085938 248.742188 179.800781 C 247.984375 181.957031 247.101562 185.734375 246.160156 189.734375 C 242.472656 205.464844 240.050781 214.441406 233.265625 215.574219 C 224.871094 216.960938 220.054688 206.773438 214.324219 175.074219 C 211.945312 161.894531 211.03125 150.480469 209.726562 128.246094 C 208.449219 106.21875 207.742188 101.621094 204.796875 82.300781 L 204.59375 80.898438 C 204.074219 77.464844 201.539062 67.78125 197.035156 68.160156 C 194.027344 68.429688 191.664062 74.066406 191.160156 82.160156 C 189.996094 100.863281 190.25 113.523438 192.136719 134.246094 C 194.800781 163.328125 193.570312 171.628906 186.46875 172.886719 C 179.464844 174.164062 177.179688 167.863281 169.6875 138.089844 C 168.898438 134.988281 168.191406 132.183594 167.625 130.042969 C 166.015625 124.089844 164.804688 119.289062 163.65625 114.691406 C 161.292969 105.320312 159.246094 97.226562 154.632812 82.410156 L 154.273438 81.246094 C 150.792969 70.019531 147.421875 63.261719 141.394531 64.304688 C 137.582031 64.949219 136.921875 73.230469 137.929688 80.648438 C 140.792969 101.871094 144.351562 115.242188 149.15625 129.902344 C 161.402344 173.46875 158.664062 177.375 156.871094 179.957031 C 155.734375 181.578125 153.972656 182.601562 152.035156 182.761719 C 151.925781 182.761719 151.832031 182.777344 151.722656 182.777344 C 144.054688 182.777344 134.195312 161.816406 127.253906 144.101562 C 122.058594 130.84375 119.175781 123.964844 109.476562 103.953125 C 103.871094 92.410156 99.714844 93.90625 97.9375 94.566406 C 96.929688 94.945312 96.347656 95.449219 95.9375 96.363281 C 94.660156 99.179688 95.417969 105.054688 97.859375 111.304688 C 101.527344 120.703125 103.132812 125.351562 105.164062 131.253906 L 106.832031 136.074219 C 110.5625 146.75 114.546875 157.125 118.074219 166.273438 C 128.433594 193.183594 130.890625 199.578125 124.277344 202.726562 C 121.363281 204.128906 117.382812 205.953125 102.976562 185.46875 C 96.140625 175.738281 93.214844 170.320312 89.828125 164.039062 C 87.355469 159.472656 84.554688 154.292969 79.671875 146.402344 C 75.941406 140.417969 73.089844 139.097656 71.203125 139.097656 Z M 71.203125 139.097656 " fill-opacity="1" fill-rule="nonzero"/></svg>