<svg xmlns="http://www.w3.org/2000/svg" xmlns:xlink="http://www.w3.org/1999/xlink" width="500" zoomAndPan="magnify" viewBox="0 0 375 374.999991" height="500" preserveAspectRatio="xMidYMid meet" version="1.0"><defs><clipPath id="fdba7fadf3"><path d="M 51.582031 63 L 323.082031 63 L 323.082031 313.4375 L 51.582031 313.4375 Z M 51.582031 63 " clip-rule="nonzero"/></clipPath></defs><g clip-path="url(#fdba7fadf3)"><path fill="#f79da4" d="M 51.582031 153.953125 C 51.582031 162.953125 52.640625 171.027344 54.757812 178.703125 L 54.886719 179.097656 C 55.945312 183.070312 57.269531 187.039062 58.855469 190.746094 C 59.382812 191.9375 59.914062 193.257812 60.574219 194.714844 L 60.839844 195.113281 C 60.972656 195.246094 60.972656 195.507812 61.105469 195.640625 L 61.234375 196.039062 C 63.484375 200.804688 66.128906 205.699219 69.039062 210.464844 C 69.566406 211.390625 70.097656 212.183594 70.757812 213.109375 C 73.535156 217.347656 76.445312 221.582031 79.617188 225.550781 C 80.28125 226.34375 80.941406 227.273438 81.601562 228.066406 C 84.246094 231.375 87.15625 234.683594 90.328125 238.125 L 90.59375 238.386719 C 91.125 238.917969 91.652344 239.445312 92.050781 239.976562 L 92.445312 240.375 C 92.710938 240.636719 92.84375 240.769531 93.105469 241.035156 C 105.804688 254.269531 119.820312 266.578125 135.691406 278.222656 C 136.351562 278.753906 137.144531 279.28125 137.9375 279.8125 C 146.800781 286.296875 156.1875 292.515625 166.238281 298.738281 L 166.636719 299.003906 L 187.265625 313.425781 L 207.894531 299.003906 C 207.894531 299.003906 208.027344 299.003906 208.027344 298.871094 L 208.292969 298.738281 C 228.792969 286.296875 246.644531 273.195312 262.511719 259.035156 C 268.597656 253.609375 274.546875 248.050781 280.101562 242.226562 C 280.5 241.828125 280.894531 241.433594 281.292969 241.035156 C 281.558594 240.769531 281.6875 240.636719 281.953125 240.375 L 282.351562 239.976562 C 282.878906 239.445312 283.410156 238.785156 283.9375 238.257812 L 284.070312 238.125 C 287.109375 234.816406 289.886719 231.640625 292.535156 228.460938 C 292.664062 228.332031 292.796875 228.199219 292.796875 228.066406 C 293.195312 227.667969 293.460938 227.273438 293.855469 226.875 C 294.253906 226.476562 294.515625 226.082031 294.914062 225.683594 C 298.085938 221.714844 300.996094 217.476562 303.773438 213.242188 C 304.304688 212.449219 304.832031 211.523438 305.492188 210.597656 C 306.023438 209.800781 306.550781 208.875 307.082031 208.082031 C 307.875 206.757812 308.667969 205.433594 309.328125 204.113281 C 310.785156 201.464844 312.105469 198.816406 313.429688 196.171875 L 313.558594 195.773438 C 313.691406 195.640625 313.691406 195.375 313.824219 195.113281 L 314.089844 194.582031 C 314.75 193.125 315.28125 191.9375 315.808594 190.613281 C 317.394531 186.773438 318.71875 182.804688 319.777344 178.832031 L 319.910156 178.570312 C 322.023438 170.894531 323.082031 162.820312 323.082031 153.820312 C 323.082031 149.71875 322.949219 145.484375 322.554688 141.117188 C 321.363281 127.75 318.71875 117.160156 314.355469 108.03125 C 308.667969 95.855469 299.542969 85.796875 286.582031 77.457031 C 282.878906 75.078125 279.175781 72.957031 275.605469 71.238281 L 275.210938 70.972656 C 259.867188 63.03125 243.734375 61.445312 227.335938 66.078125 C 224.957031 66.738281 222.574219 67.53125 220.328125 68.460938 C 211.996094 71.503906 204.457031 76.003906 197.84375 81.957031 C 194.011719 85.265625 190.570312 89.105469 187.398438 93.339844 C 184.222656 89.105469 180.652344 85.265625 176.949219 81.957031 C 170.207031 76.265625 162.667969 71.636719 154.335938 68.722656 C 152.089844 67.796875 149.707031 67.003906 147.460938 66.339844 C 130.929688 61.578125 114.925781 63.296875 99.453125 71.238281 L 98.925781 71.503906 C 95.355469 73.222656 91.652344 75.339844 87.949219 77.722656 C 74.988281 86.0625 65.863281 96.117188 60.179688 108.292969 C 55.8125 117.558594 53.300781 128.015625 51.980469 141.378906 C 51.714844 145.617188 51.582031 149.851562 51.582031 153.953125 Z M 308.136719 193.921875 C 308.136719 193.65625 308.007812 193.257812 308.007812 192.996094 C 307.210938 189.023438 305.625 184.65625 303.246094 181.347656 C 301.128906 178.4375 297.558594 176.054688 294.914062 173.539062 C 291.609375 170.230469 287.507812 166.65625 283.539062 164.011719 C 282.351562 163.21875 280.632812 162.289062 279.308594 162.953125 C 277.722656 162.160156 275.871094 161.761719 274.546875 161.496094 C 269.785156 160.835938 264.761719 160.171875 259.867188 159.777344 C 254.84375 159.378906 249.289062 159.910156 244.394531 161.230469 C 239.371094 162.6875 233.949219 164.277344 229.1875 166.261719 C 221.648438 169.4375 216.226562 176.980469 212.789062 184.128906 C 211.730469 186.378906 210.804688 188.757812 209.21875 190.878906 C 206.839844 193.789062 203.796875 193.125 201.152344 195.246094 C 198.242188 197.625 198.375 201.332031 198.375 204.773438 C 198.375 204.773438 198.375 204.773438 198.375 204.90625 C 196.917969 205.964844 194.9375 206.230469 194.011719 207.683594 C 192.820312 209.667969 193.347656 211.917969 193.746094 213.90625 C 193.878906 214.699219 194.144531 216.285156 194.011719 217.214844 C 193.878906 218.40625 193.21875 218.800781 192.6875 219.59375 C 191.894531 221.050781 191.496094 223.035156 191.101562 224.625 C 189.777344 230.050781 190.96875 234.152344 192.6875 239.183594 C 193.085938 240.507812 193.746094 242.09375 194.40625 243.816406 C 194.40625 244.210938 194.539062 244.476562 194.804688 244.742188 C 195.199219 245.667969 195.730469 246.59375 196.257812 247.519531 C 196.257812 247.785156 196.125 248.050781 195.863281 248.578125 C 194.539062 251.09375 191.496094 250.5625 189.117188 250.433594 C 185.414062 250.167969 181.976562 250.167969 178.273438 250.695312 C 171.394531 251.621094 165.84375 255.460938 159.890625 258.902344 C 152.617188 263.136719 146.269531 268.695312 140.320312 274.652344 C 140.1875 274.519531 140.054688 274.386719 139.789062 274.253906 C 140.582031 272.402344 141.375 270.679688 142.039062 268.695312 C 143.890625 262.871094 146.003906 257.710938 146.003906 251.492188 C 146.003906 246.0625 144.285156 240.769531 142.039062 235.875 C 139.65625 230.582031 136.484375 225.816406 132.78125 221.316406 C 129.34375 217.214844 124.976562 213.90625 120.878906 210.464844 C 118.5 208.480469 115.851562 206.757812 113.738281 204.640625 C 111.621094 202.523438 110.5625 199.480469 109.242188 196.832031 C 108.183594 194.714844 107.125 190.746094 107.257812 188.230469 C 107.390625 183.199219 112.019531 179.890625 116.648438 178.964844 C 117.308594 178.832031 117.441406 178.304688 117.308594 177.90625 C 119.953125 177.113281 122.597656 176.714844 125.507812 176.980469 C 136.484375 178.039062 142.699219 185.847656 148.386719 194.582031 C 151.957031 200.140625 158.964844 204.773438 165.710938 204.242188 C 174.171875 203.449219 176.949219 195.246094 182.636719 190.347656 C 182.902344 190.082031 183.035156 189.816406 182.902344 189.421875 C 183.695312 189.023438 184.488281 188.628906 185.414062 188.628906 C 186.472656 188.628906 187.398438 188.757812 188.457031 188.628906 C 190.042969 188.363281 191.496094 187.832031 192.6875 186.773438 C 194.144531 185.449219 195.070312 183.996094 194.539062 181.878906 C 194.273438 180.6875 193.613281 179.761719 192.953125 178.703125 C 194.9375 179.496094 196.789062 179.890625 199.167969 179.230469 C 203.003906 178.304688 201.285156 173.671875 203.929688 171.6875 C 203.929688 171.6875 204.0625 171.554688 204.0625 171.554688 C 207.101562 174.996094 208.820312 175.921875 213.980469 175.261719 C 217.550781 174.730469 219.929688 171.6875 221.386719 168.511719 C 223.632812 163.746094 222.707031 157.792969 223.632812 152.628906 C 224.824219 146.804688 227.734375 140.1875 230.90625 135.160156 C 233.816406 130.660156 238.3125 128.015625 241.355469 123.644531 C 243.46875 120.601562 245.585938 117.425781 247.304688 114.117188 C 250.875 106.972656 253.652344 98.238281 252.859375 90.164062 C 252.859375 90.164062 252.992188 90.03125 252.992188 90.03125 C 255.503906 86.589844 257.621094 82.355469 258.8125 78.253906 C 259.339844 76.53125 260 73.753906 259.738281 71.371094 C 263.96875 72.5625 268.199219 74.148438 272.300781 76.265625 L 272.828125 76.53125 C 276.265625 78.253906 279.835938 80.238281 283.277344 82.488281 C 295.308594 90.296875 303.773438 99.425781 309.0625 110.675781 C 313.164062 119.277344 315.542969 129.203125 316.734375 141.910156 C 317.132812 146.011719 317.261719 150.113281 317.261719 153.953125 C 317.261719 162.421875 316.207031 169.964844 314.222656 177.113281 L 314.089844 177.378906 C 313.03125 181.214844 311.839844 184.921875 310.386719 188.496094 C 309.859375 189.6875 309.328125 190.878906 308.800781 192.199219 L 308.136719 193.65625 C 308.269531 193.789062 308.269531 193.789062 308.136719 193.921875 Z M 308.136719 193.921875 " fill-opacity="1" fill-rule="nonzero"/></g></svg>